<ttFont>
    <TTGlyph name="A" xMin="10" yMin="0" xMax="613" yMax="691">
      <contour>
        <pt x="518" y="0" on="1"/>
        <pt x="439" y="225" on="1"/>
        <pt x="178" y="225" on="1"/>
        <pt x="99" y="0" on="1"/>
        <pt x="10" y="0" on="1"/>
        <pt x="260" y="691" on="1"/>
        <pt x="363" y="691" on="1"/>
        <pt x="613" y="0" on="1"/>
      </contour>
      <contour>
        <pt x="414" y="298" on="1"/>
        <pt x="327" y="547" on="1"/>
        <pt x="311" y="603" on="1"/>
        <pt x="307" y="603" on="1"/>
        <pt x="291" y="547" on="1"/>
        <pt x="204" y="298" on="1"/>
      </contour>
    </TTGlyph>
    <TTGlyph name="AE" xMin="0" yMin="0" xMax="851" yMax="691">
      <contour>
        <pt x="426" y="0" on="1"/>
        <pt x="426" y="231" on="1"/>
        <pt x="218" y="231" on="1"/>
        <pt x="89" y="0" on="1"/>
        <pt x="0" y="0" on="1"/>
        <pt x="379" y="691" on="1"/>
        <pt x="832" y="691" on="1"/>
        <pt x="813" y="615" on="1"/>
        <pt x="512" y="615" on="1"/>
        <pt x="512" y="387" on="1"/>
        <pt x="796" y="387" on="1"/>
        <pt x="796" y="314" on="1"/>
        <pt x="512" y="314" on="1"/>
        <pt x="512" y="76" on="1"/>
        <pt x="851" y="76" on="1"/>
        <pt x="851" y="0" on="1"/>
      </contour>
      <contour>
        <pt x="426" y="304" on="1"/>
        <pt x="426" y="623" on="1"/>
        <pt x="258" y="304" on="1"/>
      </contour>
    </TTGlyph>
    <TTGlyph name="AEacute" xMin="0" yMin="0" xMax="851" yMax="926">
      <contour>
        <pt x="426" y="0" on="1"/>
        <pt x="426" y="231" on="1"/>
        <pt x="218" y="231" on="1"/>
        <pt x="89" y="0" on="1"/>
        <pt x="0" y="0" on="1"/>
        <pt x="379" y="691" on="1"/>
        <pt x="832" y="691" on="1"/>
        <pt x="813" y="615" on="1"/>
        <pt x="512" y="615" on="1"/>
        <pt x="512" y="387" on="1"/>
        <pt x="796" y="387" on="1"/>
        <pt x="796" y="314" on="1"/>
        <pt x="512" y="314" on="1"/>
        <pt x="512" y="76" on="1"/>
        <pt x="851" y="76" on="1"/>
        <pt x="851" y="0" on="1"/>
      </contour>
      <contour>
        <pt x="426" y="304" on="1"/>
        <pt x="426" y="623" on="1"/>
        <pt x="258" y="304" on="1"/>
      </contour>
      <contour>
        <pt x="565" y="742" on="1"/>
        <pt x="501" y="742" on="1"/>
        <pt x="628" y="926" on="1"/>
        <pt x="700" y="872" on="1"/>
      </contour>
    </TTGlyph>
    <TTGlyph name="Aacute" xMin="10" yMin="0" xMax="613" yMax="926">
      <contour>
        <pt x="518" y="0" on="1"/>
        <pt x="439" y="225" on="1"/>
        <pt x="178" y="225" on="1"/>
        <pt x="99" y="0" on="1"/>
        <pt x="10" y="0" on="1"/>
        <pt x="260" y="691" on="1"/>
        <pt x="363" y="691" on="1"/>
        <pt x="613" y="0" on="1"/>
      </contour>
      <contour>
        <pt x="414" y="298" on="1"/>
        <pt x="327" y="547" on="1"/>
        <pt x="311" y="603" on="1"/>
        <pt x="307" y="603" on="1"/>
        <pt x="291" y="547" on="1"/>
        <pt x="204" y="298" on="1"/>
      </contour>
      <contour>
        <pt x="276" y="742" on="1"/>
        <pt x="212" y="742" on="1"/>
        <pt x="339" y="926" on="1"/>
        <pt x="411" y="872" on="1"/>
      </contour>
    </TTGlyph>
    <TTGlyph name="Abreve" xMin="10" yMin="0" xMax="613" yMax="886">
      <contour>
        <pt x="518" y="0" on="1"/>
        <pt x="439" y="225" on="1"/>
        <pt x="178" y="225" on="1"/>
        <pt x="99" y="0" on="1"/>
        <pt x="10" y="0" on="1"/>
        <pt x="260" y="691" on="1"/>
        <pt x="363" y="691" on="1"/>
        <pt x="613" y="0" on="1"/>
      </contour>
      <contour>
        <pt x="414" y="298" on="1"/>
        <pt x="327" y="547" on="1"/>
        <pt x="311" y="603" on="1"/>
        <pt x="307" y="603" on="1"/>
        <pt x="291" y="547" on="1"/>
        <pt x="204" y="298" on="1"/>
      </contour>
      <contour>
        <pt x="444" y="834" on="0"/>
        <pt x="367" y="759" on="0"/>
        <pt x="258" y="759" on="0"/>
        <pt x="180" y="834" on="0"/>
        <pt x="176" y="886" on="1"/>
        <pt x="247" y="886" on="1"/>
        <pt x="257" y="825" on="0"/>
        <pt x="367" y="825" on="0"/>
        <pt x="377" y="886" on="1"/>
        <pt x="447" y="886" on="1"/>
      </contour>
    </TTGlyph>
    <TTGlyph name="Acircumflex" xMin="10" yMin="0" xMax="613" yMax="924">
      <contour>
        <pt x="518" y="0" on="1"/>
        <pt x="439" y="225" on="1"/>
        <pt x="178" y="225" on="1"/>
        <pt x="99" y="0" on="1"/>
        <pt x="10" y="0" on="1"/>
        <pt x="260" y="691" on="1"/>
        <pt x="363" y="691" on="1"/>
        <pt x="613" y="0" on="1"/>
      </contour>
      <contour>
        <pt x="414" y="298" on="1"/>
        <pt x="327" y="547" on="1"/>
        <pt x="311" y="603" on="1"/>
        <pt x="307" y="603" on="1"/>
        <pt x="291" y="547" on="1"/>
        <pt x="204" y="298" on="1"/>
      </contour>
      <contour>
        <pt x="430" y="742" on="1"/>
        <pt x="377" y="742" on="1"/>
        <pt x="313" y="826" on="1"/>
        <pt x="308" y="826" on="1"/>
        <pt x="245" y="742" on="1"/>
        <pt x="192" y="742" on="1"/>
        <pt x="289" y="924" on="1"/>
        <pt x="333" y="924" on="1"/>
      </contour>
    </TTGlyph>
    <TTGlyph name="Adieresis" xMin="10" yMin="0" xMax="613" yMax="888">
      <contour>
        <pt x="518" y="0" on="1"/>
        <pt x="439" y="225" on="1"/>
        <pt x="178" y="225" on="1"/>
        <pt x="99" y="0" on="1"/>
        <pt x="10" y="0" on="1"/>
        <pt x="260" y="691" on="1"/>
        <pt x="363" y="691" on="1"/>
        <pt x="613" y="0" on="1"/>
      </contour>
      <contour>
        <pt x="414" y="298" on="1"/>
        <pt x="327" y="547" on="1"/>
        <pt x="311" y="603" on="1"/>
        <pt x="307" y="603" on="1"/>
        <pt x="291" y="547" on="1"/>
        <pt x="204" y="298" on="1"/>
      </contour>
      <contour>
        <pt x="244" y="776" on="0"/>
        <pt x="198" y="776" on="0"/>
        <pt x="166" y="809" on="0"/>
        <pt x="166" y="856" on="0"/>
        <pt x="198" y="888" on="0"/>
        <pt x="244" y="888" on="0"/>
        <pt x="276" y="856" on="0"/>
        <pt x="276" y="809" on="0"/>
      </contour>
      <contour>
        <pt x="424" y="776" on="0"/>
        <pt x="378" y="776" on="0"/>
        <pt x="346" y="809" on="0"/>
        <pt x="346" y="856" on="0"/>
        <pt x="378" y="888" on="0"/>
        <pt x="424" y="888" on="0"/>
        <pt x="456" y="856" on="0"/>
        <pt x="456" y="809" on="0"/>
      </contour>
    </TTGlyph>
    <TTGlyph name="Agrave" xMin="10" yMin="0" xMax="613" yMax="926">
      <contour>
        <pt x="518" y="0" on="1"/>
        <pt x="439" y="225" on="1"/>
        <pt x="178" y="225" on="1"/>
        <pt x="99" y="0" on="1"/>
        <pt x="10" y="0" on="1"/>
        <pt x="260" y="691" on="1"/>
        <pt x="363" y="691" on="1"/>
        <pt x="613" y="0" on="1"/>
      </contour>
      <contour>
        <pt x="414" y="298" on="1"/>
        <pt x="327" y="547" on="1"/>
        <pt x="311" y="603" on="1"/>
        <pt x="307" y="603" on="1"/>
        <pt x="291" y="547" on="1"/>
        <pt x="204" y="298" on="1"/>
      </contour>
      <contour>
        <pt x="378" y="742" on="1"/>
        <pt x="314" y="742" on="1"/>
        <pt x="179" y="872" on="1"/>
        <pt x="251" y="926" on="1"/>
      </contour>
    </TTGlyph>
    <TTGlyph name="Amacron" xMin="10" yMin="0" xMax="613" yMax="864">
      <contour>
        <pt x="518" y="0" on="1"/>
        <pt x="439" y="225" on="1"/>
        <pt x="178" y="225" on="1"/>
        <pt x="99" y="0" on="1"/>
        <pt x="10" y="0" on="1"/>
        <pt x="260" y="691" on="1"/>
        <pt x="363" y="691" on="1"/>
        <pt x="613" y="0" on="1"/>
      </contour>
      <contour>
        <pt x="414" y="298" on="1"/>
        <pt x="327" y="547" on="1"/>
        <pt x="311" y="603" on="1"/>
        <pt x="307" y="603" on="1"/>
        <pt x="291" y="547" on="1"/>
        <pt x="204" y="298" on="1"/>
      </contour>
      <contour>
        <pt x="451" y="864" on="1"/>
        <pt x="451" y="797" on="1"/>
        <pt x="171" y="797" on="1"/>
        <pt x="171" y="864" on="1"/>
      </contour>
    </TTGlyph>
    <TTGlyph name="Aogonek" xMin="10" yMin="-230" xMax="643" yMax="691">
      <contour>
        <pt x="518" y="0" on="1"/>
        <pt x="439" y="225" on="1"/>
        <pt x="178" y="225" on="1"/>
        <pt x="99" y="0" on="1"/>
        <pt x="10" y="0" on="1"/>
        <pt x="260" y="691" on="1"/>
        <pt x="363" y="691" on="1"/>
        <pt x="613" y="0" on="1"/>
      </contour>
      <contour>
        <pt x="414" y="298" on="1"/>
        <pt x="327" y="547" on="1"/>
        <pt x="311" y="603" on="1"/>
        <pt x="307" y="603" on="1"/>
        <pt x="291" y="547" on="1"/>
        <pt x="204" y="298" on="1"/>
      </contour>
      <contour>
        <pt x="496" y="-109" on="1"/>
        <pt x="496" y="-137" on="0"/>
        <pt x="527" y="-165" on="0"/>
        <pt x="587" y="-165" on="0"/>
        <pt x="617" y="-143" on="1"/>
        <pt x="643" y="-187" on="1"/>
        <pt x="581" y="-230" on="0"/>
        <pt x="487" y="-230" on="0"/>
        <pt x="436" y="-175" on="0"/>
        <pt x="436" y="-133" on="1"/>
        <pt x="436" y="-59" on="0"/>
        <pt x="518" y="0" on="1"/>
        <pt x="572" y="0" on="1"/>
        <pt x="496" y="-53" on="0"/>
      </contour>
    </TTGlyph>
    <TTGlyph name="Aring" xMin="10" yMin="0" xMax="613" yMax="940">
      <contour>
        <pt x="518" y="0" on="1"/>
        <pt x="439" y="225" on="1"/>
        <pt x="178" y="225" on="1"/>
        <pt x="99" y="0" on="1"/>
        <pt x="10" y="0" on="1"/>
        <pt x="260" y="691" on="1"/>
        <pt x="363" y="691" on="1"/>
        <pt x="613" y="0" on="1"/>
      </contour>
      <contour>
        <pt x="414" y="298" on="1"/>
        <pt x="327" y="547" on="1"/>
        <pt x="311" y="603" on="1"/>
        <pt x="307" y="603" on="1"/>
        <pt x="291" y="547" on="1"/>
        <pt x="204" y="298" on="1"/>
      </contour>
      <contour>
        <pt x="311" y="781" on="1"/>
        <pt x="355" y="781" on="0"/>
        <pt x="355" y="890" on="0"/>
        <pt x="264" y="890" on="0"/>
        <pt x="264" y="840" on="1"/>
        <pt x="264" y="815" on="0"/>
        <pt x="288" y="781" on="0"/>
      </contour>
      <contour>
        <pt x="207" y="792" on="0"/>
        <pt x="207" y="878" on="0"/>
        <pt x="268" y="940" on="0"/>
        <pt x="355" y="940" on="0"/>
        <pt x="416" y="879" on="0"/>
        <pt x="416" y="792" on="0"/>
        <pt x="356" y="731" on="0"/>
        <pt x="268" y="731" on="0"/>
      </contour>
    </TTGlyph>
    <TTGlyph name="Aringacute" xMin="10" yMin="0" xMax="613" yMax="1027">
      <contour>
        <pt x="518" y="0" on="1"/>
        <pt x="439" y="225" on="1"/>
        <pt x="178" y="225" on="1"/>
        <pt x="99" y="0" on="1"/>
        <pt x="10" y="0" on="1"/>
        <pt x="260" y="691" on="1"/>
        <pt x="363" y="691" on="1"/>
        <pt x="613" y="0" on="1"/>
      </contour>
      <contour>
        <pt x="414" y="298" on="1"/>
        <pt x="327" y="547" on="1"/>
        <pt x="311" y="603" on="1"/>
        <pt x="307" y="603" on="1"/>
        <pt x="291" y="547" on="1"/>
        <pt x="204" y="298" on="1"/>
      </contour>
      <contour>
        <pt x="207" y="792" on="0"/>
        <pt x="207" y="878" on="0"/>
        <pt x="268" y="940" on="0"/>
        <pt x="312" y="940" on="1"/>
        <pt x="337" y="940" on="0"/>
        <pt x="357" y="929" on="1"/>
        <pt x="425" y="1027" on="1"/>
        <pt x="497" y="973" on="1"/>
        <pt x="398" y="893" on="1"/>
        <pt x="416" y="865" on="0"/>
        <pt x="416" y="792" on="0"/>
        <pt x="356" y="731" on="0"/>
        <pt x="268" y="731" on="0"/>
      </contour>
      <contour>
        <pt x="311" y="781" on="1"/>
        <pt x="355" y="781" on="0"/>
        <pt x="355" y="890" on="0"/>
        <pt x="264" y="890" on="0"/>
        <pt x="264" y="840" on="1"/>
        <pt x="264" y="815" on="0"/>
        <pt x="288" y="781" on="0"/>
      </contour>
    </TTGlyph>
    <TTGlyph name="Atilde" xMin="10" yMin="0" xMax="613" yMax="890">
      <contour>
        <pt x="518" y="0" on="1"/>
        <pt x="439" y="225" on="1"/>
        <pt x="178" y="225" on="1"/>
        <pt x="99" y="0" on="1"/>
        <pt x="10" y="0" on="1"/>
        <pt x="260" y="691" on="1"/>
        <pt x="363" y="691" on="1"/>
        <pt x="613" y="0" on="1"/>
      </contour>
      <contour>
        <pt x="414" y="298" on="1"/>
        <pt x="327" y="547" on="1"/>
        <pt x="311" y="603" on="1"/>
        <pt x="307" y="603" on="1"/>
        <pt x="291" y="547" on="1"/>
        <pt x="204" y="298" on="1"/>
      </contour>
      <contour>
        <pt x="377" y="780" on="1"/>
        <pt x="352" y="780" on="0"/>
        <pt x="256" y="812" on="0"/>
        <pt x="237" y="812" on="1"/>
        <pt x="203" y="812" on="0"/>
        <pt x="188" y="775" on="1"/>
        <pt x="149" y="792" on="1"/>
        <pt x="180" y="885" on="0"/>
        <pt x="246" y="885" on="1"/>
        <pt x="271" y="885" on="0"/>
        <pt x="367" y="853" on="0"/>
        <pt x="386" y="853" on="1"/>
        <pt x="420" y="853" on="0"/>
        <pt x="435" y="890" on="1"/>
        <pt x="474" y="873" on="1"/>
        <pt x="443" y="780" on="0"/>
      </contour>
    </TTGlyph>
    <TTGlyph name="B" xMin="75" yMin="0" xMax="523" yMax="691">
      <contour>
        <pt x="75" y="0" on="1"/>
        <pt x="75" y="691" on="1"/>
        <pt x="249" y="691" on="1"/>
        <pt x="360" y="691" on="0"/>
        <pt x="492" y="599" on="0"/>
        <pt x="492" y="510" on="1"/>
        <pt x="492" y="409" on="0"/>
        <pt x="392" y="361" on="1"/>
        <pt x="453" y="341" on="0"/>
        <pt x="523" y="258" on="0"/>
        <pt x="523" y="199" on="1"/>
        <pt x="523" y="105" on="0"/>
        <pt x="384" y="0" on="0"/>
        <pt x="270" y="0" on="1"/>
      </contour>
      <contour>
        <pt x="269" y="323" on="1"/>
        <pt x="161" y="323" on="1"/>
        <pt x="161" y="76" on="1"/>
        <pt x="269" y="76" on="1"/>
        <pt x="431" y="76" on="0"/>
        <pt x="431" y="323" on="0"/>
      </contour>
      <contour>
        <pt x="161" y="389" on="1"/>
        <pt x="248" y="389" on="1"/>
        <pt x="323" y="389" on="0"/>
        <pt x="400" y="454" on="0"/>
        <pt x="400" y="564" on="0"/>
        <pt x="325" y="615" on="0"/>
        <pt x="248" y="615" on="1"/>
        <pt x="161" y="615" on="1"/>
      </contour>
    </TTGlyph>
    <TTGlyph name="C" xMin="50" yMin="-12" xMax="587" yMax="703">
      <contour>
        <pt x="149" y="321" on="1"/>
        <pt x="149" y="206" on="0"/>
        <pt x="270" y="62" on="0"/>
        <pt x="477" y="62" on="0"/>
        <pt x="576" y="113" on="1"/>
        <pt x="587" y="37" on="1"/>
        <pt x="475" y="-12" on="0"/>
        <pt x="259" y="-12" on="0"/>
        <pt x="116" y="85" on="0"/>
        <pt x="50" y="233" on="0"/>
        <pt x="50" y="321" on="1"/>
        <pt x="50" y="489" on="0"/>
        <pt x="246" y="703" on="0"/>
        <pt x="409" y="703" on="1"/>
        <pt x="484" y="703" on="0"/>
        <pt x="571" y="676" on="1"/>
        <pt x="547" y="606" on="1"/>
        <pt x="478" y="627" on="0"/>
        <pt x="409" y="627" on="1"/>
        <pt x="287" y="627" on="0"/>
        <pt x="149" y="463" on="0"/>
      </contour>
    </TTGlyph>
    <TTGlyph name="Cacute" xMin="50" yMin="-12" xMax="587" yMax="926">
      <contour>
        <pt x="149" y="321" on="1"/>
        <pt x="149" y="206" on="0"/>
        <pt x="270" y="62" on="0"/>
        <pt x="477" y="62" on="0"/>
        <pt x="576" y="113" on="1"/>
        <pt x="587" y="37" on="1"/>
        <pt x="475" y="-12" on="0"/>
        <pt x="259" y="-12" on="0"/>
        <pt x="116" y="85" on="0"/>
        <pt x="50" y="233" on="0"/>
        <pt x="50" y="321" on="1"/>
        <pt x="50" y="489" on="0"/>
        <pt x="246" y="703" on="0"/>
        <pt x="409" y="703" on="1"/>
        <pt x="484" y="703" on="0"/>
        <pt x="571" y="676" on="1"/>
        <pt x="547" y="606" on="1"/>
        <pt x="478" y="627" on="0"/>
        <pt x="409" y="627" on="1"/>
        <pt x="287" y="627" on="0"/>
        <pt x="149" y="463" on="0"/>
      </contour>
      <contour>
        <pt x="353" y="742" on="1"/>
        <pt x="289" y="742" on="1"/>
        <pt x="416" y="926" on="1"/>
        <pt x="488" y="872" on="1"/>
      </contour>
    </TTGlyph>
    <TTGlyph name="Ccaron" xMin="50" yMin="-12" xMax="587" yMax="920">
      <contour>
        <pt x="149" y="321" on="1"/>
        <pt x="149" y="206" on="0"/>
        <pt x="270" y="62" on="0"/>
        <pt x="477" y="62" on="0"/>
        <pt x="576" y="113" on="1"/>
        <pt x="587" y="37" on="1"/>
        <pt x="475" y="-12" on="0"/>
        <pt x="259" y="-12" on="0"/>
        <pt x="116" y="85" on="0"/>
        <pt x="50" y="233" on="0"/>
        <pt x="50" y="321" on="1"/>
        <pt x="50" y="489" on="0"/>
        <pt x="246" y="703" on="0"/>
        <pt x="409" y="703" on="1"/>
        <pt x="484" y="703" on="0"/>
        <pt x="571" y="676" on="1"/>
        <pt x="547" y="606" on="1"/>
        <pt x="478" y="627" on="0"/>
        <pt x="409" y="627" on="1"/>
        <pt x="287" y="627" on="0"/>
        <pt x="149" y="463" on="0"/>
      </contour>
      <contour>
        <pt x="389" y="836" on="1"/>
        <pt x="453" y="920" on="1"/>
        <pt x="506" y="920" on="1"/>
        <pt x="409" y="738" on="1"/>
        <pt x="365" y="738" on="1"/>
        <pt x="268" y="920" on="1"/>
        <pt x="321" y="920" on="1"/>
        <pt x="384" y="836" on="1"/>
      </contour>
    </TTGlyph>
    <TTGlyph name="Ccedilla" xMin="50" yMin="-242" xMax="587" yMax="703">
      <contour>
        <pt x="149" y="321" on="1"/>
        <pt x="149" y="463" on="0"/>
        <pt x="287" y="627" on="0"/>
        <pt x="409" y="627" on="1"/>
        <pt x="478" y="627" on="0"/>
        <pt x="547" y="606" on="1"/>
        <pt x="571" y="676" on="1"/>
        <pt x="484" y="703" on="0"/>
        <pt x="409" y="703" on="1"/>
        <pt x="246" y="703" on="0"/>
        <pt x="50" y="489" on="0"/>
        <pt x="50" y="321" on="1"/>
        <pt x="50" y="233" on="0"/>
        <pt x="116" y="85" on="0"/>
        <pt x="259" y="-12" on="0"/>
        <pt x="475" y="-12" on="0"/>
        <pt x="587" y="37" on="1"/>
        <pt x="576" y="113" on="1"/>
        <pt x="477" y="62" on="0"/>
        <pt x="270" y="62" on="0"/>
        <pt x="149" y="206" on="0"/>
      </contour>
      <contour>
        <pt x="455" y="-143" on="1"/>
        <pt x="455" y="-188" on="0"/>
        <pt x="391" y="-242" on="0"/>
        <pt x="298" y="-242" on="0"/>
        <pt x="254" y="-215" on="1"/>
        <pt x="270" y="-175" on="1"/>
        <pt x="300" y="-195" on="0"/>
        <pt x="357" y="-195" on="0"/>
        <pt x="392" y="-162" on="0"/>
        <pt x="392" y="-119" on="0"/>
        <pt x="354" y="-86" on="0"/>
        <pt x="318" y="-83" on="1"/>
        <pt x="309" y="-70" on="1"/>
        <pt x="341" y="8" on="1"/>
        <pt x="376" y="8" on="1"/>
        <pt x="365" y="-47" on="1"/>
        <pt x="455" y="-77" on="0"/>
      </contour>
    </TTGlyph>
    <TTGlyph name="Ccircumflex" xMin="50" yMin="-12" xMax="587" yMax="924">
      <contour>
        <pt x="149" y="321" on="1"/>
        <pt x="149" y="206" on="0"/>
        <pt x="270" y="62" on="0"/>
        <pt x="477" y="62" on="0"/>
        <pt x="576" y="113" on="1"/>
        <pt x="587" y="37" on="1"/>
        <pt x="475" y="-12" on="0"/>
        <pt x="259" y="-12" on="0"/>
        <pt x="116" y="85" on="0"/>
        <pt x="50" y="233" on="0"/>
        <pt x="50" y="321" on="1"/>
        <pt x="50" y="489" on="0"/>
        <pt x="246" y="703" on="0"/>
        <pt x="409" y="703" on="1"/>
        <pt x="484" y="703" on="0"/>
        <pt x="571" y="676" on="1"/>
        <pt x="547" y="606" on="1"/>
        <pt x="478" y="627" on="0"/>
        <pt x="409" y="627" on="1"/>
        <pt x="287" y="627" on="0"/>
        <pt x="149" y="463" on="0"/>
      </contour>
      <contour>
        <pt x="507" y="742" on="1"/>
        <pt x="454" y="742" on="1"/>
        <pt x="390" y="826" on="1"/>
        <pt x="385" y="826" on="1"/>
        <pt x="322" y="742" on="1"/>
        <pt x="269" y="742" on="1"/>
        <pt x="366" y="924" on="1"/>
        <pt x="410" y="924" on="1"/>
      </contour>
    </TTGlyph>
    <TTGlyph name="Cdotaccent" xMin="50" yMin="-12" xMax="587" yMax="888">
      <contour>
        <pt x="149" y="321" on="1"/>
        <pt x="149" y="206" on="0"/>
        <pt x="270" y="62" on="0"/>
        <pt x="477" y="62" on="0"/>
        <pt x="576" y="113" on="1"/>
        <pt x="587" y="37" on="1"/>
        <pt x="475" y="-12" on="0"/>
        <pt x="259" y="-12" on="0"/>
        <pt x="116" y="85" on="0"/>
        <pt x="50" y="233" on="0"/>
        <pt x="50" y="321" on="1"/>
        <pt x="50" y="489" on="0"/>
        <pt x="246" y="703" on="0"/>
        <pt x="409" y="703" on="1"/>
        <pt x="484" y="703" on="0"/>
        <pt x="571" y="676" on="1"/>
        <pt x="547" y="606" on="1"/>
        <pt x="478" y="627" on="0"/>
        <pt x="409" y="627" on="1"/>
        <pt x="287" y="627" on="0"/>
        <pt x="149" y="463" on="0"/>
      </contour>
      <contour>
        <pt x="410" y="776" on="0"/>
        <pt x="364" y="776" on="0"/>
        <pt x="332" y="809" on="0"/>
        <pt x="332" y="856" on="0"/>
        <pt x="364" y="888" on="0"/>
        <pt x="410" y="888" on="0"/>
        <pt x="442" y="856" on="0"/>
        <pt x="442" y="809" on="0"/>
      </contour>
    </TTGlyph>
    <TTGlyph name="D" xMin="75" yMin="0" xMax="643" yMax="691">
      <contour>
        <pt x="75" y="0" on="1"/>
        <pt x="75" y="691" on="1"/>
        <pt x="335" y="691" on="1"/>
        <pt x="410" y="691" on="0"/>
        <pt x="530" y="637" on="0"/>
        <pt x="567" y="592" on="1"/>
        <pt x="643" y="498" on="0"/>
        <pt x="643" y="370" on="1"/>
        <pt x="643" y="208" on="0"/>
        <pt x="447" y="0" on="0"/>
        <pt x="284" y="0" on="1"/>
      </contour>
      <contour>
        <pt x="324" y="615" on="1"/>
        <pt x="161" y="615" on="1"/>
        <pt x="161" y="76" on="1"/>
        <pt x="284" y="76" on="1"/>
        <pt x="408" y="76" on="0"/>
        <pt x="544" y="232" on="0"/>
        <pt x="544" y="370" on="1"/>
        <pt x="544" y="473" on="0"/>
        <pt x="429" y="615" on="0"/>
      </contour>
    </TTGlyph>
    <TTGlyph name="Dcaron" xMin="75" yMin="0" xMax="643" yMax="920">
      <contour>
        <pt x="75" y="0" on="1"/>
        <pt x="75" y="691" on="1"/>
        <pt x="335" y="691" on="1"/>
        <pt x="410" y="691" on="0"/>
        <pt x="530" y="637" on="0"/>
        <pt x="567" y="592" on="1"/>
        <pt x="643" y="498" on="0"/>
        <pt x="643" y="370" on="1"/>
        <pt x="643" y="208" on="0"/>
        <pt x="447" y="0" on="0"/>
        <pt x="284" y="0" on="1"/>
      </contour>
      <contour>
        <pt x="324" y="615" on="1"/>
        <pt x="161" y="615" on="1"/>
        <pt x="161" y="76" on="1"/>
        <pt x="284" y="76" on="1"/>
        <pt x="408" y="76" on="0"/>
        <pt x="544" y="232" on="0"/>
        <pt x="544" y="370" on="1"/>
        <pt x="544" y="473" on="0"/>
        <pt x="429" y="615" on="0"/>
      </contour>
      <contour>
        <pt x="318" y="836" on="1"/>
        <pt x="382" y="920" on="1"/>
        <pt x="435" y="920" on="1"/>
        <pt x="338" y="738" on="1"/>
        <pt x="294" y="738" on="1"/>
        <pt x="197" y="920" on="1"/>
        <pt x="250" y="920" on="1"/>
        <pt x="313" y="836" on="1"/>
      </contour>
    </TTGlyph>
    <TTGlyph name="Dcroat" xMin="0" yMin="0" xMax="643" yMax="691">
      <contour>
        <pt x="75" y="0" on="1"/>
        <pt x="75" y="691" on="1"/>
        <pt x="335" y="691" on="1"/>
        <pt x="410" y="691" on="0"/>
        <pt x="530" y="637" on="0"/>
        <pt x="567" y="592" on="1"/>
        <pt x="643" y="498" on="0"/>
        <pt x="643" y="370" on="1"/>
        <pt x="643" y="208" on="0"/>
        <pt x="447" y="0" on="0"/>
        <pt x="284" y="0" on="1"/>
      </contour>
      <contour>
        <pt x="324" y="615" on="1"/>
        <pt x="161" y="615" on="1"/>
        <pt x="161" y="76" on="1"/>
        <pt x="284" y="76" on="1"/>
        <pt x="408" y="76" on="0"/>
        <pt x="544" y="232" on="0"/>
        <pt x="544" y="370" on="1"/>
        <pt x="544" y="473" on="0"/>
        <pt x="429" y="615" on="0"/>
      </contour>
      <contour>
        <pt x="382" y="315" on="1"/>
        <pt x="0" y="315" on="1"/>
        <pt x="0" y="369" on="1"/>
        <pt x="382" y="369" on="1"/>
      </contour>
    </TTGlyph>
    <TTGlyph name="Delta" xMin="0" yMin="0" xMax="615" yMax="691">
      <contour>
        <pt x="321" y="691" on="1"/>
        <pt x="332" y="691" on="1"/>
        <pt x="615" y="0" on="1"/>
        <pt x="0" y="0" on="1"/>
      </contour>
      <contour>
        <pt x="488" y="50" on="1"/>
        <pt x="290" y="528" on="1"/>
        <pt x="67" y="50" on="1"/>
      </contour>
    </TTGlyph>
    <TTGlyph name="E" xMin="75" yMin="0" xMax="500" yMax="691">
      <contour>
        <pt x="75" y="0" on="1"/>
        <pt x="75" y="691" on="1"/>
        <pt x="481" y="691" on="1"/>
        <pt x="462" y="615" on="1"/>
        <pt x="161" y="615" on="1"/>
        <pt x="161" y="387" on="1"/>
        <pt x="445" y="387" on="1"/>
        <pt x="445" y="314" on="1"/>
        <pt x="161" y="314" on="1"/>
        <pt x="161" y="76" on="1"/>
        <pt x="500" y="76" on="1"/>
        <pt x="500" y="0" on="1"/>
      </contour>
    </TTGlyph>
    <TTGlyph name="Eacute" xMin="75" yMin="0" xMax="500" yMax="926">
      <contour>
        <pt x="75" y="0" on="1"/>
        <pt x="75" y="691" on="1"/>
        <pt x="481" y="691" on="1"/>
        <pt x="462" y="615" on="1"/>
        <pt x="161" y="615" on="1"/>
        <pt x="161" y="387" on="1"/>
        <pt x="445" y="387" on="1"/>
        <pt x="445" y="314" on="1"/>
        <pt x="161" y="314" on="1"/>
        <pt x="161" y="76" on="1"/>
        <pt x="500" y="76" on="1"/>
        <pt x="500" y="0" on="1"/>
      </contour>
      <contour>
        <pt x="262" y="742" on="1"/>
        <pt x="198" y="742" on="1"/>
        <pt x="325" y="926" on="1"/>
        <pt x="397" y="872" on="1"/>
      </contour>
    </TTGlyph>
    <TTGlyph name="Ebreve" xMin="75" yMin="0" xMax="500" yMax="886">
      <contour>
        <pt x="75" y="0" on="1"/>
        <pt x="75" y="691" on="1"/>
        <pt x="481" y="691" on="1"/>
        <pt x="462" y="615" on="1"/>
        <pt x="161" y="615" on="1"/>
        <pt x="161" y="387" on="1"/>
        <pt x="445" y="387" on="1"/>
        <pt x="445" y="314" on="1"/>
        <pt x="161" y="314" on="1"/>
        <pt x="161" y="76" on="1"/>
        <pt x="500" y="76" on="1"/>
        <pt x="500" y="0" on="1"/>
      </contour>
      <contour>
        <pt x="410" y="834" on="0"/>
        <pt x="333" y="759" on="0"/>
        <pt x="224" y="759" on="0"/>
        <pt x="146" y="834" on="0"/>
        <pt x="142" y="886" on="1"/>
        <pt x="213" y="886" on="1"/>
        <pt x="223" y="825" on="0"/>
        <pt x="333" y="825" on="0"/>
        <pt x="343" y="886" on="1"/>
        <pt x="413" y="886" on="1"/>
      </contour>
    </TTGlyph>
    <TTGlyph name="Ecaron" xMin="75" yMin="0" xMax="500" yMax="920">
      <contour>
        <pt x="75" y="0" on="1"/>
        <pt x="75" y="691" on="1"/>
        <pt x="481" y="691" on="1"/>
        <pt x="462" y="615" on="1"/>
        <pt x="161" y="615" on="1"/>
        <pt x="161" y="387" on="1"/>
        <pt x="445" y="387" on="1"/>
        <pt x="445" y="314" on="1"/>
        <pt x="161" y="314" on="1"/>
        <pt x="161" y="76" on="1"/>
        <pt x="500" y="76" on="1"/>
        <pt x="500" y="0" on="1"/>
      </contour>
      <contour>
        <pt x="279" y="836" on="1"/>
        <pt x="343" y="920" on="1"/>
        <pt x="396" y="920" on="1"/>
        <pt x="299" y="738" on="1"/>
        <pt x="255" y="738" on="1"/>
        <pt x="158" y="920" on="1"/>
        <pt x="211" y="920" on="1"/>
        <pt x="274" y="836" on="1"/>
      </contour>
    </TTGlyph>
    <TTGlyph name="Ecircumflex" xMin="75" yMin="0" xMax="500" yMax="924">
      <contour>
        <pt x="75" y="0" on="1"/>
        <pt x="75" y="691" on="1"/>
        <pt x="481" y="691" on="1"/>
        <pt x="462" y="615" on="1"/>
        <pt x="161" y="615" on="1"/>
        <pt x="161" y="387" on="1"/>
        <pt x="445" y="387" on="1"/>
        <pt x="445" y="314" on="1"/>
        <pt x="161" y="314" on="1"/>
        <pt x="161" y="76" on="1"/>
        <pt x="500" y="76" on="1"/>
        <pt x="500" y="0" on="1"/>
      </contour>
      <contour>
        <pt x="406" y="742" on="1"/>
        <pt x="353" y="742" on="1"/>
        <pt x="289" y="826" on="1"/>
        <pt x="284" y="826" on="1"/>
        <pt x="221" y="742" on="1"/>
        <pt x="168" y="742" on="1"/>
        <pt x="265" y="924" on="1"/>
        <pt x="309" y="924" on="1"/>
      </contour>
    </TTGlyph>
    <TTGlyph name="Edieresis" xMin="75" yMin="0" xMax="500" yMax="888">
      <contour>
        <pt x="75" y="0" on="1"/>
        <pt x="75" y="691" on="1"/>
        <pt x="481" y="691" on="1"/>
        <pt x="462" y="615" on="1"/>
        <pt x="161" y="615" on="1"/>
        <pt x="161" y="387" on="1"/>
        <pt x="445" y="387" on="1"/>
        <pt x="445" y="314" on="1"/>
        <pt x="161" y="314" on="1"/>
        <pt x="161" y="76" on="1"/>
        <pt x="500" y="76" on="1"/>
        <pt x="500" y="0" on="1"/>
      </contour>
      <contour>
        <pt x="220" y="776" on="0"/>
        <pt x="174" y="776" on="0"/>
        <pt x="142" y="809" on="0"/>
        <pt x="142" y="856" on="0"/>
        <pt x="174" y="888" on="0"/>
        <pt x="220" y="888" on="0"/>
        <pt x="252" y="856" on="0"/>
        <pt x="252" y="809" on="0"/>
      </contour>
      <contour>
        <pt x="400" y="776" on="0"/>
        <pt x="354" y="776" on="0"/>
        <pt x="322" y="809" on="0"/>
        <pt x="322" y="856" on="0"/>
        <pt x="354" y="888" on="0"/>
        <pt x="400" y="888" on="0"/>
        <pt x="432" y="856" on="0"/>
        <pt x="432" y="809" on="0"/>
      </contour>
    </TTGlyph>
    <TTGlyph name="Edotaccent" xMin="75" yMin="0" xMax="500" yMax="888">
      <contour>
        <pt x="75" y="0" on="1"/>
        <pt x="75" y="691" on="1"/>
        <pt x="481" y="691" on="1"/>
        <pt x="462" y="615" on="1"/>
        <pt x="161" y="615" on="1"/>
        <pt x="161" y="387" on="1"/>
        <pt x="445" y="387" on="1"/>
        <pt x="445" y="314" on="1"/>
        <pt x="161" y="314" on="1"/>
        <pt x="161" y="76" on="1"/>
        <pt x="500" y="76" on="1"/>
        <pt x="500" y="0" on="1"/>
      </contour>
      <contour>
        <pt x="300" y="776" on="0"/>
        <pt x="254" y="776" on="0"/>
        <pt x="222" y="809" on="0"/>
        <pt x="222" y="856" on="0"/>
        <pt x="254" y="888" on="0"/>
        <pt x="300" y="888" on="0"/>
        <pt x="332" y="856" on="0"/>
        <pt x="332" y="809" on="0"/>
      </contour>
    </TTGlyph>
    <TTGlyph name="Egrave" xMin="75" yMin="0" xMax="500" yMax="926">
      <contour>
        <pt x="75" y="0" on="1"/>
        <pt x="75" y="691" on="1"/>
        <pt x="481" y="691" on="1"/>
        <pt x="462" y="615" on="1"/>
        <pt x="161" y="615" on="1"/>
        <pt x="161" y="387" on="1"/>
        <pt x="445" y="387" on="1"/>
        <pt x="445" y="314" on="1"/>
        <pt x="161" y="314" on="1"/>
        <pt x="161" y="76" on="1"/>
        <pt x="500" y="76" on="1"/>
        <pt x="500" y="0" on="1"/>
      </contour>
      <contour>
        <pt x="367" y="742" on="1"/>
        <pt x="303" y="742" on="1"/>
        <pt x="168" y="872" on="1"/>
        <pt x="240" y="926" on="1"/>
      </contour>
    </TTGlyph>
    <TTGlyph name="Emacron" xMin="75" yMin="0" xMax="500" yMax="864">
      <contour>
        <pt x="75" y="0" on="1"/>
        <pt x="75" y="691" on="1"/>
        <pt x="481" y="691" on="1"/>
        <pt x="462" y="615" on="1"/>
        <pt x="161" y="615" on="1"/>
        <pt x="161" y="387" on="1"/>
        <pt x="445" y="387" on="1"/>
        <pt x="445" y="314" on="1"/>
        <pt x="161" y="314" on="1"/>
        <pt x="161" y="76" on="1"/>
        <pt x="500" y="76" on="1"/>
        <pt x="500" y="0" on="1"/>
      </contour>
      <contour>
        <pt x="417" y="864" on="1"/>
        <pt x="417" y="797" on="1"/>
        <pt x="137" y="797" on="1"/>
        <pt x="137" y="864" on="1"/>
      </contour>
    </TTGlyph>
    <TTGlyph name="Eng" xMin="75" yMin="-201" xMax="656" yMax="691">
      <contour>
        <pt x="570" y="155" on="1"/>
        <pt x="570" y="691" on="1"/>
        <pt x="656" y="691" on="1"/>
        <pt x="656" y="-1" on="1"/>
        <pt x="656" y="-100" on="0"/>
        <pt x="581" y="-201" on="0"/>
        <pt x="487" y="-201" on="1"/>
        <pt x="448" y="-201" on="0"/>
        <pt x="417" y="-190" on="1"/>
        <pt x="434" y="-121" on="1"/>
        <pt x="455" y="-129" on="0"/>
        <pt x="534" y="-129" on="0"/>
        <pt x="569" y="-63" on="0"/>
        <pt x="570" y="4" on="1"/>
        <pt x="166" y="537" on="1"/>
        <pt x="161" y="537" on="1"/>
        <pt x="161" y="0" on="1"/>
        <pt x="75" y="0" on="1"/>
        <pt x="75" y="691" on="1"/>
        <pt x="158" y="691" on="1"/>
        <pt x="565" y="155" on="1"/>
      </contour>
    </TTGlyph>
    <TTGlyph name="Eogonek" xMin="75" yMin="-230" xMax="571" yMax="691">
      <contour>
        <pt x="75" y="0" on="1"/>
        <pt x="75" y="691" on="1"/>
        <pt x="481" y="691" on="1"/>
        <pt x="462" y="615" on="1"/>
        <pt x="161" y="615" on="1"/>
        <pt x="161" y="387" on="1"/>
        <pt x="445" y="387" on="1"/>
        <pt x="445" y="314" on="1"/>
        <pt x="161" y="314" on="1"/>
        <pt x="161" y="76" on="1"/>
        <pt x="500" y="76" on="1"/>
        <pt x="500" y="0" on="1"/>
      </contour>
      <contour>
        <pt x="424" y="-109" on="1"/>
        <pt x="424" y="-137" on="0"/>
        <pt x="455" y="-165" on="0"/>
        <pt x="515" y="-165" on="0"/>
        <pt x="545" y="-143" on="1"/>
        <pt x="571" y="-187" on="1"/>
        <pt x="509" y="-230" on="0"/>
        <pt x="415" y="-230" on="0"/>
        <pt x="364" y="-175" on="0"/>
        <pt x="364" y="-133" on="1"/>
        <pt x="364" y="-59" on="0"/>
        <pt x="446" y="0" on="1"/>
        <pt x="500" y="0" on="1"/>
        <pt x="424" y="-53" on="0"/>
      </contour>
    </TTGlyph>
    <TTGlyph name="Eth" xMin="0" yMin="0" xMax="643" yMax="691">
      <contour>
        <pt x="75" y="0" on="1"/>
        <pt x="75" y="691" on="1"/>
        <pt x="335" y="691" on="1"/>
        <pt x="410" y="691" on="0"/>
        <pt x="530" y="637" on="0"/>
        <pt x="567" y="592" on="1"/>
        <pt x="643" y="498" on="0"/>
        <pt x="643" y="370" on="1"/>
        <pt x="643" y="208" on="0"/>
        <pt x="447" y="0" on="0"/>
        <pt x="284" y="0" on="1"/>
      </contour>
      <contour>
        <pt x="324" y="615" on="1"/>
        <pt x="161" y="615" on="1"/>
        <pt x="161" y="76" on="1"/>
        <pt x="284" y="76" on="1"/>
        <pt x="408" y="76" on="0"/>
        <pt x="544" y="232" on="0"/>
        <pt x="544" y="370" on="1"/>
        <pt x="544" y="473" on="0"/>
        <pt x="429" y="615" on="0"/>
      </contour>
      <contour>
        <pt x="382" y="315" on="1"/>
        <pt x="0" y="315" on="1"/>
        <pt x="0" y="369" on="1"/>
        <pt x="382" y="369" on="1"/>
      </contour>
    </TTGlyph>
    <TTGlyph name="Euro" xMin="10" yMin="-12" xMax="508" yMax="673">
      <contour>
        <pt x="172" y="336" on="1"/>
        <pt x="172" y="271" on="0"/>
        <pt x="176" y="244" on="1"/>
        <pt x="387" y="244" on="1"/>
        <pt x="377" y="194" on="1"/>
        <pt x="188" y="194" on="1"/>
        <pt x="207" y="131" on="0"/>
        <pt x="286" y="59" on="0"/>
        <pt x="340" y="59" on="1"/>
        <pt x="424" y="59" on="0"/>
        <pt x="497" y="108" on="1"/>
        <pt x="508" y="35" on="1"/>
        <pt x="415" y="-12" on="0"/>
        <pt x="237" y="-12" on="0"/>
        <pt x="116" y="102" on="0"/>
        <pt x="91" y="194" on="1"/>
        <pt x="10" y="194" on="1"/>
        <pt x="20" y="244" on="1"/>
        <pt x="81" y="244" on="1"/>
        <pt x="77" y="272" on="0"/>
        <pt x="77" y="326" on="0"/>
        <pt x="78" y="336" on="1"/>
        <pt x="10" y="336" on="1"/>
        <pt x="20" y="386" on="1"/>
        <pt x="82" y="386" on="1"/>
        <pt x="101" y="515" on="0"/>
        <pt x="253" y="673" on="0"/>
        <pt x="364" y="673" on="1"/>
        <pt x="426" y="673" on="0"/>
        <pt x="493" y="646" on="1"/>
        <pt x="472" y="579" on="1"/>
        <pt x="419" y="600" on="0"/>
        <pt x="368" y="600" on="1"/>
        <pt x="289" y="600" on="0"/>
        <pt x="191" y="488" on="0"/>
        <pt x="177" y="386" on="1"/>
        <pt x="387" y="386" on="1"/>
        <pt x="377" y="336" on="1"/>
      </contour>
    </TTGlyph>
    <TTGlyph name="F" xMin="75" yMin="0" xMax="464" yMax="691">
      <contour>
        <pt x="75" y="0" on="1"/>
        <pt x="75" y="691" on="1"/>
        <pt x="464" y="691" on="1"/>
        <pt x="445" y="615" on="1"/>
        <pt x="161" y="615" on="1"/>
        <pt x="161" y="387" on="1"/>
        <pt x="428" y="387" on="1"/>
        <pt x="428" y="314" on="1"/>
        <pt x="161" y="314" on="1"/>
        <pt x="161" y="0" on="1"/>
      </contour>
    </TTGlyph>
    <TTGlyph name="G" xMin="50" yMin="-12" xMax="625" yMax="703">
      <contour>
        <pt x="409" y="627" on="1"/>
        <pt x="287" y="627" on="0"/>
        <pt x="149" y="463" on="0"/>
        <pt x="149" y="321" on="1"/>
        <pt x="149" y="206" on="0"/>
        <pt x="270" y="62" on="0"/>
        <pt x="459" y="62" on="0"/>
        <pt x="540" y="98" on="1"/>
        <pt x="540" y="276" on="1"/>
        <pt x="392" y="276" on="1"/>
        <pt x="392" y="349" on="1"/>
        <pt x="625" y="349" on="1"/>
        <pt x="625" y="55" on="1"/>
        <pt x="494" y="-12" on="0"/>
        <pt x="358" y="-12" on="1"/>
        <pt x="259" y="-12" on="0"/>
        <pt x="116" y="85" on="0"/>
        <pt x="50" y="233" on="0"/>
        <pt x="50" y="321" on="1"/>
        <pt x="50" y="489" on="0"/>
        <pt x="246" y="703" on="0"/>
        <pt x="409" y="703" on="1"/>
        <pt x="489" y="703" on="0"/>
        <pt x="587" y="671" on="1"/>
        <pt x="562" y="601" on="1"/>
        <pt x="481" y="627" on="0"/>
      </contour>
    </TTGlyph>
    <TTGlyph name="Gbreve" xMin="50" yMin="-12" xMax="625" yMax="886">
      <contour>
        <pt x="409" y="627" on="1"/>
        <pt x="287" y="627" on="0"/>
        <pt x="149" y="463" on="0"/>
        <pt x="149" y="321" on="1"/>
        <pt x="149" y="206" on="0"/>
        <pt x="270" y="62" on="0"/>
        <pt x="459" y="62" on="0"/>
        <pt x="540" y="98" on="1"/>
        <pt x="540" y="276" on="1"/>
        <pt x="392" y="276" on="1"/>
        <pt x="392" y="349" on="1"/>
        <pt x="625" y="349" on="1"/>
        <pt x="625" y="55" on="1"/>
        <pt x="494" y="-12" on="0"/>
        <pt x="358" y="-12" on="1"/>
        <pt x="259" y="-12" on="0"/>
        <pt x="116" y="85" on="0"/>
        <pt x="50" y="233" on="0"/>
        <pt x="50" y="321" on="1"/>
        <pt x="50" y="489" on="0"/>
        <pt x="246" y="703" on="0"/>
        <pt x="409" y="703" on="1"/>
        <pt x="489" y="703" on="0"/>
        <pt x="587" y="671" on="1"/>
        <pt x="562" y="601" on="1"/>
        <pt x="481" y="627" on="0"/>
      </contour>
      <contour>
        <pt x="524" y="834" on="0"/>
        <pt x="447" y="759" on="0"/>
        <pt x="338" y="759" on="0"/>
        <pt x="260" y="834" on="0"/>
        <pt x="256" y="886" on="1"/>
        <pt x="327" y="886" on="1"/>
        <pt x="337" y="825" on="0"/>
        <pt x="447" y="825" on="0"/>
        <pt x="457" y="886" on="1"/>
        <pt x="527" y="886" on="1"/>
      </contour>
    </TTGlyph>
    <TTGlyph name="Gcircumflex" xMin="50" yMin="-12" xMax="625" yMax="924">
      <contour>
        <pt x="409" y="627" on="1"/>
        <pt x="287" y="627" on="0"/>
        <pt x="149" y="463" on="0"/>
        <pt x="149" y="321" on="1"/>
        <pt x="149" y="206" on="0"/>
        <pt x="270" y="62" on="0"/>
        <pt x="459" y="62" on="0"/>
        <pt x="540" y="98" on="1"/>
        <pt x="540" y="276" on="1"/>
        <pt x="392" y="276" on="1"/>
        <pt x="392" y="349" on="1"/>
        <pt x="625" y="349" on="1"/>
        <pt x="625" y="55" on="1"/>
        <pt x="494" y="-12" on="0"/>
        <pt x="358" y="-12" on="1"/>
        <pt x="259" y="-12" on="0"/>
        <pt x="116" y="85" on="0"/>
        <pt x="50" y="233" on="0"/>
        <pt x="50" y="321" on="1"/>
        <pt x="50" y="489" on="0"/>
        <pt x="246" y="703" on="0"/>
        <pt x="409" y="703" on="1"/>
        <pt x="489" y="703" on="0"/>
        <pt x="587" y="671" on="1"/>
        <pt x="562" y="601" on="1"/>
        <pt x="481" y="627" on="0"/>
      </contour>
      <contour>
        <pt x="511" y="742" on="1"/>
        <pt x="458" y="742" on="1"/>
        <pt x="394" y="826" on="1"/>
        <pt x="389" y="826" on="1"/>
        <pt x="326" y="742" on="1"/>
        <pt x="273" y="742" on="1"/>
        <pt x="370" y="924" on="1"/>
        <pt x="414" y="924" on="1"/>
      </contour>
    </TTGlyph>
    <TTGlyph name="Gdotaccent" xMin="50" yMin="-12" xMax="625" yMax="888">
      <contour>
        <pt x="409" y="627" on="1"/>
        <pt x="287" y="627" on="0"/>
        <pt x="149" y="463" on="0"/>
        <pt x="149" y="321" on="1"/>
        <pt x="149" y="206" on="0"/>
        <pt x="270" y="62" on="0"/>
        <pt x="459" y="62" on="0"/>
        <pt x="540" y="98" on="1"/>
        <pt x="540" y="276" on="1"/>
        <pt x="392" y="276" on="1"/>
        <pt x="392" y="349" on="1"/>
        <pt x="625" y="349" on="1"/>
        <pt x="625" y="55" on="1"/>
        <pt x="494" y="-12" on="0"/>
        <pt x="358" y="-12" on="1"/>
        <pt x="259" y="-12" on="0"/>
        <pt x="116" y="85" on="0"/>
        <pt x="50" y="233" on="0"/>
        <pt x="50" y="321" on="1"/>
        <pt x="50" y="489" on="0"/>
        <pt x="246" y="703" on="0"/>
        <pt x="409" y="703" on="1"/>
        <pt x="489" y="703" on="0"/>
        <pt x="587" y="671" on="1"/>
        <pt x="562" y="601" on="1"/>
        <pt x="481" y="627" on="0"/>
      </contour>
      <contour>
        <pt x="415" y="776" on="0"/>
        <pt x="369" y="776" on="0"/>
        <pt x="337" y="809" on="0"/>
        <pt x="337" y="856" on="0"/>
        <pt x="370" y="888" on="0"/>
        <pt x="414" y="888" on="0"/>
        <pt x="447" y="856" on="0"/>
        <pt x="447" y="809" on="0"/>
      </contour>
    </TTGlyph>
    <TTGlyph name="H" xMin="75" yMin="0" xMax="620" yMax="691">
      <contour>
        <pt x="534" y="0" on="1"/>
        <pt x="534" y="314" on="1"/>
        <pt x="161" y="314" on="1"/>
        <pt x="161" y="0" on="1"/>
        <pt x="75" y="0" on="1"/>
        <pt x="75" y="691" on="1"/>
        <pt x="161" y="691" on="1"/>
        <pt x="161" y="387" on="1"/>
        <pt x="534" y="387" on="1"/>
        <pt x="534" y="691" on="1"/>
        <pt x="620" y="691" on="1"/>
        <pt x="620" y="0" on="1"/>
      </contour>
    </TTGlyph>
    <TTGlyph name="Hbar" xMin="3" yMin="0" xMax="691" yMax="691">
      <contour>
        <pt x="534" y="0" on="1"/>
        <pt x="534" y="314" on="1"/>
        <pt x="161" y="314" on="1"/>
        <pt x="161" y="0" on="1"/>
        <pt x="75" y="0" on="1"/>
        <pt x="75" y="691" on="1"/>
        <pt x="161" y="691" on="1"/>
        <pt x="161" y="387" on="1"/>
        <pt x="534" y="387" on="1"/>
        <pt x="534" y="691" on="1"/>
        <pt x="620" y="691" on="1"/>
        <pt x="620" y="0" on="1"/>
      </contour>
      <contour>
        <pt x="691" y="521" on="1"/>
        <pt x="3" y="521" on="1"/>
        <pt x="3" y="575" on="1"/>
        <pt x="691" y="575" on="1"/>
      </contour>
    </TTGlyph>
    <TTGlyph name="Hcircumflex" xMin="75" yMin="0" xMax="620" yMax="924">
      <contour>
        <pt x="534" y="0" on="1"/>
        <pt x="534" y="314" on="1"/>
        <pt x="161" y="314" on="1"/>
        <pt x="161" y="0" on="1"/>
        <pt x="75" y="0" on="1"/>
        <pt x="75" y="691" on="1"/>
        <pt x="161" y="691" on="1"/>
        <pt x="161" y="387" on="1"/>
        <pt x="534" y="387" on="1"/>
        <pt x="534" y="691" on="1"/>
        <pt x="620" y="691" on="1"/>
        <pt x="620" y="0" on="1"/>
      </contour>
      <contour>
        <pt x="466" y="742" on="1"/>
        <pt x="413" y="742" on="1"/>
        <pt x="349" y="826" on="1"/>
        <pt x="344" y="826" on="1"/>
        <pt x="281" y="742" on="1"/>
        <pt x="228" y="742" on="1"/>
        <pt x="325" y="924" on="1"/>
        <pt x="369" y="924" on="1"/>
      </contour>
    </TTGlyph>
    <TTGlyph name="I" xMin="85" yMin="0" xMax="171" yMax="691">
      <contour>
        <pt x="85" y="0" on="1"/>
        <pt x="85" y="691" on="1"/>
        <pt x="171" y="691" on="1"/>
        <pt x="171" y="0" on="1"/>
      </contour>
    </TTGlyph>
    <TTGlyph name="IJ" xMin="85" yMin="-201" xMax="442" yMax="691">
      <contour>
        <pt x="85" y="0" on="1"/>
        <pt x="85" y="691" on="1"/>
        <pt x="171" y="691" on="1"/>
        <pt x="171" y="0" on="1"/>
      </contour>
      <contour>
        <pt x="442" y="691" on="1"/>
        <pt x="442" y="-1" on="1"/>
        <pt x="442" y="-100" on="0"/>
        <pt x="367" y="-201" on="0"/>
        <pt x="273" y="-201" on="1"/>
        <pt x="234" y="-201" on="0"/>
        <pt x="203" y="-190" on="1"/>
        <pt x="220" y="-121" on="1"/>
        <pt x="241" y="-129" on="0"/>
        <pt x="274" y="-129" on="1"/>
        <pt x="321" y="-129" on="0"/>
        <pt x="356" y="-61" on="0"/>
        <pt x="356" y="7" on="1"/>
        <pt x="356" y="691" on="1"/>
      </contour>
    </TTGlyph>
    <TTGlyph name="Iacute" xMin="29" yMin="0" xMax="228" yMax="926">
      <contour>
        <pt x="85" y="0" on="1"/>
        <pt x="85" y="691" on="1"/>
        <pt x="171" y="691" on="1"/>
        <pt x="171" y="0" on="1"/>
      </contour>
      <contour>
        <pt x="93" y="742" on="1"/>
        <pt x="29" y="742" on="1"/>
        <pt x="156" y="926" on="1"/>
        <pt x="228" y="872" on="1"/>
      </contour>
    </TTGlyph>
    <TTGlyph name="Ibreve" xMin="-7" yMin="0" xMax="264" yMax="886">
      <contour>
        <pt x="85" y="0" on="1"/>
        <pt x="85" y="691" on="1"/>
        <pt x="171" y="691" on="1"/>
        <pt x="171" y="0" on="1"/>
      </contour>
      <contour>
        <pt x="261" y="834" on="0"/>
        <pt x="184" y="759" on="0"/>
        <pt x="75" y="759" on="0"/>
        <pt x="-3" y="834" on="0"/>
        <pt x="-7" y="886" on="1"/>
        <pt x="64" y="886" on="1"/>
        <pt x="74" y="825" on="0"/>
        <pt x="184" y="825" on="0"/>
        <pt x="194" y="886" on="1"/>
        <pt x="264" y="886" on="1"/>
      </contour>
    </TTGlyph>
    <TTGlyph name="Icircumflex" xMin="9" yMin="0" xMax="247" yMax="924">
      <contour>
        <pt x="85" y="0" on="1"/>
        <pt x="85" y="691" on="1"/>
        <pt x="171" y="691" on="1"/>
        <pt x="171" y="0" on="1"/>
      </contour>
      <contour>
        <pt x="247" y="742" on="1"/>
        <pt x="194" y="742" on="1"/>
        <pt x="130" y="826" on="1"/>
        <pt x="125" y="826" on="1"/>
        <pt x="62" y="742" on="1"/>
        <pt x="9" y="742" on="1"/>
        <pt x="106" y="924" on="1"/>
        <pt x="150" y="924" on="1"/>
      </contour>
    </TTGlyph>
    <TTGlyph name="Idieresis" xMin="-17" yMin="0" xMax="273" yMax="888">
      <contour>
        <pt x="85" y="0" on="1"/>
        <pt x="85" y="691" on="1"/>
        <pt x="171" y="691" on="1"/>
        <pt x="171" y="0" on="1"/>
      </contour>
      <contour>
        <pt x="61" y="776" on="0"/>
        <pt x="15" y="776" on="0"/>
        <pt x="-17" y="809" on="0"/>
        <pt x="-17" y="856" on="0"/>
        <pt x="16" y="888" on="0"/>
        <pt x="60" y="888" on="0"/>
        <pt x="93" y="856" on="0"/>
        <pt x="93" y="809" on="0"/>
      </contour>
      <contour>
        <pt x="241" y="776" on="0"/>
        <pt x="195" y="776" on="0"/>
        <pt x="163" y="809" on="0"/>
        <pt x="163" y="856" on="0"/>
        <pt x="196" y="888" on="0"/>
        <pt x="240" y="888" on="0"/>
        <pt x="273" y="856" on="0"/>
        <pt x="273" y="809" on="0"/>
      </contour>
    </TTGlyph>
    <TTGlyph name="Idotaccent" xMin="73" yMin="0" xMax="183" yMax="888">
      <contour>
        <pt x="85" y="0" on="1"/>
        <pt x="85" y="691" on="1"/>
        <pt x="171" y="691" on="1"/>
        <pt x="171" y="0" on="1"/>
      </contour>
      <contour>
        <pt x="151" y="776" on="0"/>
        <pt x="105" y="776" on="0"/>
        <pt x="73" y="809" on="0"/>
        <pt x="73" y="856" on="0"/>
        <pt x="106" y="888" on="0"/>
        <pt x="150" y="888" on="0"/>
        <pt x="183" y="856" on="0"/>
        <pt x="183" y="809" on="0"/>
      </contour>
    </TTGlyph>
    <TTGlyph name="Igrave" xMin="28" yMin="0" xMax="227" yMax="926">
      <contour>
        <pt x="85" y="0" on="1"/>
        <pt x="85" y="691" on="1"/>
        <pt x="171" y="691" on="1"/>
        <pt x="171" y="0" on="1"/>
      </contour>
      <contour>
        <pt x="227" y="742" on="1"/>
        <pt x="163" y="742" on="1"/>
        <pt x="28" y="872" on="1"/>
        <pt x="100" y="926" on="1"/>
      </contour>
    </TTGlyph>
    <TTGlyph name="Imacron" xMin="-12" yMin="0" xMax="268" yMax="864">
      <contour>
        <pt x="85" y="0" on="1"/>
        <pt x="85" y="691" on="1"/>
        <pt x="171" y="691" on="1"/>
        <pt x="171" y="0" on="1"/>
      </contour>
      <contour>
        <pt x="268" y="864" on="1"/>
        <pt x="268" y="797" on="1"/>
        <pt x="-12" y="797" on="1"/>
        <pt x="-12" y="864" on="1"/>
      </contour>
    </TTGlyph>
    <TTGlyph name="Iogonek" xMin="3" yMin="-230" xMax="210" yMax="691">
      <contour>
        <pt x="85" y="0" on="1"/>
        <pt x="85" y="691" on="1"/>
        <pt x="171" y="691" on="1"/>
        <pt x="171" y="0" on="1"/>
      </contour>
      <contour>
        <pt x="63" y="-109" on="1"/>
        <pt x="63" y="-137" on="0"/>
        <pt x="94" y="-165" on="0"/>
        <pt x="154" y="-165" on="0"/>
        <pt x="184" y="-143" on="1"/>
        <pt x="210" y="-187" on="1"/>
        <pt x="148" y="-230" on="0"/>
        <pt x="54" y="-230" on="0"/>
        <pt x="3" y="-175" on="0"/>
        <pt x="3" y="-133" on="1"/>
        <pt x="3" y="-59" on="0"/>
        <pt x="85" y="0" on="1"/>
        <pt x="139" y="0" on="1"/>
        <pt x="63" y="-53" on="0"/>
      </contour>
    </TTGlyph>
    <TTGlyph name="Itilde" xMin="-34" yMin="0" xMax="291" yMax="890">
      <contour>
        <pt x="85" y="0" on="1"/>
        <pt x="85" y="691" on="1"/>
        <pt x="171" y="691" on="1"/>
        <pt x="171" y="0" on="1"/>
      </contour>
      <contour>
        <pt x="194" y="780" on="1"/>
        <pt x="169" y="780" on="0"/>
        <pt x="73" y="812" on="0"/>
        <pt x="54" y="812" on="1"/>
        <pt x="20" y="812" on="0"/>
        <pt x="5" y="775" on="1"/>
        <pt x="-34" y="792" on="1"/>
        <pt x="-3" y="885" on="0"/>
        <pt x="63" y="885" on="1"/>
        <pt x="88" y="885" on="0"/>
        <pt x="184" y="853" on="0"/>
        <pt x="203" y="853" on="1"/>
        <pt x="237" y="853" on="0"/>
        <pt x="252" y="890" on="1"/>
        <pt x="291" y="873" on="1"/>
        <pt x="260" y="780" on="0"/>
      </contour>
    </TTGlyph>
    <TTGlyph name="J" xMin="-53" yMin="-201" xMax="186" yMax="691">
      <contour>
        <pt x="186" y="691" on="1"/>
        <pt x="186" y="-1" on="1"/>
        <pt x="186" y="-100" on="0"/>
        <pt x="111" y="-201" on="0"/>
        <pt x="17" y="-201" on="1"/>
        <pt x="-22" y="-201" on="0"/>
        <pt x="-53" y="-190" on="1"/>
        <pt x="-36" y="-121" on="1"/>
        <pt x="-15" y="-129" on="0"/>
        <pt x="18" y="-129" on="1"/>
        <pt x="65" y="-129" on="0"/>
        <pt x="100" y="-61" on="0"/>
        <pt x="100" y="7" on="1"/>
        <pt x="100" y="691" on="1"/>
      </contour>
    </TTGlyph>
    <TTGlyph name="Jcircumflex" xMin="-53" yMin="-201" xMax="255" yMax="924">
      <contour>
        <pt x="186" y="691" on="1"/>
        <pt x="186" y="-1" on="1"/>
        <pt x="186" y="-100" on="0"/>
        <pt x="111" y="-201" on="0"/>
        <pt x="17" y="-201" on="1"/>
        <pt x="-22" y="-201" on="0"/>
        <pt x="-53" y="-190" on="1"/>
        <pt x="-36" y="-121" on="1"/>
        <pt x="-15" y="-129" on="0"/>
        <pt x="18" y="-129" on="1"/>
        <pt x="65" y="-129" on="0"/>
        <pt x="100" y="-61" on="0"/>
        <pt x="100" y="7" on="1"/>
        <pt x="100" y="691" on="1"/>
      </contour>
      <contour>
        <pt x="255" y="742" on="1"/>
        <pt x="202" y="742" on="1"/>
        <pt x="138" y="826" on="1"/>
        <pt x="133" y="826" on="1"/>
        <pt x="70" y="742" on="1"/>
        <pt x="17" y="742" on="1"/>
        <pt x="114" y="924" on="1"/>
        <pt x="158" y="924" on="1"/>
      </contour>
    </TTGlyph>
    <TTGlyph name="K" xMin="75" yMin="0" xMax="566" yMax="691">
      <contour>
        <pt x="161" y="0" on="1"/>
        <pt x="75" y="0" on="1"/>
        <pt x="75" y="691" on="1"/>
        <pt x="161" y="691" on="1"/>
        <pt x="161" y="399" on="1"/>
        <pt x="434" y="691" on="1"/>
        <pt x="541" y="691" on="1"/>
        <pt x="269" y="407" on="1"/>
        <pt x="566" y="0" on="1"/>
        <pt x="456" y="0" on="1"/>
        <pt x="207" y="342" on="1"/>
        <pt x="161" y="294" on="1"/>
      </contour>
    </TTGlyph>
    <TTGlyph name="L" xMin="75" yMin="0" xMax="454" yMax="691">
      <contour>
        <pt x="75" y="0" on="1"/>
        <pt x="75" y="691" on="1"/>
        <pt x="161" y="691" on="1"/>
        <pt x="161" y="76" on="1"/>
        <pt x="454" y="76" on="1"/>
        <pt x="454" y="0" on="1"/>
      </contour>
    </TTGlyph>
    <TTGlyph name="Lacute" xMin="62" yMin="0" xMax="454" yMax="926">
      <contour>
        <pt x="75" y="0" on="1"/>
        <pt x="75" y="691" on="1"/>
        <pt x="161" y="691" on="1"/>
        <pt x="161" y="76" on="1"/>
        <pt x="454" y="76" on="1"/>
        <pt x="454" y="0" on="1"/>
      </contour>
      <contour>
        <pt x="126" y="742" on="1"/>
        <pt x="62" y="742" on="1"/>
        <pt x="189" y="926" on="1"/>
        <pt x="261" y="872" on="1"/>
      </contour>
    </TTGlyph>
    <TTGlyph name="Lcaron" xMin="75" yMin="0" xMax="454" yMax="740">
      <contour>
        <pt x="75" y="0" on="1"/>
        <pt x="75" y="691" on="1"/>
        <pt x="161" y="691" on="1"/>
        <pt x="161" y="76" on="1"/>
        <pt x="454" y="76" on="1"/>
        <pt x="454" y="0" on="1"/>
      </contour>
      <contour>
        <pt x="288" y="516" on="1"/>
        <pt x="241" y="526" on="1"/>
        <pt x="282" y="730" on="1"/>
        <pt x="378" y="740" on="1"/>
      </contour>
    </TTGlyph>
    <TTGlyph name="Ldot" xMin="75" yMin="0" xMax="454" yMax="691">
      <contour>
        <pt x="75" y="0" on="1"/>
        <pt x="75" y="691" on="1"/>
        <pt x="161" y="691" on="1"/>
        <pt x="161" y="76" on="1"/>
        <pt x="454" y="76" on="1"/>
        <pt x="454" y="0" on="1"/>
      </contour>
      <contour>
        <pt x="325" y="309" on="0"/>
        <pt x="281" y="309" on="0"/>
        <pt x="251" y="340" on="0"/>
        <pt x="251" y="386" on="0"/>
        <pt x="281" y="416" on="0"/>
        <pt x="325" y="416" on="0"/>
        <pt x="356" y="386" on="0"/>
        <pt x="356" y="340" on="0"/>
      </contour>
    </TTGlyph>
    <TTGlyph name="Lslash" xMin="10" yMin="0" xMax="454" yMax="691">
      <contour>
        <pt x="75" y="0" on="1"/>
        <pt x="75" y="691" on="1"/>
        <pt x="161" y="691" on="1"/>
        <pt x="161" y="76" on="1"/>
        <pt x="454" y="76" on="1"/>
        <pt x="454" y="0" on="1"/>
      </contour>
      <contour>
        <pt x="228" y="426" on="1"/>
        <pt x="10" y="262" on="1"/>
        <pt x="10" y="319" on="1"/>
        <pt x="228" y="483" on="1"/>
      </contour>
    </TTGlyph>
    <TTGlyph name="M" xMin="70" yMin="0" xMax="816" yMax="690">
      <contour>
        <pt x="489" y="0" on="1"/>
        <pt x="386" y="0" on="1"/>
        <pt x="180" y="572" on="1"/>
        <pt x="175" y="572" on="1"/>
        <pt x="156" y="0" on="1"/>
        <pt x="70" y="0" on="1"/>
        <pt x="97" y="690" on="1"/>
        <pt x="226" y="690" on="1"/>
        <pt x="441" y="93" on="1"/>
        <pt x="445" y="93" on="1"/>
        <pt x="660" y="690" on="1"/>
        <pt x="789" y="690" on="1"/>
        <pt x="816" y="0" on="1"/>
        <pt x="720" y="0" on="1"/>
        <pt x="701" y="572" on="1"/>
        <pt x="696" y="572" on="1"/>
      </contour>
    </TTGlyph>
    <TTGlyph name="N" xMin="75" yMin="0" xMax="656" yMax="691">
      <contour>
        <pt x="570" y="155" on="1"/>
        <pt x="570" y="691" on="1"/>
        <pt x="656" y="691" on="1"/>
        <pt x="656" y="0" on="1"/>
        <pt x="573" y="0" on="1"/>
        <pt x="166" y="537" on="1"/>
        <pt x="161" y="537" on="1"/>
        <pt x="161" y="0" on="1"/>
        <pt x="75" y="0" on="1"/>
        <pt x="75" y="691" on="1"/>
        <pt x="158" y="691" on="1"/>
        <pt x="565" y="155" on="1"/>
      </contour>
    </TTGlyph>
    <TTGlyph name="Nacute" xMin="75" yMin="0" xMax="656" yMax="926">
      <contour>
        <pt x="570" y="155" on="1"/>
        <pt x="570" y="691" on="1"/>
        <pt x="656" y="691" on="1"/>
        <pt x="656" y="0" on="1"/>
        <pt x="573" y="0" on="1"/>
        <pt x="166" y="537" on="1"/>
        <pt x="161" y="537" on="1"/>
        <pt x="161" y="0" on="1"/>
        <pt x="75" y="0" on="1"/>
        <pt x="75" y="691" on="1"/>
        <pt x="158" y="691" on="1"/>
        <pt x="565" y="155" on="1"/>
      </contour>
      <contour>
        <pt x="380" y="742" on="1"/>
        <pt x="316" y="742" on="1"/>
        <pt x="443" y="926" on="1"/>
        <pt x="515" y="872" on="1"/>
      </contour>
    </TTGlyph>
    <TTGlyph name="Ncaron" xMin="75" yMin="0" xMax="656" yMax="920">
      <contour>
        <pt x="570" y="155" on="1"/>
        <pt x="570" y="691" on="1"/>
        <pt x="656" y="691" on="1"/>
        <pt x="656" y="0" on="1"/>
        <pt x="573" y="0" on="1"/>
        <pt x="166" y="537" on="1"/>
        <pt x="161" y="537" on="1"/>
        <pt x="161" y="0" on="1"/>
        <pt x="75" y="0" on="1"/>
        <pt x="75" y="691" on="1"/>
        <pt x="158" y="691" on="1"/>
        <pt x="565" y="155" on="1"/>
      </contour>
      <contour>
        <pt x="367" y="836" on="1"/>
        <pt x="431" y="920" on="1"/>
        <pt x="484" y="920" on="1"/>
        <pt x="387" y="738" on="1"/>
        <pt x="343" y="738" on="1"/>
        <pt x="246" y="920" on="1"/>
        <pt x="299" y="920" on="1"/>
        <pt x="362" y="836" on="1"/>
      </contour>
    </TTGlyph>
    <TTGlyph name="Ntilde" xMin="75" yMin="0" xMax="656" yMax="890">
      <contour>
        <pt x="570" y="155" on="1"/>
        <pt x="570" y="691" on="1"/>
        <pt x="656" y="691" on="1"/>
        <pt x="656" y="0" on="1"/>
        <pt x="573" y="0" on="1"/>
        <pt x="166" y="537" on="1"/>
        <pt x="161" y="537" on="1"/>
        <pt x="161" y="0" on="1"/>
        <pt x="75" y="0" on="1"/>
        <pt x="75" y="691" on="1"/>
        <pt x="158" y="691" on="1"/>
        <pt x="565" y="155" on="1"/>
      </contour>
      <contour>
        <pt x="431" y="780" on="1"/>
        <pt x="406" y="780" on="0"/>
        <pt x="310" y="812" on="0"/>
        <pt x="291" y="812" on="1"/>
        <pt x="257" y="812" on="0"/>
        <pt x="242" y="775" on="1"/>
        <pt x="203" y="792" on="1"/>
        <pt x="234" y="885" on="0"/>
        <pt x="300" y="885" on="1"/>
        <pt x="325" y="885" on="0"/>
        <pt x="421" y="853" on="0"/>
        <pt x="440" y="853" on="1"/>
        <pt x="474" y="853" on="0"/>
        <pt x="489" y="890" on="1"/>
        <pt x="528" y="873" on="1"/>
        <pt x="497" y="780" on="0"/>
      </contour>
    </TTGlyph>
    <TTGlyph name="O" xMin="50" yMin="-12" xMax="709" yMax="703">
      <contour>
        <pt x="355" y="-12" on="1"/>
        <pt x="280" y="-12" on="0"/>
        <pt x="161" y="44" on="0"/>
        <pt x="124" y="91" on="1"/>
        <pt x="50" y="187" on="0"/>
        <pt x="50" y="321" on="1"/>
        <pt x="50" y="489" on="0"/>
        <pt x="244" y="703" on="0"/>
        <pt x="404" y="703" on="1"/>
        <pt x="479" y="703" on="0"/>
        <pt x="598" y="647" on="0"/>
        <pt x="634" y="600" on="1"/>
        <pt x="709" y="504" on="0"/>
        <pt x="709" y="370" on="1"/>
        <pt x="709" y="202" on="0"/>
        <pt x="515" y="-12" on="0"/>
      </contour>
      <contour>
        <pt x="400" y="628" on="1"/>
        <pt x="276" y="628" on="0"/>
        <pt x="142" y="466" on="0"/>
        <pt x="142" y="320" on="1"/>
        <pt x="142" y="213" on="0"/>
        <pt x="257" y="61" on="0"/>
        <pt x="360" y="61" on="1"/>
        <pt x="484" y="61" on="0"/>
        <pt x="617" y="223" on="0"/>
        <pt x="617" y="369" on="1"/>
        <pt x="617" y="476" on="0"/>
        <pt x="503" y="628" on="0"/>
      </contour>
    </TTGlyph>
    <TTGlyph name="OE" xMin="50" yMin="-12" xMax="941" yMax="703">
      <contour>
        <pt x="452" y="0" on="1"/>
        <pt x="407" y="-12" on="0"/>
        <pt x="280" y="-12" on="0"/>
        <pt x="161" y="44" on="0"/>
        <pt x="124" y="91" on="1"/>
        <pt x="50" y="187" on="0"/>
        <pt x="50" y="321" on="1"/>
        <pt x="50" y="489" on="0"/>
        <pt x="244" y="703" on="0"/>
        <pt x="404" y="703" on="1"/>
        <pt x="453" y="703" on="0"/>
        <pt x="495" y="691" on="1"/>
        <pt x="922" y="691" on="1"/>
        <pt x="903" y="615" on="1"/>
        <pt x="621" y="615" on="1"/>
        <pt x="702" y="528" on="0"/>
        <pt x="709" y="387" on="1"/>
        <pt x="886" y="387" on="1"/>
        <pt x="886" y="314" on="1"/>
        <pt x="706" y="314" on="1"/>
        <pt x="689" y="166" on="0"/>
        <pt x="593" y="76" on="1"/>
        <pt x="941" y="76" on="1"/>
        <pt x="941" y="0" on="1"/>
      </contour>
      <contour>
        <pt x="400" y="628" on="1"/>
        <pt x="276" y="628" on="0"/>
        <pt x="142" y="466" on="0"/>
        <pt x="142" y="320" on="1"/>
        <pt x="142" y="213" on="0"/>
        <pt x="257" y="61" on="0"/>
        <pt x="360" y="61" on="1"/>
        <pt x="484" y="61" on="0"/>
        <pt x="617" y="223" on="0"/>
        <pt x="617" y="369" on="1"/>
        <pt x="617" y="476" on="0"/>
        <pt x="503" y="628" on="0"/>
      </contour>
    </TTGlyph>
    <TTGlyph name="Oacute" xMin="50" yMin="-12" xMax="709" yMax="926">
      <contour>
        <pt x="355" y="-12" on="1"/>
        <pt x="280" y="-12" on="0"/>
        <pt x="161" y="44" on="0"/>
        <pt x="124" y="91" on="1"/>
        <pt x="50" y="187" on="0"/>
        <pt x="50" y="321" on="1"/>
        <pt x="50" y="489" on="0"/>
        <pt x="244" y="703" on="0"/>
        <pt x="404" y="703" on="1"/>
        <pt x="479" y="703" on="0"/>
        <pt x="598" y="647" on="0"/>
        <pt x="634" y="600" on="1"/>
        <pt x="709" y="504" on="0"/>
        <pt x="709" y="370" on="1"/>
        <pt x="709" y="202" on="0"/>
        <pt x="515" y="-12" on="0"/>
      </contour>
      <contour>
        <pt x="400" y="628" on="1"/>
        <pt x="276" y="628" on="0"/>
        <pt x="142" y="466" on="0"/>
        <pt x="142" y="320" on="1"/>
        <pt x="142" y="213" on="0"/>
        <pt x="257" y="61" on="0"/>
        <pt x="360" y="61" on="1"/>
        <pt x="484" y="61" on="0"/>
        <pt x="617" y="223" on="0"/>
        <pt x="617" y="369" on="1"/>
        <pt x="617" y="476" on="0"/>
        <pt x="503" y="628" on="0"/>
      </contour>
      <contour>
        <pt x="374" y="742" on="1"/>
        <pt x="310" y="742" on="1"/>
        <pt x="437" y="926" on="1"/>
        <pt x="509" y="872" on="1"/>
      </contour>
    </TTGlyph>
    <TTGlyph name="Obreve" xMin="50" yMin="-12" xMax="709" yMax="886">
      <contour>
        <pt x="355" y="-12" on="1"/>
        <pt x="280" y="-12" on="0"/>
        <pt x="161" y="44" on="0"/>
        <pt x="124" y="91" on="1"/>
        <pt x="50" y="187" on="0"/>
        <pt x="50" y="321" on="1"/>
        <pt x="50" y="489" on="0"/>
        <pt x="244" y="703" on="0"/>
        <pt x="404" y="703" on="1"/>
        <pt x="479" y="703" on="0"/>
        <pt x="598" y="647" on="0"/>
        <pt x="634" y="600" on="1"/>
        <pt x="709" y="504" on="0"/>
        <pt x="709" y="370" on="1"/>
        <pt x="709" y="202" on="0"/>
        <pt x="515" y="-12" on="0"/>
      </contour>
      <contour>
        <pt x="400" y="628" on="1"/>
        <pt x="276" y="628" on="0"/>
        <pt x="142" y="466" on="0"/>
        <pt x="142" y="320" on="1"/>
        <pt x="142" y="213" on="0"/>
        <pt x="257" y="61" on="0"/>
        <pt x="360" y="61" on="1"/>
        <pt x="484" y="61" on="0"/>
        <pt x="617" y="223" on="0"/>
        <pt x="617" y="369" on="1"/>
        <pt x="617" y="476" on="0"/>
        <pt x="503" y="628" on="0"/>
      </contour>
      <contour>
        <pt x="512" y="834" on="0"/>
        <pt x="435" y="759" on="0"/>
        <pt x="326" y="759" on="0"/>
        <pt x="248" y="834" on="0"/>
        <pt x="244" y="886" on="1"/>
        <pt x="315" y="886" on="1"/>
        <pt x="325" y="825" on="0"/>
        <pt x="435" y="825" on="0"/>
        <pt x="445" y="886" on="1"/>
        <pt x="515" y="886" on="1"/>
      </contour>
    </TTGlyph>
    <TTGlyph name="Ocircumflex" xMin="50" yMin="-12" xMax="709" yMax="924">
      <contour>
        <pt x="355" y="-12" on="1"/>
        <pt x="280" y="-12" on="0"/>
        <pt x="161" y="44" on="0"/>
        <pt x="124" y="91" on="1"/>
        <pt x="50" y="187" on="0"/>
        <pt x="50" y="321" on="1"/>
        <pt x="50" y="489" on="0"/>
        <pt x="244" y="703" on="0"/>
        <pt x="404" y="703" on="1"/>
        <pt x="479" y="703" on="0"/>
        <pt x="598" y="647" on="0"/>
        <pt x="634" y="600" on="1"/>
        <pt x="709" y="504" on="0"/>
        <pt x="709" y="370" on="1"/>
        <pt x="709" y="202" on="0"/>
        <pt x="515" y="-12" on="0"/>
      </contour>
      <contour>
        <pt x="400" y="628" on="1"/>
        <pt x="276" y="628" on="0"/>
        <pt x="142" y="466" on="0"/>
        <pt x="142" y="320" on="1"/>
        <pt x="142" y="213" on="0"/>
        <pt x="257" y="61" on="0"/>
        <pt x="360" y="61" on="1"/>
        <pt x="484" y="61" on="0"/>
        <pt x="617" y="223" on="0"/>
        <pt x="617" y="369" on="1"/>
        <pt x="617" y="476" on="0"/>
        <pt x="503" y="628" on="0"/>
      </contour>
      <contour>
        <pt x="498" y="742" on="1"/>
        <pt x="445" y="742" on="1"/>
        <pt x="381" y="826" on="1"/>
        <pt x="376" y="826" on="1"/>
        <pt x="313" y="742" on="1"/>
        <pt x="260" y="742" on="1"/>
        <pt x="357" y="924" on="1"/>
        <pt x="401" y="924" on="1"/>
      </contour>
    </TTGlyph>
    <TTGlyph name="Odieresis" xMin="50" yMin="-12" xMax="709" yMax="888">
      <contour>
        <pt x="355" y="-12" on="1"/>
        <pt x="280" y="-12" on="0"/>
        <pt x="161" y="44" on="0"/>
        <pt x="124" y="91" on="1"/>
        <pt x="50" y="187" on="0"/>
        <pt x="50" y="321" on="1"/>
        <pt x="50" y="489" on="0"/>
        <pt x="244" y="703" on="0"/>
        <pt x="404" y="703" on="1"/>
        <pt x="479" y="703" on="0"/>
        <pt x="598" y="647" on="0"/>
        <pt x="634" y="600" on="1"/>
        <pt x="709" y="504" on="0"/>
        <pt x="709" y="370" on="1"/>
        <pt x="709" y="202" on="0"/>
        <pt x="515" y="-12" on="0"/>
      </contour>
      <contour>
        <pt x="400" y="628" on="1"/>
        <pt x="276" y="628" on="0"/>
        <pt x="142" y="466" on="0"/>
        <pt x="142" y="320" on="1"/>
        <pt x="142" y="213" on="0"/>
        <pt x="257" y="61" on="0"/>
        <pt x="360" y="61" on="1"/>
        <pt x="484" y="61" on="0"/>
        <pt x="617" y="223" on="0"/>
        <pt x="617" y="369" on="1"/>
        <pt x="617" y="476" on="0"/>
        <pt x="503" y="628" on="0"/>
      </contour>
      <contour>
        <pt x="312" y="776" on="0"/>
        <pt x="266" y="776" on="0"/>
        <pt x="234" y="809" on="0"/>
        <pt x="234" y="856" on="0"/>
        <pt x="266" y="888" on="0"/>
        <pt x="312" y="888" on="0"/>
        <pt x="344" y="856" on="0"/>
        <pt x="344" y="809" on="0"/>
      </contour>
      <contour>
        <pt x="492" y="776" on="0"/>
        <pt x="446" y="776" on="0"/>
        <pt x="414" y="809" on="0"/>
        <pt x="414" y="856" on="0"/>
        <pt x="446" y="888" on="0"/>
        <pt x="492" y="888" on="0"/>
        <pt x="524" y="856" on="0"/>
        <pt x="524" y="809" on="0"/>
      </contour>
    </TTGlyph>
    <TTGlyph name="Ograve" xMin="50" yMin="-12" xMax="709" yMax="926">
      <contour>
        <pt x="355" y="-12" on="1"/>
        <pt x="280" y="-12" on="0"/>
        <pt x="161" y="44" on="0"/>
        <pt x="124" y="91" on="1"/>
        <pt x="50" y="187" on="0"/>
        <pt x="50" y="321" on="1"/>
        <pt x="50" y="489" on="0"/>
        <pt x="244" y="703" on="0"/>
        <pt x="404" y="703" on="1"/>
        <pt x="479" y="703" on="0"/>
        <pt x="598" y="647" on="0"/>
        <pt x="634" y="600" on="1"/>
        <pt x="709" y="504" on="0"/>
        <pt x="709" y="370" on="1"/>
        <pt x="709" y="202" on="0"/>
        <pt x="515" y="-12" on="0"/>
      </contour>
      <contour>
        <pt x="400" y="628" on="1"/>
        <pt x="276" y="628" on="0"/>
        <pt x="142" y="466" on="0"/>
        <pt x="142" y="320" on="1"/>
        <pt x="142" y="213" on="0"/>
        <pt x="257" y="61" on="0"/>
        <pt x="360" y="61" on="1"/>
        <pt x="484" y="61" on="0"/>
        <pt x="617" y="223" on="0"/>
        <pt x="617" y="369" on="1"/>
        <pt x="617" y="476" on="0"/>
        <pt x="503" y="628" on="0"/>
      </contour>
      <contour>
        <pt x="479" y="742" on="1"/>
        <pt x="415" y="742" on="1"/>
        <pt x="280" y="872" on="1"/>
        <pt x="352" y="926" on="1"/>
      </contour>
    </TTGlyph>
    <TTGlyph name="Ohungarumlaut" xMin="50" yMin="-12" xMax="709" yMax="926">
      <contour>
        <pt x="355" y="-12" on="1"/>
        <pt x="280" y="-12" on="0"/>
        <pt x="161" y="44" on="0"/>
        <pt x="124" y="91" on="1"/>
        <pt x="50" y="187" on="0"/>
        <pt x="50" y="321" on="1"/>
        <pt x="50" y="489" on="0"/>
        <pt x="244" y="703" on="0"/>
        <pt x="404" y="703" on="1"/>
        <pt x="479" y="703" on="0"/>
        <pt x="598" y="647" on="0"/>
        <pt x="634" y="600" on="1"/>
        <pt x="709" y="504" on="0"/>
        <pt x="709" y="370" on="1"/>
        <pt x="709" y="202" on="0"/>
        <pt x="515" y="-12" on="0"/>
      </contour>
      <contour>
        <pt x="400" y="628" on="1"/>
        <pt x="276" y="628" on="0"/>
        <pt x="142" y="466" on="0"/>
        <pt x="142" y="320" on="1"/>
        <pt x="142" y="213" on="0"/>
        <pt x="257" y="61" on="0"/>
        <pt x="360" y="61" on="1"/>
        <pt x="484" y="61" on="0"/>
        <pt x="617" y="223" on="0"/>
        <pt x="617" y="369" on="1"/>
        <pt x="617" y="476" on="0"/>
        <pt x="503" y="628" on="0"/>
      </contour>
      <contour>
        <pt x="309" y="742" on="1"/>
        <pt x="245" y="742" on="1"/>
        <pt x="372" y="926" on="1"/>
        <pt x="444" y="872" on="1"/>
      </contour>
      <contour>
        <pt x="478" y="742" on="1"/>
        <pt x="414" y="742" on="1"/>
        <pt x="541" y="926" on="1"/>
        <pt x="613" y="872" on="1"/>
      </contour>
    </TTGlyph>
    <TTGlyph name="Omacron" xMin="50" yMin="-12" xMax="709" yMax="864">
      <contour>
        <pt x="355" y="-12" on="1"/>
        <pt x="280" y="-12" on="0"/>
        <pt x="161" y="44" on="0"/>
        <pt x="124" y="91" on="1"/>
        <pt x="50" y="187" on="0"/>
        <pt x="50" y="321" on="1"/>
        <pt x="50" y="489" on="0"/>
        <pt x="244" y="703" on="0"/>
        <pt x="404" y="703" on="1"/>
        <pt x="479" y="703" on="0"/>
        <pt x="598" y="647" on="0"/>
        <pt x="634" y="600" on="1"/>
        <pt x="709" y="504" on="0"/>
        <pt x="709" y="370" on="1"/>
        <pt x="709" y="202" on="0"/>
        <pt x="515" y="-12" on="0"/>
      </contour>
      <contour>
        <pt x="400" y="628" on="1"/>
        <pt x="276" y="628" on="0"/>
        <pt x="142" y="466" on="0"/>
        <pt x="142" y="320" on="1"/>
        <pt x="142" y="213" on="0"/>
        <pt x="257" y="61" on="0"/>
        <pt x="360" y="61" on="1"/>
        <pt x="484" y="61" on="0"/>
        <pt x="617" y="223" on="0"/>
        <pt x="617" y="369" on="1"/>
        <pt x="617" y="476" on="0"/>
        <pt x="503" y="628" on="0"/>
      </contour>
      <contour>
        <pt x="519" y="864" on="1"/>
        <pt x="519" y="797" on="1"/>
        <pt x="239" y="797" on="1"/>
        <pt x="239" y="864" on="1"/>
      </contour>
    </TTGlyph>
    <TTGlyph name="Omega" xMin="64" yMin="0" xMax="752" yMax="703">
      <contour>
        <pt x="581" y="70" on="1"/>
        <pt x="752" y="70" on="1"/>
        <pt x="752" y="0" on="1"/>
        <pt x="522" y="0" on="1"/>
        <pt x="522" y="131" on="1"/>
        <pt x="586" y="165" on="0"/>
        <pt x="656" y="297" on="0"/>
        <pt x="656" y="373" on="1"/>
        <pt x="656" y="479" on="0"/>
        <pt x="511" y="628" on="0"/>
        <pt x="305" y="628" on="0"/>
        <pt x="160" y="479" on="0"/>
        <pt x="160" y="373" on="1"/>
        <pt x="160" y="297" on="0"/>
        <pt x="230" y="165" on="0"/>
        <pt x="294" y="131" on="1"/>
        <pt x="294" y="0" on="1"/>
        <pt x="64" y="0" on="1"/>
        <pt x="64" y="70" on="1"/>
        <pt x="235" y="70" on="1"/>
        <pt x="235" y="87" on="1"/>
        <pt x="158" y="133" on="0"/>
        <pt x="68" y="283" on="0"/>
        <pt x="68" y="372" on="1"/>
        <pt x="68" y="509" on="0"/>
        <pt x="267" y="703" on="0"/>
        <pt x="549" y="703" on="0"/>
        <pt x="748" y="509" on="0"/>
        <pt x="748" y="372" on="1"/>
        <pt x="748" y="283" on="0"/>
        <pt x="658" y="133" on="0"/>
        <pt x="581" y="87" on="1"/>
      </contour>
    </TTGlyph>
    <TTGlyph name="Oslash" xMin="48" yMin="-81" xMax="709" yMax="760">
      <contour>
        <pt x="48" y="-81" on="1"/>
        <pt x="644" y="760" on="1"/>
        <pt x="709" y="760" on="1"/>
        <pt x="113" y="-81" on="1"/>
      </contour>
      <contour>
        <pt x="355" y="-12" on="1"/>
        <pt x="280" y="-12" on="0"/>
        <pt x="161" y="44" on="0"/>
        <pt x="124" y="91" on="1"/>
        <pt x="50" y="187" on="0"/>
        <pt x="50" y="321" on="1"/>
        <pt x="50" y="489" on="0"/>
        <pt x="244" y="703" on="0"/>
        <pt x="404" y="703" on="1"/>
        <pt x="479" y="703" on="0"/>
        <pt x="598" y="647" on="0"/>
        <pt x="634" y="600" on="1"/>
        <pt x="709" y="504" on="0"/>
        <pt x="709" y="370" on="1"/>
        <pt x="709" y="202" on="0"/>
        <pt x="515" y="-12" on="0"/>
      </contour>
      <contour>
        <pt x="400" y="628" on="1"/>
        <pt x="276" y="628" on="0"/>
        <pt x="142" y="466" on="0"/>
        <pt x="142" y="320" on="1"/>
        <pt x="142" y="213" on="0"/>
        <pt x="257" y="61" on="0"/>
        <pt x="360" y="61" on="1"/>
        <pt x="484" y="61" on="0"/>
        <pt x="617" y="223" on="0"/>
        <pt x="617" y="369" on="1"/>
        <pt x="617" y="476" on="0"/>
        <pt x="503" y="628" on="0"/>
      </contour>
    </TTGlyph>
    <TTGlyph name="Oslashacute" xMin="48" yMin="-81" xMax="709" yMax="926">
      <contour>
        <pt x="48" y="-81" on="1"/>
        <pt x="644" y="760" on="1"/>
        <pt x="709" y="760" on="1"/>
        <pt x="113" y="-81" on="1"/>
      </contour>
      <contour>
        <pt x="374" y="742" on="1"/>
        <pt x="310" y="742" on="1"/>
        <pt x="437" y="926" on="1"/>
        <pt x="509" y="872" on="1"/>
      </contour>
      <contour>
        <pt x="355" y="-12" on="1"/>
        <pt x="280" y="-12" on="0"/>
        <pt x="161" y="44" on="0"/>
        <pt x="124" y="91" on="1"/>
        <pt x="50" y="187" on="0"/>
        <pt x="50" y="321" on="1"/>
        <pt x="50" y="489" on="0"/>
        <pt x="244" y="703" on="0"/>
        <pt x="404" y="703" on="1"/>
        <pt x="479" y="703" on="0"/>
        <pt x="598" y="647" on="0"/>
        <pt x="634" y="600" on="1"/>
        <pt x="709" y="504" on="0"/>
        <pt x="709" y="370" on="1"/>
        <pt x="709" y="202" on="0"/>
        <pt x="515" y="-12" on="0"/>
      </contour>
      <contour>
        <pt x="400" y="628" on="1"/>
        <pt x="276" y="628" on="0"/>
        <pt x="142" y="466" on="0"/>
        <pt x="142" y="320" on="1"/>
        <pt x="142" y="213" on="0"/>
        <pt x="257" y="61" on="0"/>
        <pt x="360" y="61" on="1"/>
        <pt x="484" y="61" on="0"/>
        <pt x="617" y="223" on="0"/>
        <pt x="617" y="369" on="1"/>
        <pt x="617" y="476" on="0"/>
        <pt x="503" y="628" on="0"/>
      </contour>
    </TTGlyph>
    <TTGlyph name="Otilde" xMin="50" yMin="-12" xMax="709" yMax="890">
      <contour>
        <pt x="355" y="-12" on="1"/>
        <pt x="280" y="-12" on="0"/>
        <pt x="161" y="44" on="0"/>
        <pt x="124" y="91" on="1"/>
        <pt x="50" y="187" on="0"/>
        <pt x="50" y="321" on="1"/>
        <pt x="50" y="489" on="0"/>
        <pt x="244" y="703" on="0"/>
        <pt x="404" y="703" on="1"/>
        <pt x="479" y="703" on="0"/>
        <pt x="598" y="647" on="0"/>
        <pt x="634" y="600" on="1"/>
        <pt x="709" y="504" on="0"/>
        <pt x="709" y="370" on="1"/>
        <pt x="709" y="202" on="0"/>
        <pt x="515" y="-12" on="0"/>
      </contour>
      <contour>
        <pt x="400" y="628" on="1"/>
        <pt x="276" y="628" on="0"/>
        <pt x="142" y="466" on="0"/>
        <pt x="142" y="320" on="1"/>
        <pt x="142" y="213" on="0"/>
        <pt x="257" y="61" on="0"/>
        <pt x="360" y="61" on="1"/>
        <pt x="484" y="61" on="0"/>
        <pt x="617" y="223" on="0"/>
        <pt x="617" y="369" on="1"/>
        <pt x="617" y="476" on="0"/>
        <pt x="503" y="628" on="0"/>
      </contour>
      <contour>
        <pt x="445" y="780" on="1"/>
        <pt x="420" y="780" on="0"/>
        <pt x="324" y="812" on="0"/>
        <pt x="305" y="812" on="1"/>
        <pt x="271" y="812" on="0"/>
        <pt x="256" y="775" on="1"/>
        <pt x="217" y="792" on="1"/>
        <pt x="248" y="885" on="0"/>
        <pt x="314" y="885" on="1"/>
        <pt x="339" y="885" on="0"/>
        <pt x="435" y="853" on="0"/>
        <pt x="454" y="853" on="1"/>
        <pt x="488" y="853" on="0"/>
        <pt x="503" y="890" on="1"/>
        <pt x="542" y="873" on="1"/>
        <pt x="511" y="780" on="0"/>
      </contour>
    </TTGlyph>
    <TTGlyph name="P" xMin="75" yMin="0" xMax="493" yMax="691">
      <contour>
        <pt x="257" y="267" on="1"/>
        <pt x="161" y="267" on="1"/>
        <pt x="161" y="0" on="1"/>
        <pt x="75" y="0" on="1"/>
        <pt x="75" y="691" on="1"/>
        <pt x="257" y="691" on="1"/>
        <pt x="363" y="691" on="0"/>
        <pt x="493" y="579" on="0"/>
        <pt x="493" y="379" on="0"/>
        <pt x="363" y="267" on="0"/>
      </contour>
      <contour>
        <pt x="161" y="343" on="1"/>
        <pt x="257" y="343" on="1"/>
        <pt x="401" y="343" on="0"/>
        <pt x="401" y="615" on="0"/>
        <pt x="257" y="615" on="1"/>
        <pt x="161" y="615" on="1"/>
      </contour>
    </TTGlyph>
    <TTGlyph name="Q" xMin="50" yMin="-217" xMax="709" yMax="703">
      <contour>
        <pt x="50" y="321" on="1"/>
        <pt x="50" y="489" on="0"/>
        <pt x="244" y="703" on="0"/>
        <pt x="404" y="703" on="1"/>
        <pt x="479" y="703" on="0"/>
        <pt x="598" y="647" on="0"/>
        <pt x="634" y="600" on="1"/>
        <pt x="709" y="504" on="0"/>
        <pt x="709" y="230" on="0"/>
        <pt x="571" y="30" on="0"/>
        <pt x="451" y="0" on="1"/>
        <pt x="709" y="-156" on="1"/>
        <pt x="709" y="-178" on="1"/>
        <pt x="626" y="-217" on="1"/>
        <pt x="348" y="-12" on="1"/>
        <pt x="252" y="-10" on="0"/>
        <pt x="182" y="39" on="1"/>
        <pt x="50" y="132" on="0"/>
      </contour>
      <contour>
        <pt x="400" y="631" on="1"/>
        <pt x="276" y="631" on="0"/>
        <pt x="142" y="466" on="0"/>
        <pt x="142" y="319" on="1"/>
        <pt x="142" y="209" on="0"/>
        <pt x="257" y="54" on="0"/>
        <pt x="360" y="54" on="1"/>
        <pt x="484" y="54" on="0"/>
        <pt x="617" y="219" on="0"/>
        <pt x="617" y="366" on="1"/>
        <pt x="617" y="476" on="0"/>
        <pt x="503" y="631" on="0"/>
      </contour>
    </TTGlyph>
    <TTGlyph name="R" xMin="75" yMin="0" xMax="549" yMax="691">
      <contour>
        <pt x="161" y="281" on="1"/>
        <pt x="161" y="0" on="1"/>
        <pt x="75" y="0" on="1"/>
        <pt x="75" y="691" on="1"/>
        <pt x="257" y="691" on="1"/>
        <pt x="359" y="691" on="0"/>
        <pt x="493" y="582" on="0"/>
        <pt x="493" y="485" on="1"/>
        <pt x="493" y="415" on="0"/>
        <pt x="419" y="318" on="0"/>
        <pt x="356" y="296" on="1"/>
        <pt x="408" y="236" on="0"/>
        <pt x="549" y="0" on="1"/>
        <pt x="445" y="0" on="1"/>
        <pt x="306" y="240" on="0"/>
        <pt x="269" y="281" on="1"/>
      </contour>
      <contour>
        <pt x="161" y="355" on="1"/>
        <pt x="257" y="355" on="1"/>
        <pt x="326" y="355" on="0"/>
        <pt x="401" y="423" on="0"/>
        <pt x="401" y="547" on="0"/>
        <pt x="326" y="615" on="0"/>
        <pt x="257" y="615" on="1"/>
        <pt x="161" y="615" on="1"/>
      </contour>
    </TTGlyph>
    <TTGlyph name="Racute" xMin="75" yMin="0" xMax="549" yMax="926">
      <contour>
        <pt x="161" y="281" on="1"/>
        <pt x="161" y="0" on="1"/>
        <pt x="75" y="0" on="1"/>
        <pt x="75" y="691" on="1"/>
        <pt x="257" y="691" on="1"/>
        <pt x="359" y="691" on="0"/>
        <pt x="493" y="582" on="0"/>
        <pt x="493" y="485" on="1"/>
        <pt x="493" y="415" on="0"/>
        <pt x="419" y="318" on="0"/>
        <pt x="356" y="296" on="1"/>
        <pt x="408" y="236" on="0"/>
        <pt x="549" y="0" on="1"/>
        <pt x="445" y="0" on="1"/>
        <pt x="306" y="240" on="0"/>
        <pt x="269" y="281" on="1"/>
      </contour>
      <contour>
        <pt x="161" y="355" on="1"/>
        <pt x="257" y="355" on="1"/>
        <pt x="326" y="355" on="0"/>
        <pt x="401" y="423" on="0"/>
        <pt x="401" y="547" on="0"/>
        <pt x="326" y="615" on="0"/>
        <pt x="257" y="615" on="1"/>
        <pt x="161" y="615" on="1"/>
      </contour>
      <contour>
        <pt x="239" y="742" on="1"/>
        <pt x="175" y="742" on="1"/>
        <pt x="302" y="926" on="1"/>
        <pt x="374" y="872" on="1"/>
      </contour>
    </TTGlyph>
    <TTGlyph name="Rcaron" xMin="75" yMin="0" xMax="549" yMax="920">
      <contour>
        <pt x="161" y="281" on="1"/>
        <pt x="161" y="0" on="1"/>
        <pt x="75" y="0" on="1"/>
        <pt x="75" y="691" on="1"/>
        <pt x="257" y="691" on="1"/>
        <pt x="359" y="691" on="0"/>
        <pt x="493" y="582" on="0"/>
        <pt x="493" y="485" on="1"/>
        <pt x="493" y="415" on="0"/>
        <pt x="419" y="318" on="0"/>
        <pt x="356" y="296" on="1"/>
        <pt x="408" y="236" on="0"/>
        <pt x="549" y="0" on="1"/>
        <pt x="445" y="0" on="1"/>
        <pt x="306" y="240" on="0"/>
        <pt x="269" y="281" on="1"/>
      </contour>
      <contour>
        <pt x="161" y="355" on="1"/>
        <pt x="257" y="355" on="1"/>
        <pt x="326" y="355" on="0"/>
        <pt x="401" y="423" on="0"/>
        <pt x="401" y="547" on="0"/>
        <pt x="326" y="615" on="0"/>
        <pt x="257" y="615" on="1"/>
        <pt x="161" y="615" on="1"/>
      </contour>
      <contour>
        <pt x="242" y="836" on="1"/>
        <pt x="306" y="920" on="1"/>
        <pt x="359" y="920" on="1"/>
        <pt x="262" y="738" on="1"/>
        <pt x="218" y="738" on="1"/>
        <pt x="121" y="920" on="1"/>
        <pt x="174" y="920" on="1"/>
        <pt x="237" y="836" on="1"/>
      </contour>
    </TTGlyph>
    <TTGlyph name="S" xMin="40" yMin="-12" xMax="472" yMax="703">
      <contour>
        <pt x="412" y="605" on="1"/>
        <pt x="342" y="629" on="0"/>
        <pt x="222" y="629" on="0"/>
        <pt x="146" y="567" on="0"/>
        <pt x="146" y="523" on="1"/>
        <pt x="146" y="460" on="0"/>
        <pt x="213" y="424" on="1"/>
        <pt x="354" y="346" on="1"/>
        <pt x="472" y="280" on="0"/>
        <pt x="472" y="176" on="1"/>
        <pt x="472" y="90" on="0"/>
        <pt x="350" y="-12" on="0"/>
        <pt x="128" y="-12" on="0"/>
        <pt x="40" y="28" on="1"/>
        <pt x="65" y="98" on="1"/>
        <pt x="147" y="62" on="0"/>
        <pt x="306" y="62" on="0"/>
        <pt x="382" y="124" on="0"/>
        <pt x="382" y="168" on="1"/>
        <pt x="382" y="231" on="0"/>
        <pt x="315" y="267" on="1"/>
        <pt x="174" y="345" on="1"/>
        <pt x="56" y="411" on="0"/>
        <pt x="56" y="515" on="1"/>
        <pt x="56" y="601" on="0"/>
        <pt x="178" y="703" on="0"/>
        <pt x="281" y="703" on="1"/>
        <pt x="351" y="703" on="0"/>
        <pt x="438" y="674" on="1"/>
      </contour>
    </TTGlyph>
    <TTGlyph name="Sacute" xMin="40" yMin="-12" xMax="472" yMax="926">
      <contour>
        <pt x="412" y="605" on="1"/>
        <pt x="342" y="629" on="0"/>
        <pt x="222" y="629" on="0"/>
        <pt x="146" y="567" on="0"/>
        <pt x="146" y="523" on="1"/>
        <pt x="146" y="460" on="0"/>
        <pt x="213" y="424" on="1"/>
        <pt x="354" y="346" on="1"/>
        <pt x="472" y="280" on="0"/>
        <pt x="472" y="176" on="1"/>
        <pt x="472" y="90" on="0"/>
        <pt x="350" y="-12" on="0"/>
        <pt x="128" y="-12" on="0"/>
        <pt x="40" y="28" on="1"/>
        <pt x="65" y="98" on="1"/>
        <pt x="147" y="62" on="0"/>
        <pt x="306" y="62" on="0"/>
        <pt x="382" y="124" on="0"/>
        <pt x="382" y="168" on="1"/>
        <pt x="382" y="231" on="0"/>
        <pt x="315" y="267" on="1"/>
        <pt x="174" y="345" on="1"/>
        <pt x="56" y="411" on="0"/>
        <pt x="56" y="515" on="1"/>
        <pt x="56" y="601" on="0"/>
        <pt x="178" y="703" on="0"/>
        <pt x="281" y="703" on="1"/>
        <pt x="351" y="703" on="0"/>
        <pt x="438" y="674" on="1"/>
      </contour>
      <contour>
        <pt x="256" y="742" on="1"/>
        <pt x="192" y="742" on="1"/>
        <pt x="319" y="926" on="1"/>
        <pt x="391" y="872" on="1"/>
      </contour>
    </TTGlyph>
    <TTGlyph name="Scaron" xMin="40" yMin="-12" xMax="472" yMax="920">
      <contour>
        <pt x="412" y="605" on="1"/>
        <pt x="342" y="629" on="0"/>
        <pt x="222" y="629" on="0"/>
        <pt x="146" y="567" on="0"/>
        <pt x="146" y="523" on="1"/>
        <pt x="146" y="460" on="0"/>
        <pt x="213" y="424" on="1"/>
        <pt x="354" y="346" on="1"/>
        <pt x="472" y="280" on="0"/>
        <pt x="472" y="176" on="1"/>
        <pt x="472" y="90" on="0"/>
        <pt x="350" y="-12" on="0"/>
        <pt x="128" y="-12" on="0"/>
        <pt x="40" y="28" on="1"/>
        <pt x="65" y="98" on="1"/>
        <pt x="147" y="62" on="0"/>
        <pt x="306" y="62" on="0"/>
        <pt x="382" y="124" on="0"/>
        <pt x="382" y="168" on="1"/>
        <pt x="382" y="231" on="0"/>
        <pt x="315" y="267" on="1"/>
        <pt x="174" y="345" on="1"/>
        <pt x="56" y="411" on="0"/>
        <pt x="56" y="515" on="1"/>
        <pt x="56" y="601" on="0"/>
        <pt x="178" y="703" on="0"/>
        <pt x="281" y="703" on="1"/>
        <pt x="351" y="703" on="0"/>
        <pt x="438" y="674" on="1"/>
      </contour>
      <contour>
        <pt x="258" y="836" on="1"/>
        <pt x="322" y="920" on="1"/>
        <pt x="375" y="920" on="1"/>
        <pt x="278" y="738" on="1"/>
        <pt x="234" y="738" on="1"/>
        <pt x="137" y="920" on="1"/>
        <pt x="190" y="920" on="1"/>
        <pt x="253" y="836" on="1"/>
      </contour>
    </TTGlyph>
    <TTGlyph name="Scedilla" xMin="40" yMin="-242" xMax="472" yMax="703">
      <contour>
        <pt x="412" y="605" on="1"/>
        <pt x="342" y="629" on="0"/>
        <pt x="222" y="629" on="0"/>
        <pt x="146" y="567" on="0"/>
        <pt x="146" y="523" on="1"/>
        <pt x="146" y="460" on="0"/>
        <pt x="213" y="424" on="1"/>
        <pt x="354" y="346" on="1"/>
        <pt x="472" y="280" on="0"/>
        <pt x="472" y="176" on="1"/>
        <pt x="472" y="90" on="0"/>
        <pt x="350" y="-12" on="0"/>
        <pt x="128" y="-12" on="0"/>
        <pt x="40" y="28" on="1"/>
        <pt x="65" y="98" on="1"/>
        <pt x="147" y="62" on="0"/>
        <pt x="306" y="62" on="0"/>
        <pt x="382" y="124" on="0"/>
        <pt x="382" y="168" on="1"/>
        <pt x="382" y="231" on="0"/>
        <pt x="315" y="267" on="1"/>
        <pt x="174" y="345" on="1"/>
        <pt x="56" y="411" on="0"/>
        <pt x="56" y="515" on="1"/>
        <pt x="56" y="601" on="0"/>
        <pt x="178" y="703" on="0"/>
        <pt x="281" y="703" on="1"/>
        <pt x="351" y="703" on="0"/>
        <pt x="438" y="674" on="1"/>
      </contour>
      <contour>
        <pt x="348" y="-143" on="1"/>
        <pt x="348" y="-188" on="0"/>
        <pt x="284" y="-242" on="0"/>
        <pt x="191" y="-242" on="0"/>
        <pt x="147" y="-215" on="1"/>
        <pt x="163" y="-175" on="1"/>
        <pt x="193" y="-195" on="0"/>
        <pt x="250" y="-195" on="0"/>
        <pt x="285" y="-162" on="0"/>
        <pt x="285" y="-119" on="0"/>
        <pt x="247" y="-86" on="0"/>
        <pt x="211" y="-83" on="1"/>
        <pt x="202" y="-70" on="1"/>
        <pt x="234" y="8" on="1"/>
        <pt x="269" y="8" on="1"/>
        <pt x="258" y="-47" on="1"/>
        <pt x="348" y="-77" on="0"/>
      </contour>
    </TTGlyph>
    <TTGlyph name="Scircumflex" xMin="40" yMin="-12" xMax="472" yMax="924">
      <contour>
        <pt x="412" y="605" on="1"/>
        <pt x="342" y="629" on="0"/>
        <pt x="222" y="629" on="0"/>
        <pt x="146" y="567" on="0"/>
        <pt x="146" y="523" on="1"/>
        <pt x="146" y="460" on="0"/>
        <pt x="213" y="424" on="1"/>
        <pt x="354" y="346" on="1"/>
        <pt x="472" y="280" on="0"/>
        <pt x="472" y="176" on="1"/>
        <pt x="472" y="90" on="0"/>
        <pt x="350" y="-12" on="0"/>
        <pt x="128" y="-12" on="0"/>
        <pt x="40" y="28" on="1"/>
        <pt x="65" y="98" on="1"/>
        <pt x="147" y="62" on="0"/>
        <pt x="306" y="62" on="0"/>
        <pt x="382" y="124" on="0"/>
        <pt x="382" y="168" on="1"/>
        <pt x="382" y="231" on="0"/>
        <pt x="315" y="267" on="1"/>
        <pt x="174" y="345" on="1"/>
        <pt x="56" y="411" on="0"/>
        <pt x="56" y="515" on="1"/>
        <pt x="56" y="601" on="0"/>
        <pt x="178" y="703" on="0"/>
        <pt x="281" y="703" on="1"/>
        <pt x="351" y="703" on="0"/>
        <pt x="438" y="674" on="1"/>
      </contour>
      <contour>
        <pt x="371" y="742" on="1"/>
        <pt x="318" y="742" on="1"/>
        <pt x="254" y="826" on="1"/>
        <pt x="249" y="826" on="1"/>
        <pt x="186" y="742" on="1"/>
        <pt x="133" y="742" on="1"/>
        <pt x="230" y="924" on="1"/>
        <pt x="274" y="924" on="1"/>
      </contour>
    </TTGlyph>
    <TTGlyph name="T" xMin="5" yMin="0" xMax="487" yMax="691">
      <contour>
        <pt x="5" y="615" on="1"/>
        <pt x="5" y="691" on="1"/>
        <pt x="487" y="691" on="1"/>
        <pt x="487" y="615" on="1"/>
        <pt x="289" y="615" on="1"/>
        <pt x="289" y="0" on="1"/>
        <pt x="203" y="0" on="1"/>
        <pt x="203" y="615" on="1"/>
      </contour>
    </TTGlyph>
    <TTGlyph name="Tbar" xMin="5" yMin="0" xMax="487" yMax="691">
      <contour>
        <pt x="5" y="615" on="1"/>
        <pt x="5" y="691" on="1"/>
        <pt x="487" y="691" on="1"/>
        <pt x="487" y="615" on="1"/>
        <pt x="289" y="615" on="1"/>
        <pt x="289" y="0" on="1"/>
        <pt x="203" y="0" on="1"/>
        <pt x="203" y="615" on="1"/>
      </contour>
      <contour>
        <pt x="437" y="315" on="1"/>
        <pt x="55" y="315" on="1"/>
        <pt x="55" y="369" on="1"/>
        <pt x="437" y="369" on="1"/>
      </contour>
    </TTGlyph>
    <TTGlyph name="Tcaron" xMin="5" yMin="0" xMax="487" yMax="920">
      <contour>
        <pt x="5" y="615" on="1"/>
        <pt x="5" y="691" on="1"/>
        <pt x="487" y="691" on="1"/>
        <pt x="487" y="615" on="1"/>
        <pt x="289" y="615" on="1"/>
        <pt x="289" y="0" on="1"/>
        <pt x="203" y="0" on="1"/>
        <pt x="203" y="615" on="1"/>
      </contour>
      <contour>
        <pt x="248" y="836" on="1"/>
        <pt x="312" y="920" on="1"/>
        <pt x="365" y="920" on="1"/>
        <pt x="268" y="738" on="1"/>
        <pt x="224" y="738" on="1"/>
        <pt x="127" y="920" on="1"/>
        <pt x="180" y="920" on="1"/>
        <pt x="243" y="836" on="1"/>
      </contour>
    </TTGlyph>
    <TTGlyph name="Thorn" xMin="75" yMin="0" xMax="493" yMax="691">
      <contour>
        <pt x="75" y="0" on="1"/>
        <pt x="75" y="691" on="1"/>
        <pt x="161" y="691" on="1"/>
        <pt x="161" y="557" on="1"/>
        <pt x="257" y="557" on="1"/>
        <pt x="363" y="557" on="0"/>
        <pt x="493" y="445" on="0"/>
        <pt x="493" y="245" on="0"/>
        <pt x="363" y="133" on="0"/>
        <pt x="257" y="133" on="1"/>
        <pt x="161" y="133" on="1"/>
        <pt x="161" y="0" on="1"/>
      </contour>
      <contour>
        <pt x="161" y="209" on="1"/>
        <pt x="257" y="209" on="1"/>
        <pt x="401" y="209" on="0"/>
        <pt x="401" y="481" on="0"/>
        <pt x="257" y="481" on="1"/>
        <pt x="161" y="481" on="1"/>
      </contour>
    </TTGlyph>
    <TTGlyph name="U" xMin="70" yMin="-12" xMax="590" yMax="691">
      <contour>
        <pt x="156" y="691" on="1"/>
        <pt x="156" y="222" on="1"/>
        <pt x="156" y="146" on="0"/>
        <pt x="209" y="99" on="1"/>
        <pt x="251" y="61" on="0"/>
        <pt x="330" y="61" on="1"/>
        <pt x="439" y="61" on="0"/>
        <pt x="482" y="138" on="1"/>
        <pt x="504" y="176" on="0"/>
        <pt x="504" y="222" on="1"/>
        <pt x="504" y="691" on="1"/>
        <pt x="590" y="691" on="1"/>
        <pt x="590" y="222" on="1"/>
        <pt x="590" y="119" on="0"/>
        <pt x="455" y="-12" on="0"/>
        <pt x="205" y="-12" on="0"/>
        <pt x="70" y="119" on="0"/>
        <pt x="70" y="222" on="1"/>
        <pt x="70" y="691" on="1"/>
      </contour>
    </TTGlyph>
    <TTGlyph name="Uacute" xMin="70" yMin="-12" xMax="590" yMax="926">
      <contour>
        <pt x="156" y="691" on="1"/>
        <pt x="156" y="222" on="1"/>
        <pt x="156" y="146" on="0"/>
        <pt x="209" y="99" on="1"/>
        <pt x="251" y="61" on="0"/>
        <pt x="330" y="61" on="1"/>
        <pt x="439" y="61" on="0"/>
        <pt x="482" y="138" on="1"/>
        <pt x="504" y="176" on="0"/>
        <pt x="504" y="222" on="1"/>
        <pt x="504" y="691" on="1"/>
        <pt x="590" y="691" on="1"/>
        <pt x="590" y="222" on="1"/>
        <pt x="590" y="119" on="0"/>
        <pt x="455" y="-12" on="0"/>
        <pt x="205" y="-12" on="0"/>
        <pt x="70" y="119" on="0"/>
        <pt x="70" y="222" on="1"/>
        <pt x="70" y="691" on="1"/>
      </contour>
      <contour>
        <pt x="334" y="742" on="1"/>
        <pt x="270" y="742" on="1"/>
        <pt x="397" y="926" on="1"/>
        <pt x="469" y="872" on="1"/>
      </contour>
    </TTGlyph>
    <TTGlyph name="Ubreve" xMin="70" yMin="-12" xMax="590" yMax="886">
      <contour>
        <pt x="156" y="691" on="1"/>
        <pt x="156" y="222" on="1"/>
        <pt x="156" y="146" on="0"/>
        <pt x="209" y="99" on="1"/>
        <pt x="251" y="61" on="0"/>
        <pt x="330" y="61" on="1"/>
        <pt x="439" y="61" on="0"/>
        <pt x="482" y="138" on="1"/>
        <pt x="504" y="176" on="0"/>
        <pt x="504" y="222" on="1"/>
        <pt x="504" y="691" on="1"/>
        <pt x="590" y="691" on="1"/>
        <pt x="590" y="222" on="1"/>
        <pt x="590" y="119" on="0"/>
        <pt x="455" y="-12" on="0"/>
        <pt x="205" y="-12" on="0"/>
        <pt x="70" y="119" on="0"/>
        <pt x="70" y="222" on="1"/>
        <pt x="70" y="691" on="1"/>
      </contour>
      <contour>
        <pt x="462" y="834" on="0"/>
        <pt x="385" y="759" on="0"/>
        <pt x="276" y="759" on="0"/>
        <pt x="198" y="834" on="0"/>
        <pt x="194" y="886" on="1"/>
        <pt x="265" y="886" on="1"/>
        <pt x="275" y="825" on="0"/>
        <pt x="385" y="825" on="0"/>
        <pt x="395" y="886" on="1"/>
        <pt x="465" y="886" on="1"/>
      </contour>
    </TTGlyph>
    <TTGlyph name="Ucircumflex" xMin="70" yMin="-12" xMax="590" yMax="924">
      <contour>
        <pt x="156" y="691" on="1"/>
        <pt x="156" y="222" on="1"/>
        <pt x="156" y="146" on="0"/>
        <pt x="209" y="99" on="1"/>
        <pt x="251" y="61" on="0"/>
        <pt x="330" y="61" on="1"/>
        <pt x="439" y="61" on="0"/>
        <pt x="482" y="138" on="1"/>
        <pt x="504" y="176" on="0"/>
        <pt x="504" y="222" on="1"/>
        <pt x="504" y="691" on="1"/>
        <pt x="590" y="691" on="1"/>
        <pt x="590" y="222" on="1"/>
        <pt x="590" y="119" on="0"/>
        <pt x="455" y="-12" on="0"/>
        <pt x="205" y="-12" on="0"/>
        <pt x="70" y="119" on="0"/>
        <pt x="70" y="222" on="1"/>
        <pt x="70" y="691" on="1"/>
      </contour>
      <contour>
        <pt x="449" y="742" on="1"/>
        <pt x="396" y="742" on="1"/>
        <pt x="332" y="826" on="1"/>
        <pt x="327" y="826" on="1"/>
        <pt x="264" y="742" on="1"/>
        <pt x="211" y="742" on="1"/>
        <pt x="308" y="924" on="1"/>
        <pt x="352" y="924" on="1"/>
      </contour>
    </TTGlyph>
    <TTGlyph name="Udieresis" xMin="70" yMin="-12" xMax="590" yMax="888">
      <contour>
        <pt x="156" y="691" on="1"/>
        <pt x="156" y="222" on="1"/>
        <pt x="156" y="146" on="0"/>
        <pt x="209" y="99" on="1"/>
        <pt x="251" y="61" on="0"/>
        <pt x="330" y="61" on="1"/>
        <pt x="439" y="61" on="0"/>
        <pt x="482" y="138" on="1"/>
        <pt x="504" y="176" on="0"/>
        <pt x="504" y="222" on="1"/>
        <pt x="504" y="691" on="1"/>
        <pt x="590" y="691" on="1"/>
        <pt x="590" y="222" on="1"/>
        <pt x="590" y="119" on="0"/>
        <pt x="455" y="-12" on="0"/>
        <pt x="205" y="-12" on="0"/>
        <pt x="70" y="119" on="0"/>
        <pt x="70" y="222" on="1"/>
        <pt x="70" y="691" on="1"/>
      </contour>
      <contour>
        <pt x="263" y="776" on="0"/>
        <pt x="217" y="776" on="0"/>
        <pt x="185" y="809" on="0"/>
        <pt x="185" y="856" on="0"/>
        <pt x="218" y="888" on="0"/>
        <pt x="262" y="888" on="0"/>
        <pt x="295" y="856" on="0"/>
        <pt x="295" y="809" on="0"/>
      </contour>
      <contour>
        <pt x="443" y="776" on="0"/>
        <pt x="397" y="776" on="0"/>
        <pt x="365" y="809" on="0"/>
        <pt x="365" y="856" on="0"/>
        <pt x="398" y="888" on="0"/>
        <pt x="442" y="888" on="0"/>
        <pt x="475" y="856" on="0"/>
        <pt x="475" y="809" on="0"/>
      </contour>
    </TTGlyph>
    <TTGlyph name="Ugrave" xMin="70" yMin="-12" xMax="590" yMax="926">
      <contour>
        <pt x="156" y="691" on="1"/>
        <pt x="156" y="222" on="1"/>
        <pt x="156" y="146" on="0"/>
        <pt x="209" y="99" on="1"/>
        <pt x="251" y="61" on="0"/>
        <pt x="330" y="61" on="1"/>
        <pt x="439" y="61" on="0"/>
        <pt x="482" y="138" on="1"/>
        <pt x="504" y="176" on="0"/>
        <pt x="504" y="222" on="1"/>
        <pt x="504" y="691" on="1"/>
        <pt x="590" y="691" on="1"/>
        <pt x="590" y="222" on="1"/>
        <pt x="590" y="119" on="0"/>
        <pt x="455" y="-12" on="0"/>
        <pt x="205" y="-12" on="0"/>
        <pt x="70" y="119" on="0"/>
        <pt x="70" y="222" on="1"/>
        <pt x="70" y="691" on="1"/>
      </contour>
      <contour>
        <pt x="409" y="742" on="1"/>
        <pt x="345" y="742" on="1"/>
        <pt x="210" y="872" on="1"/>
        <pt x="282" y="926" on="1"/>
      </contour>
    </TTGlyph>
    <TTGlyph name="Uhungarumlaut" xMin="70" yMin="-12" xMax="590" yMax="926">
      <contour>
        <pt x="156" y="691" on="1"/>
        <pt x="156" y="222" on="1"/>
        <pt x="156" y="146" on="0"/>
        <pt x="209" y="99" on="1"/>
        <pt x="251" y="61" on="0"/>
        <pt x="330" y="61" on="1"/>
        <pt x="439" y="61" on="0"/>
        <pt x="482" y="138" on="1"/>
        <pt x="504" y="176" on="0"/>
        <pt x="504" y="222" on="1"/>
        <pt x="504" y="691" on="1"/>
        <pt x="590" y="691" on="1"/>
        <pt x="590" y="222" on="1"/>
        <pt x="590" y="119" on="0"/>
        <pt x="455" y="-12" on="0"/>
        <pt x="205" y="-12" on="0"/>
        <pt x="70" y="119" on="0"/>
        <pt x="70" y="222" on="1"/>
        <pt x="70" y="691" on="1"/>
      </contour>
      <contour>
        <pt x="250" y="742" on="1"/>
        <pt x="186" y="742" on="1"/>
        <pt x="313" y="926" on="1"/>
        <pt x="385" y="872" on="1"/>
      </contour>
      <contour>
        <pt x="419" y="742" on="1"/>
        <pt x="355" y="742" on="1"/>
        <pt x="482" y="926" on="1"/>
        <pt x="554" y="872" on="1"/>
      </contour>
    </TTGlyph>
    <TTGlyph name="Umacron" xMin="70" yMin="-12" xMax="590" yMax="864">
      <contour>
        <pt x="156" y="691" on="1"/>
        <pt x="156" y="222" on="1"/>
        <pt x="156" y="146" on="0"/>
        <pt x="209" y="99" on="1"/>
        <pt x="251" y="61" on="0"/>
        <pt x="330" y="61" on="1"/>
        <pt x="439" y="61" on="0"/>
        <pt x="482" y="138" on="1"/>
        <pt x="504" y="176" on="0"/>
        <pt x="504" y="222" on="1"/>
        <pt x="504" y="691" on="1"/>
        <pt x="590" y="691" on="1"/>
        <pt x="590" y="222" on="1"/>
        <pt x="590" y="119" on="0"/>
        <pt x="455" y="-12" on="0"/>
        <pt x="205" y="-12" on="0"/>
        <pt x="70" y="119" on="0"/>
        <pt x="70" y="222" on="1"/>
        <pt x="70" y="691" on="1"/>
      </contour>
      <contour>
        <pt x="470" y="864" on="1"/>
        <pt x="470" y="797" on="1"/>
        <pt x="190" y="797" on="1"/>
        <pt x="190" y="864" on="1"/>
      </contour>
    </TTGlyph>
    <TTGlyph name="Uogonek" xMin="70" yMin="-230" xMax="590" yMax="691">
      <contour>
        <pt x="156" y="691" on="1"/>
        <pt x="156" y="222" on="1"/>
        <pt x="156" y="146" on="0"/>
        <pt x="209" y="99" on="1"/>
        <pt x="251" y="61" on="0"/>
        <pt x="330" y="61" on="1"/>
        <pt x="439" y="61" on="0"/>
        <pt x="482" y="138" on="1"/>
        <pt x="504" y="176" on="0"/>
        <pt x="504" y="222" on="1"/>
        <pt x="504" y="691" on="1"/>
        <pt x="590" y="691" on="1"/>
        <pt x="590" y="222" on="1"/>
        <pt x="590" y="119" on="0"/>
        <pt x="455" y="-12" on="0"/>
        <pt x="205" y="-12" on="0"/>
        <pt x="70" y="119" on="0"/>
        <pt x="70" y="222" on="1"/>
        <pt x="70" y="691" on="1"/>
      </contour>
      <contour>
        <pt x="307" y="-109" on="1"/>
        <pt x="307" y="-137" on="0"/>
        <pt x="338" y="-165" on="0"/>
        <pt x="398" y="-165" on="0"/>
        <pt x="428" y="-143" on="1"/>
        <pt x="454" y="-187" on="1"/>
        <pt x="392" y="-230" on="0"/>
        <pt x="298" y="-230" on="0"/>
        <pt x="247" y="-175" on="0"/>
        <pt x="247" y="-133" on="1"/>
        <pt x="247" y="-59" on="0"/>
        <pt x="329" y="0" on="1"/>
        <pt x="383" y="0" on="1"/>
        <pt x="307" y="-53" on="0"/>
      </contour>
    </TTGlyph>
    <TTGlyph name="Uring" xMin="70" yMin="-12" xMax="590" yMax="940">
      <contour>
        <pt x="156" y="691" on="1"/>
        <pt x="156" y="222" on="1"/>
        <pt x="156" y="146" on="0"/>
        <pt x="209" y="99" on="1"/>
        <pt x="251" y="61" on="0"/>
        <pt x="330" y="61" on="1"/>
        <pt x="439" y="61" on="0"/>
        <pt x="482" y="138" on="1"/>
        <pt x="504" y="176" on="0"/>
        <pt x="504" y="222" on="1"/>
        <pt x="504" y="691" on="1"/>
        <pt x="590" y="691" on="1"/>
        <pt x="590" y="222" on="1"/>
        <pt x="590" y="119" on="0"/>
        <pt x="455" y="-12" on="0"/>
        <pt x="205" y="-12" on="0"/>
        <pt x="70" y="119" on="0"/>
        <pt x="70" y="222" on="1"/>
        <pt x="70" y="691" on="1"/>
      </contour>
      <contour>
        <pt x="329" y="781" on="1"/>
        <pt x="373" y="781" on="0"/>
        <pt x="373" y="890" on="0"/>
        <pt x="282" y="890" on="0"/>
        <pt x="282" y="840" on="1"/>
        <pt x="282" y="815" on="0"/>
        <pt x="306" y="781" on="0"/>
      </contour>
      <contour>
        <pt x="225" y="792" on="0"/>
        <pt x="225" y="878" on="0"/>
        <pt x="286" y="940" on="0"/>
        <pt x="373" y="940" on="0"/>
        <pt x="434" y="879" on="0"/>
        <pt x="434" y="792" on="0"/>
        <pt x="374" y="731" on="0"/>
        <pt x="286" y="731" on="0"/>
      </contour>
    </TTGlyph>
    <TTGlyph name="Utilde" xMin="70" yMin="-12" xMax="590" yMax="890">
      <contour>
        <pt x="156" y="691" on="1"/>
        <pt x="156" y="222" on="1"/>
        <pt x="156" y="146" on="0"/>
        <pt x="209" y="99" on="1"/>
        <pt x="251" y="61" on="0"/>
        <pt x="330" y="61" on="1"/>
        <pt x="439" y="61" on="0"/>
        <pt x="482" y="138" on="1"/>
        <pt x="504" y="176" on="0"/>
        <pt x="504" y="222" on="1"/>
        <pt x="504" y="691" on="1"/>
        <pt x="590" y="691" on="1"/>
        <pt x="590" y="222" on="1"/>
        <pt x="590" y="119" on="0"/>
        <pt x="455" y="-12" on="0"/>
        <pt x="205" y="-12" on="0"/>
        <pt x="70" y="119" on="0"/>
        <pt x="70" y="222" on="1"/>
        <pt x="70" y="691" on="1"/>
      </contour>
      <contour>
        <pt x="395" y="780" on="1"/>
        <pt x="370" y="780" on="0"/>
        <pt x="274" y="812" on="0"/>
        <pt x="255" y="812" on="1"/>
        <pt x="221" y="812" on="0"/>
        <pt x="206" y="775" on="1"/>
        <pt x="167" y="792" on="1"/>
        <pt x="198" y="885" on="0"/>
        <pt x="264" y="885" on="1"/>
        <pt x="289" y="885" on="0"/>
        <pt x="385" y="853" on="0"/>
        <pt x="404" y="853" on="1"/>
        <pt x="438" y="853" on="0"/>
        <pt x="453" y="890" on="1"/>
        <pt x="492" y="873" on="1"/>
        <pt x="461" y="780" on="0"/>
      </contour>
    </TTGlyph>
    <TTGlyph name="V" xMin="5" yMin="0" xMax="580" yMax="691">
      <contour>
        <pt x="100" y="691" on="1"/>
        <pt x="294" y="95" on="1"/>
        <pt x="299" y="95" on="1"/>
        <pt x="495" y="691" on="1"/>
        <pt x="580" y="691" on="1"/>
        <pt x="354" y="0" on="1"/>
        <pt x="234" y="0" on="1"/>
        <pt x="5" y="691" on="1"/>
      </contour>
    </TTGlyph>
    <TTGlyph name="W" xMin="5" yMin="0" xMax="868" yMax="691">
      <contour>
        <pt x="485" y="691" on="1"/>
        <pt x="630" y="95" on="1"/>
        <pt x="634" y="95" on="1"/>
        <pt x="780" y="691" on="1"/>
        <pt x="868" y="691" on="1"/>
        <pt x="692" y="0" on="1"/>
        <pt x="569" y="0" on="1"/>
        <pt x="438" y="514" on="1"/>
        <pt x="434" y="514" on="1"/>
        <pt x="304" y="0" on="1"/>
        <pt x="184" y="0" on="1"/>
        <pt x="5" y="691" on="1"/>
        <pt x="103" y="691" on="1"/>
        <pt x="248" y="95" on="1"/>
        <pt x="252" y="95" on="1"/>
        <pt x="398" y="691" on="1"/>
      </contour>
    </TTGlyph>
    <TTGlyph name="Wacute" xMin="5" yMin="0" xMax="868" yMax="926">
      <contour>
        <pt x="485" y="691" on="1"/>
        <pt x="630" y="95" on="1"/>
        <pt x="634" y="95" on="1"/>
        <pt x="780" y="691" on="1"/>
        <pt x="868" y="691" on="1"/>
        <pt x="692" y="0" on="1"/>
        <pt x="569" y="0" on="1"/>
        <pt x="438" y="514" on="1"/>
        <pt x="434" y="514" on="1"/>
        <pt x="304" y="0" on="1"/>
        <pt x="184" y="0" on="1"/>
        <pt x="5" y="691" on="1"/>
        <pt x="103" y="691" on="1"/>
        <pt x="248" y="95" on="1"/>
        <pt x="252" y="95" on="1"/>
        <pt x="398" y="691" on="1"/>
      </contour>
      <contour>
        <pt x="451" y="742" on="1"/>
        <pt x="387" y="742" on="1"/>
        <pt x="514" y="926" on="1"/>
        <pt x="586" y="872" on="1"/>
      </contour>
    </TTGlyph>
    <TTGlyph name="Wcircumflex" xMin="5" yMin="0" xMax="868" yMax="924">
      <contour>
        <pt x="485" y="691" on="1"/>
        <pt x="630" y="95" on="1"/>
        <pt x="634" y="95" on="1"/>
        <pt x="780" y="691" on="1"/>
        <pt x="868" y="691" on="1"/>
        <pt x="692" y="0" on="1"/>
        <pt x="569" y="0" on="1"/>
        <pt x="438" y="514" on="1"/>
        <pt x="434" y="514" on="1"/>
        <pt x="304" y="0" on="1"/>
        <pt x="184" y="0" on="1"/>
        <pt x="5" y="691" on="1"/>
        <pt x="103" y="691" on="1"/>
        <pt x="248" y="95" on="1"/>
        <pt x="252" y="95" on="1"/>
        <pt x="398" y="691" on="1"/>
      </contour>
      <contour>
        <pt x="555" y="742" on="1"/>
        <pt x="502" y="742" on="1"/>
        <pt x="438" y="826" on="1"/>
        <pt x="433" y="826" on="1"/>
        <pt x="370" y="742" on="1"/>
        <pt x="317" y="742" on="1"/>
        <pt x="414" y="924" on="1"/>
        <pt x="458" y="924" on="1"/>
      </contour>
    </TTGlyph>
    <TTGlyph name="Wdieresis" xMin="5" yMin="0" xMax="868" yMax="888">
      <contour>
        <pt x="485" y="691" on="1"/>
        <pt x="630" y="95" on="1"/>
        <pt x="634" y="95" on="1"/>
        <pt x="780" y="691" on="1"/>
        <pt x="868" y="691" on="1"/>
        <pt x="692" y="0" on="1"/>
        <pt x="569" y="0" on="1"/>
        <pt x="438" y="514" on="1"/>
        <pt x="434" y="514" on="1"/>
        <pt x="304" y="0" on="1"/>
        <pt x="184" y="0" on="1"/>
        <pt x="5" y="691" on="1"/>
        <pt x="103" y="691" on="1"/>
        <pt x="248" y="95" on="1"/>
        <pt x="252" y="95" on="1"/>
        <pt x="398" y="691" on="1"/>
      </contour>
      <contour>
        <pt x="369" y="776" on="0"/>
        <pt x="323" y="776" on="0"/>
        <pt x="291" y="809" on="0"/>
        <pt x="291" y="856" on="0"/>
        <pt x="324" y="888" on="0"/>
        <pt x="368" y="888" on="0"/>
        <pt x="401" y="856" on="0"/>
        <pt x="401" y="809" on="0"/>
      </contour>
      <contour>
        <pt x="549" y="776" on="0"/>
        <pt x="503" y="776" on="0"/>
        <pt x="471" y="809" on="0"/>
        <pt x="471" y="856" on="0"/>
        <pt x="504" y="888" on="0"/>
        <pt x="548" y="888" on="0"/>
        <pt x="581" y="856" on="0"/>
        <pt x="581" y="809" on="0"/>
      </contour>
    </TTGlyph>
    <TTGlyph name="Wgrave" xMin="5" yMin="0" xMax="868" yMax="926">
      <contour>
        <pt x="485" y="691" on="1"/>
        <pt x="630" y="95" on="1"/>
        <pt x="634" y="95" on="1"/>
        <pt x="780" y="691" on="1"/>
        <pt x="868" y="691" on="1"/>
        <pt x="692" y="0" on="1"/>
        <pt x="569" y="0" on="1"/>
        <pt x="438" y="514" on="1"/>
        <pt x="434" y="514" on="1"/>
        <pt x="304" y="0" on="1"/>
        <pt x="184" y="0" on="1"/>
        <pt x="5" y="691" on="1"/>
        <pt x="103" y="691" on="1"/>
        <pt x="248" y="95" on="1"/>
        <pt x="252" y="95" on="1"/>
        <pt x="398" y="691" on="1"/>
      </contour>
      <contour>
        <pt x="497" y="742" on="1"/>
        <pt x="433" y="742" on="1"/>
        <pt x="298" y="872" on="1"/>
        <pt x="370" y="926" on="1"/>
      </contour>
    </TTGlyph>
    <TTGlyph name="X" xMin="25" yMin="0" xMax="644" yMax="691">
      <contour>
        <pt x="45" y="691" on="1"/>
        <pt x="152" y="691" on="1"/>
        <pt x="335" y="433" on="1"/>
        <pt x="514" y="691" on="1"/>
        <pt x="620" y="691" on="1"/>
        <pt x="386" y="361" on="1"/>
        <pt x="644" y="0" on="1"/>
        <pt x="532" y="0" on="1"/>
        <pt x="329" y="287" on="1"/>
        <pt x="131" y="0" on="1"/>
        <pt x="25" y="0" on="1"/>
        <pt x="279" y="359" on="1"/>
      </contour>
    </TTGlyph>
    <TTGlyph name="Y" xMin="5" yMin="0" xMax="553" yMax="691">
      <contour>
        <pt x="318" y="0" on="1"/>
        <pt x="232" y="0" on="1"/>
        <pt x="232" y="247" on="1"/>
        <pt x="5" y="691" on="1"/>
        <pt x="100" y="691" on="1"/>
        <pt x="276" y="342" on="1"/>
        <pt x="281" y="342" on="1"/>
        <pt x="459" y="691" on="1"/>
        <pt x="553" y="691" on="1"/>
        <pt x="318" y="247" on="1"/>
      </contour>
    </TTGlyph>
    <TTGlyph name="Yacute" xMin="5" yMin="0" xMax="553" yMax="926">
      <contour>
        <pt x="318" y="0" on="1"/>
        <pt x="232" y="0" on="1"/>
        <pt x="232" y="247" on="1"/>
        <pt x="5" y="691" on="1"/>
        <pt x="100" y="691" on="1"/>
        <pt x="276" y="342" on="1"/>
        <pt x="281" y="342" on="1"/>
        <pt x="459" y="691" on="1"/>
        <pt x="553" y="691" on="1"/>
        <pt x="318" y="247" on="1"/>
      </contour>
      <contour>
        <pt x="284" y="742" on="1"/>
        <pt x="220" y="742" on="1"/>
        <pt x="347" y="926" on="1"/>
        <pt x="419" y="872" on="1"/>
      </contour>
    </TTGlyph>
    <TTGlyph name="Ycircumflex" xMin="5" yMin="0" xMax="553" yMax="924">
      <contour>
        <pt x="318" y="0" on="1"/>
        <pt x="232" y="0" on="1"/>
        <pt x="232" y="247" on="1"/>
        <pt x="5" y="691" on="1"/>
        <pt x="100" y="691" on="1"/>
        <pt x="276" y="342" on="1"/>
        <pt x="281" y="342" on="1"/>
        <pt x="459" y="691" on="1"/>
        <pt x="553" y="691" on="1"/>
        <pt x="318" y="247" on="1"/>
      </contour>
      <contour>
        <pt x="398" y="742" on="1"/>
        <pt x="345" y="742" on="1"/>
        <pt x="281" y="826" on="1"/>
        <pt x="276" y="826" on="1"/>
        <pt x="213" y="742" on="1"/>
        <pt x="160" y="742" on="1"/>
        <pt x="257" y="924" on="1"/>
        <pt x="301" y="924" on="1"/>
      </contour>
    </TTGlyph>
    <TTGlyph name="Ydieresis" xMin="5" yMin="0" xMax="553" yMax="888">
      <contour>
        <pt x="318" y="0" on="1"/>
        <pt x="232" y="0" on="1"/>
        <pt x="232" y="247" on="1"/>
        <pt x="5" y="691" on="1"/>
        <pt x="100" y="691" on="1"/>
        <pt x="276" y="342" on="1"/>
        <pt x="281" y="342" on="1"/>
        <pt x="459" y="691" on="1"/>
        <pt x="553" y="691" on="1"/>
        <pt x="318" y="247" on="1"/>
      </contour>
      <contour>
        <pt x="212" y="776" on="0"/>
        <pt x="166" y="776" on="0"/>
        <pt x="134" y="809" on="0"/>
        <pt x="134" y="856" on="0"/>
        <pt x="166" y="888" on="0"/>
        <pt x="212" y="888" on="0"/>
        <pt x="244" y="856" on="0"/>
        <pt x="244" y="809" on="0"/>
      </contour>
      <contour>
        <pt x="392" y="776" on="0"/>
        <pt x="346" y="776" on="0"/>
        <pt x="314" y="809" on="0"/>
        <pt x="314" y="856" on="0"/>
        <pt x="346" y="888" on="0"/>
        <pt x="392" y="888" on="0"/>
        <pt x="424" y="856" on="0"/>
        <pt x="424" y="809" on="0"/>
      </contour>
    </TTGlyph>
    <TTGlyph name="Ygrave" xMin="5" yMin="0" xMax="553" yMax="926">
      <contour>
        <pt x="318" y="0" on="1"/>
        <pt x="232" y="0" on="1"/>
        <pt x="232" y="247" on="1"/>
        <pt x="5" y="691" on="1"/>
        <pt x="100" y="691" on="1"/>
        <pt x="276" y="342" on="1"/>
        <pt x="281" y="342" on="1"/>
        <pt x="459" y="691" on="1"/>
        <pt x="553" y="691" on="1"/>
        <pt x="318" y="247" on="1"/>
      </contour>
      <contour>
        <pt x="332" y="742" on="1"/>
        <pt x="268" y="742" on="1"/>
        <pt x="133" y="872" on="1"/>
        <pt x="205" y="926" on="1"/>
      </contour>
    </TTGlyph>
    <TTGlyph name="Z" xMin="30" yMin="0" xMax="575" yMax="691">
      <contour>
        <pt x="572" y="76" on="1"/>
        <pt x="572" y="0" on="1"/>
        <pt x="48" y="0" on="1"/>
        <pt x="30" y="53" on="1"/>
        <pt x="456" y="615" on="1"/>
        <pt x="84" y="615" on="1"/>
        <pt x="65" y="691" on="1"/>
        <pt x="555" y="691" on="1"/>
        <pt x="575" y="631" on="1"/>
        <pt x="157" y="76" on="1"/>
      </contour>
    </TTGlyph>
    <TTGlyph name="Zacute" xMin="30" yMin="0" xMax="575" yMax="926">
      <contour>
        <pt x="572" y="76" on="1"/>
        <pt x="572" y="0" on="1"/>
        <pt x="48" y="0" on="1"/>
        <pt x="30" y="53" on="1"/>
        <pt x="456" y="615" on="1"/>
        <pt x="84" y="615" on="1"/>
        <pt x="65" y="691" on="1"/>
        <pt x="555" y="691" on="1"/>
        <pt x="575" y="631" on="1"/>
        <pt x="157" y="76" on="1"/>
      </contour>
      <contour>
        <pt x="331" y="742" on="1"/>
        <pt x="267" y="742" on="1"/>
        <pt x="394" y="926" on="1"/>
        <pt x="466" y="872" on="1"/>
      </contour>
    </TTGlyph>
    <TTGlyph name="Zcaron" xMin="30" yMin="0" xMax="575" yMax="920">
      <contour>
        <pt x="572" y="76" on="1"/>
        <pt x="572" y="0" on="1"/>
        <pt x="48" y="0" on="1"/>
        <pt x="30" y="53" on="1"/>
        <pt x="456" y="615" on="1"/>
        <pt x="84" y="615" on="1"/>
        <pt x="65" y="691" on="1"/>
        <pt x="555" y="691" on="1"/>
        <pt x="575" y="631" on="1"/>
        <pt x="157" y="76" on="1"/>
      </contour>
      <contour>
        <pt x="326" y="836" on="1"/>
        <pt x="390" y="920" on="1"/>
        <pt x="443" y="920" on="1"/>
        <pt x="346" y="738" on="1"/>
        <pt x="302" y="738" on="1"/>
        <pt x="205" y="920" on="1"/>
        <pt x="258" y="920" on="1"/>
        <pt x="321" y="836" on="1"/>
      </contour>
    </TTGlyph>
    <TTGlyph name="Zdotaccent" xMin="30" yMin="0" xMax="575" yMax="888">
      <contour>
        <pt x="572" y="76" on="1"/>
        <pt x="572" y="0" on="1"/>
        <pt x="48" y="0" on="1"/>
        <pt x="30" y="53" on="1"/>
        <pt x="456" y="615" on="1"/>
        <pt x="84" y="615" on="1"/>
        <pt x="65" y="691" on="1"/>
        <pt x="555" y="691" on="1"/>
        <pt x="575" y="631" on="1"/>
        <pt x="157" y="76" on="1"/>
      </contour>
      <contour>
        <pt x="355" y="776" on="0"/>
        <pt x="309" y="776" on="0"/>
        <pt x="277" y="809" on="0"/>
        <pt x="277" y="856" on="0"/>
        <pt x="310" y="888" on="0"/>
        <pt x="354" y="888" on="0"/>
        <pt x="387" y="856" on="0"/>
        <pt x="387" y="809" on="0"/>
      </contour>
    </TTGlyph>
    <TTGlyph name="a" xMin="36" yMin="-12" xMax="407" yMax="468">
      <contour>
        <pt x="322" y="273" on="1"/>
        <pt x="322" y="317" on="1"/>
        <pt x="322" y="398" on="0"/>
        <pt x="238" y="398" on="1"/>
        <pt x="172" y="398" on="0"/>
        <pt x="100" y="355" on="1"/>
        <pt x="71" y="415" on="1"/>
        <pt x="155" y="468" on="0"/>
        <pt x="252" y="468" on="1"/>
        <pt x="320" y="468" on="0"/>
        <pt x="407" y="399" on="0"/>
        <pt x="407" y="327" on="1"/>
        <pt x="407" y="0" on="1"/>
        <pt x="353" y="0" on="1"/>
        <pt x="328" y="60" on="1"/>
        <pt x="296" y="27" on="0"/>
        <pt x="208" y="-12" on="0"/>
        <pt x="172" y="-12" on="1"/>
        <pt x="110" y="-12" on="0"/>
        <pt x="36" y="56" on="0"/>
        <pt x="36" y="111" on="1"/>
        <pt x="36" y="273" on="0"/>
      </contour>
      <contour>
        <pt x="137" y="159" on="0"/>
        <pt x="124" y="132" on="0"/>
        <pt x="124" y="89" on="0"/>
        <pt x="161" y="58" on="0"/>
        <pt x="191" y="58" on="1"/>
        <pt x="254" y="58" on="0"/>
        <pt x="322" y="114" on="1"/>
        <pt x="322" y="214" on="1"/>
        <pt x="196" y="212" on="0"/>
        <pt x="156" y="176" on="1"/>
      </contour>
    </TTGlyph>
    <TTGlyph name="aacute" xMin="36" yMin="-12" xMax="407" yMax="697">
      <contour>
        <pt x="322" y="273" on="1"/>
        <pt x="322" y="317" on="1"/>
        <pt x="322" y="398" on="0"/>
        <pt x="238" y="398" on="1"/>
        <pt x="172" y="398" on="0"/>
        <pt x="100" y="355" on="1"/>
        <pt x="71" y="415" on="1"/>
        <pt x="155" y="468" on="0"/>
        <pt x="252" y="468" on="1"/>
        <pt x="320" y="468" on="0"/>
        <pt x="407" y="399" on="0"/>
        <pt x="407" y="327" on="1"/>
        <pt x="407" y="0" on="1"/>
        <pt x="353" y="0" on="1"/>
        <pt x="328" y="60" on="1"/>
        <pt x="296" y="27" on="0"/>
        <pt x="208" y="-12" on="0"/>
        <pt x="172" y="-12" on="1"/>
        <pt x="110" y="-12" on="0"/>
        <pt x="36" y="56" on="0"/>
        <pt x="36" y="111" on="1"/>
        <pt x="36" y="273" on="0"/>
      </contour>
      <contour>
        <pt x="137" y="159" on="0"/>
        <pt x="124" y="132" on="0"/>
        <pt x="124" y="89" on="0"/>
        <pt x="161" y="58" on="0"/>
        <pt x="191" y="58" on="1"/>
        <pt x="254" y="58" on="0"/>
        <pt x="322" y="114" on="1"/>
        <pt x="322" y="214" on="1"/>
        <pt x="196" y="212" on="0"/>
        <pt x="156" y="176" on="1"/>
      </contour>
      <contour>
        <pt x="259" y="513" on="1"/>
        <pt x="195" y="513" on="1"/>
        <pt x="322" y="697" on="1"/>
        <pt x="394" y="643" on="1"/>
      </contour>
    </TTGlyph>
    <TTGlyph name="abreve" xMin="36" yMin="-12" xMax="407" yMax="657">
      <contour>
        <pt x="322" y="273" on="1"/>
        <pt x="322" y="317" on="1"/>
        <pt x="322" y="398" on="0"/>
        <pt x="238" y="398" on="1"/>
        <pt x="172" y="398" on="0"/>
        <pt x="100" y="355" on="1"/>
        <pt x="71" y="415" on="1"/>
        <pt x="155" y="468" on="0"/>
        <pt x="252" y="468" on="1"/>
        <pt x="320" y="468" on="0"/>
        <pt x="407" y="399" on="0"/>
        <pt x="407" y="327" on="1"/>
        <pt x="407" y="0" on="1"/>
        <pt x="353" y="0" on="1"/>
        <pt x="328" y="60" on="1"/>
        <pt x="296" y="27" on="0"/>
        <pt x="208" y="-12" on="0"/>
        <pt x="172" y="-12" on="1"/>
        <pt x="110" y="-12" on="0"/>
        <pt x="36" y="56" on="0"/>
        <pt x="36" y="111" on="1"/>
        <pt x="36" y="273" on="0"/>
      </contour>
      <contour>
        <pt x="137" y="159" on="0"/>
        <pt x="124" y="132" on="0"/>
        <pt x="124" y="89" on="0"/>
        <pt x="161" y="58" on="0"/>
        <pt x="191" y="58" on="1"/>
        <pt x="254" y="58" on="0"/>
        <pt x="322" y="114" on="1"/>
        <pt x="322" y="214" on="1"/>
        <pt x="196" y="212" on="0"/>
        <pt x="156" y="176" on="1"/>
      </contour>
      <contour>
        <pt x="370" y="605" on="0"/>
        <pt x="293" y="530" on="0"/>
        <pt x="184" y="530" on="0"/>
        <pt x="106" y="605" on="0"/>
        <pt x="102" y="657" on="1"/>
        <pt x="173" y="657" on="1"/>
        <pt x="183" y="596" on="0"/>
        <pt x="293" y="596" on="0"/>
        <pt x="303" y="657" on="1"/>
        <pt x="373" y="657" on="1"/>
      </contour>
    </TTGlyph>
    <TTGlyph name="acircumflex" xMin="36" yMin="-12" xMax="407" yMax="695">
      <contour>
        <pt x="322" y="273" on="1"/>
        <pt x="322" y="317" on="1"/>
        <pt x="322" y="398" on="0"/>
        <pt x="238" y="398" on="1"/>
        <pt x="172" y="398" on="0"/>
        <pt x="100" y="355" on="1"/>
        <pt x="71" y="415" on="1"/>
        <pt x="155" y="468" on="0"/>
        <pt x="252" y="468" on="1"/>
        <pt x="320" y="468" on="0"/>
        <pt x="407" y="399" on="0"/>
        <pt x="407" y="327" on="1"/>
        <pt x="407" y="0" on="1"/>
        <pt x="353" y="0" on="1"/>
        <pt x="328" y="60" on="1"/>
        <pt x="296" y="27" on="0"/>
        <pt x="208" y="-12" on="0"/>
        <pt x="172" y="-12" on="1"/>
        <pt x="110" y="-12" on="0"/>
        <pt x="36" y="56" on="0"/>
        <pt x="36" y="111" on="1"/>
        <pt x="36" y="273" on="0"/>
      </contour>
      <contour>
        <pt x="137" y="159" on="0"/>
        <pt x="124" y="132" on="0"/>
        <pt x="124" y="89" on="0"/>
        <pt x="161" y="58" on="0"/>
        <pt x="191" y="58" on="1"/>
        <pt x="254" y="58" on="0"/>
        <pt x="322" y="114" on="1"/>
        <pt x="322" y="214" on="1"/>
        <pt x="196" y="212" on="0"/>
        <pt x="156" y="176" on="1"/>
      </contour>
      <contour>
        <pt x="366" y="513" on="1"/>
        <pt x="313" y="513" on="1"/>
        <pt x="249" y="597" on="1"/>
        <pt x="244" y="597" on="1"/>
        <pt x="181" y="513" on="1"/>
        <pt x="128" y="513" on="1"/>
        <pt x="225" y="695" on="1"/>
        <pt x="269" y="695" on="1"/>
      </contour>
    </TTGlyph>
    <TTGlyph name="acute" xMin="72" yMin="513" xMax="271" yMax="697">
      <contour>
        <pt x="136" y="513" on="1"/>
        <pt x="72" y="513" on="1"/>
        <pt x="199" y="697" on="1"/>
        <pt x="271" y="643" on="1"/>
      </contour>
    </TTGlyph>
    <TTGlyph name="acute.case" xMin="72" yMin="742" xMax="271" yMax="926">
      <contour>
        <pt x="136" y="742" on="1"/>
        <pt x="72" y="742" on="1"/>
        <pt x="199" y="926" on="1"/>
        <pt x="271" y="872" on="1"/>
      </contour>
    </TTGlyph>
    <TTGlyph name="adieresis" xMin="36" yMin="-12" xMax="407" yMax="659">
      <contour>
        <pt x="322" y="273" on="1"/>
        <pt x="322" y="317" on="1"/>
        <pt x="322" y="398" on="0"/>
        <pt x="238" y="398" on="1"/>
        <pt x="172" y="398" on="0"/>
        <pt x="100" y="355" on="1"/>
        <pt x="71" y="415" on="1"/>
        <pt x="155" y="468" on="0"/>
        <pt x="252" y="468" on="1"/>
        <pt x="320" y="468" on="0"/>
        <pt x="407" y="399" on="0"/>
        <pt x="407" y="327" on="1"/>
        <pt x="407" y="0" on="1"/>
        <pt x="353" y="0" on="1"/>
        <pt x="328" y="60" on="1"/>
        <pt x="296" y="27" on="0"/>
        <pt x="208" y="-12" on="0"/>
        <pt x="172" y="-12" on="1"/>
        <pt x="110" y="-12" on="0"/>
        <pt x="36" y="56" on="0"/>
        <pt x="36" y="111" on="1"/>
        <pt x="36" y="273" on="0"/>
      </contour>
      <contour>
        <pt x="137" y="159" on="0"/>
        <pt x="124" y="132" on="0"/>
        <pt x="124" y="89" on="0"/>
        <pt x="161" y="58" on="0"/>
        <pt x="191" y="58" on="1"/>
        <pt x="254" y="58" on="0"/>
        <pt x="322" y="114" on="1"/>
        <pt x="322" y="214" on="1"/>
        <pt x="196" y="212" on="0"/>
        <pt x="156" y="176" on="1"/>
      </contour>
      <contour>
        <pt x="181" y="547" on="0"/>
        <pt x="135" y="547" on="0"/>
        <pt x="103" y="580" on="0"/>
        <pt x="103" y="626" on="0"/>
        <pt x="136" y="659" on="0"/>
        <pt x="180" y="659" on="0"/>
        <pt x="213" y="626" on="0"/>
        <pt x="213" y="580" on="0"/>
      </contour>
      <contour>
        <pt x="361" y="547" on="0"/>
        <pt x="315" y="547" on="0"/>
        <pt x="283" y="580" on="0"/>
        <pt x="283" y="626" on="0"/>
        <pt x="316" y="659" on="0"/>
        <pt x="360" y="659" on="0"/>
        <pt x="393" y="626" on="0"/>
        <pt x="393" y="580" on="0"/>
      </contour>
    </TTGlyph>
    <TTGlyph name="ae" xMin="36" yMin="-12" xMax="721" yMax="468">
      <contour>
        <pt x="536" y="58" on="1"/>
        <pt x="608" y="58" on="0"/>
        <pt x="680" y="101" on="1"/>
        <pt x="709" y="41" on="1"/>
        <pt x="625" y="-12" on="0"/>
        <pt x="528" y="-12" on="1"/>
        <pt x="413" y="-12" on="0"/>
        <pt x="361" y="71" on="1"/>
        <pt x="316" y="26" on="0"/>
        <pt x="212" y="-12" on="0"/>
        <pt x="172" y="-12" on="1"/>
        <pt x="110" y="-12" on="0"/>
        <pt x="36" y="56" on="0"/>
        <pt x="36" y="111" on="1"/>
        <pt x="36" y="273" on="0"/>
        <pt x="322" y="273" on="1"/>
        <pt x="322" y="317" on="1"/>
        <pt x="322" y="398" on="0"/>
        <pt x="238" y="398" on="1"/>
        <pt x="172" y="398" on="0"/>
        <pt x="100" y="355" on="1"/>
        <pt x="71" y="415" on="1"/>
        <pt x="155" y="468" on="0"/>
        <pt x="346" y="468" on="0"/>
        <pt x="386" y="408" on="1"/>
        <pt x="443" y="468" on="0"/>
        <pt x="534" y="468" on="1"/>
        <pt x="621" y="468" on="0"/>
        <pt x="672" y="414" on="1"/>
        <pt x="692" y="392" on="0"/>
        <pt x="721" y="308" on="0"/>
        <pt x="721" y="251" on="1"/>
        <pt x="690" y="216" on="1"/>
        <pt x="407" y="216" on="1"/>
        <pt x="410" y="58" on="0"/>
      </contour>
      <contour>
        <pt x="137" y="159" on="0"/>
        <pt x="124" y="132" on="0"/>
        <pt x="124" y="89" on="0"/>
        <pt x="161" y="58" on="0"/>
        <pt x="191" y="58" on="1"/>
        <pt x="254" y="58" on="0"/>
        <pt x="322" y="114" on="1"/>
        <pt x="322" y="214" on="1"/>
        <pt x="196" y="212" on="0"/>
        <pt x="156" y="176" on="1"/>
      </contour>
      <contour>
        <pt x="637" y="335" on="0"/>
        <pt x="579" y="403" on="0"/>
        <pt x="484" y="403" on="0"/>
        <pt x="418" y="336" on="0"/>
        <pt x="411" y="279" on="1"/>
        <pt x="637" y="279" on="1"/>
      </contour>
    </TTGlyph>
    <TTGlyph name="aeacute" xMin="36" yMin="-12" xMax="721" yMax="697">
      <contour>
        <pt x="536" y="58" on="1"/>
        <pt x="608" y="58" on="0"/>
        <pt x="680" y="101" on="1"/>
        <pt x="709" y="41" on="1"/>
        <pt x="625" y="-12" on="0"/>
        <pt x="528" y="-12" on="1"/>
        <pt x="413" y="-12" on="0"/>
        <pt x="361" y="71" on="1"/>
        <pt x="316" y="26" on="0"/>
        <pt x="212" y="-12" on="0"/>
        <pt x="172" y="-12" on="1"/>
        <pt x="110" y="-12" on="0"/>
        <pt x="36" y="56" on="0"/>
        <pt x="36" y="111" on="1"/>
        <pt x="36" y="273" on="0"/>
        <pt x="322" y="273" on="1"/>
        <pt x="322" y="317" on="1"/>
        <pt x="322" y="398" on="0"/>
        <pt x="238" y="398" on="1"/>
        <pt x="172" y="398" on="0"/>
        <pt x="100" y="355" on="1"/>
        <pt x="71" y="415" on="1"/>
        <pt x="155" y="468" on="0"/>
        <pt x="346" y="468" on="0"/>
        <pt x="386" y="408" on="1"/>
        <pt x="443" y="468" on="0"/>
        <pt x="534" y="468" on="1"/>
        <pt x="621" y="468" on="0"/>
        <pt x="672" y="414" on="1"/>
        <pt x="692" y="392" on="0"/>
        <pt x="721" y="308" on="0"/>
        <pt x="721" y="251" on="1"/>
        <pt x="690" y="216" on="1"/>
        <pt x="407" y="216" on="1"/>
        <pt x="410" y="58" on="0"/>
      </contour>
      <contour>
        <pt x="137" y="159" on="0"/>
        <pt x="124" y="132" on="0"/>
        <pt x="124" y="89" on="0"/>
        <pt x="161" y="58" on="0"/>
        <pt x="191" y="58" on="1"/>
        <pt x="254" y="58" on="0"/>
        <pt x="322" y="114" on="1"/>
        <pt x="322" y="214" on="1"/>
        <pt x="196" y="212" on="0"/>
        <pt x="156" y="176" on="1"/>
      </contour>
      <contour>
        <pt x="637" y="335" on="0"/>
        <pt x="579" y="403" on="0"/>
        <pt x="484" y="403" on="0"/>
        <pt x="418" y="336" on="0"/>
        <pt x="411" y="279" on="1"/>
        <pt x="637" y="279" on="1"/>
      </contour>
      <contour>
        <pt x="397" y="513" on="1"/>
        <pt x="333" y="513" on="1"/>
        <pt x="460" y="697" on="1"/>
        <pt x="532" y="643" on="1"/>
      </contour>
    </TTGlyph>
    <TTGlyph name="agrave" xMin="36" yMin="-12" xMax="407" yMax="697">
      <contour>
        <pt x="322" y="273" on="1"/>
        <pt x="322" y="317" on="1"/>
        <pt x="322" y="398" on="0"/>
        <pt x="238" y="398" on="1"/>
        <pt x="172" y="398" on="0"/>
        <pt x="100" y="355" on="1"/>
        <pt x="71" y="415" on="1"/>
        <pt x="155" y="468" on="0"/>
        <pt x="252" y="468" on="1"/>
        <pt x="320" y="468" on="0"/>
        <pt x="407" y="399" on="0"/>
        <pt x="407" y="327" on="1"/>
        <pt x="407" y="0" on="1"/>
        <pt x="353" y="0" on="1"/>
        <pt x="328" y="60" on="1"/>
        <pt x="296" y="27" on="0"/>
        <pt x="208" y="-12" on="0"/>
        <pt x="172" y="-12" on="1"/>
        <pt x="110" y="-12" on="0"/>
        <pt x="36" y="56" on="0"/>
        <pt x="36" y="111" on="1"/>
        <pt x="36" y="273" on="0"/>
      </contour>
      <contour>
        <pt x="137" y="159" on="0"/>
        <pt x="124" y="132" on="0"/>
        <pt x="124" y="89" on="0"/>
        <pt x="161" y="58" on="0"/>
        <pt x="191" y="58" on="1"/>
        <pt x="254" y="58" on="0"/>
        <pt x="322" y="114" on="1"/>
        <pt x="322" y="214" on="1"/>
        <pt x="196" y="212" on="0"/>
        <pt x="156" y="176" on="1"/>
      </contour>
      <contour>
        <pt x="322" y="513" on="1"/>
        <pt x="258" y="513" on="1"/>
        <pt x="123" y="643" on="1"/>
        <pt x="195" y="697" on="1"/>
      </contour>
    </TTGlyph>
    <TTGlyph name="amacron" xMin="36" yMin="-12" xMax="407" yMax="635">
      <contour>
        <pt x="322" y="273" on="1"/>
        <pt x="322" y="317" on="1"/>
        <pt x="322" y="398" on="0"/>
        <pt x="238" y="398" on="1"/>
        <pt x="172" y="398" on="0"/>
        <pt x="100" y="355" on="1"/>
        <pt x="71" y="415" on="1"/>
        <pt x="155" y="468" on="0"/>
        <pt x="252" y="468" on="1"/>
        <pt x="320" y="468" on="0"/>
        <pt x="407" y="399" on="0"/>
        <pt x="407" y="327" on="1"/>
        <pt x="407" y="0" on="1"/>
        <pt x="353" y="0" on="1"/>
        <pt x="328" y="60" on="1"/>
        <pt x="296" y="27" on="0"/>
        <pt x="208" y="-12" on="0"/>
        <pt x="172" y="-12" on="1"/>
        <pt x="110" y="-12" on="0"/>
        <pt x="36" y="56" on="0"/>
        <pt x="36" y="111" on="1"/>
        <pt x="36" y="273" on="0"/>
      </contour>
      <contour>
        <pt x="137" y="159" on="0"/>
        <pt x="124" y="132" on="0"/>
        <pt x="124" y="89" on="0"/>
        <pt x="161" y="58" on="0"/>
        <pt x="191" y="58" on="1"/>
        <pt x="254" y="58" on="0"/>
        <pt x="322" y="114" on="1"/>
        <pt x="322" y="214" on="1"/>
        <pt x="196" y="212" on="0"/>
        <pt x="156" y="176" on="1"/>
      </contour>
      <contour>
        <pt x="377" y="635" on="1"/>
        <pt x="377" y="568" on="1"/>
        <pt x="97" y="568" on="1"/>
        <pt x="97" y="635" on="1"/>
      </contour>
    </TTGlyph>
    <TTGlyph name="ampersand" xMin="43" yMin="-21" xMax="655" yMax="725">
      <contour>
        <pt x="248" y="-12" on="1"/>
        <pt x="161" y="-12" on="0"/>
        <pt x="43" y="87" on="0"/>
        <pt x="43" y="180" on="1"/>
        <pt x="43" y="255" on="0"/>
        <pt x="126" y="353" on="0"/>
        <pt x="197" y="390" on="1"/>
        <pt x="139" y="481" on="0"/>
        <pt x="139" y="546" on="1"/>
        <pt x="139" y="632" on="0"/>
        <pt x="242" y="725" on="0"/>
        <pt x="385" y="725" on="0"/>
        <pt x="490" y="634" on="0"/>
        <pt x="490" y="556" on="1"/>
        <pt x="490" y="477" on="0"/>
        <pt x="436" y="432" on="1"/>
        <pt x="393" y="396" on="0"/>
        <pt x="318" y="361" on="1"/>
        <pt x="380" y="284" on="0"/>
        <pt x="474" y="196" on="1"/>
        <pt x="523" y="265" on="0"/>
        <pt x="543" y="351" on="1"/>
        <pt x="624" y="335" on="1"/>
        <pt x="598" y="222" on="0"/>
        <pt x="534" y="140" on="1"/>
        <pt x="593" y="87" on="0"/>
        <pt x="655" y="37" on="1"/>
        <pt x="599" y="-21" on="1"/>
        <pt x="536" y="30" on="0"/>
        <pt x="479" y="81" on="1"/>
        <pt x="373" y="-12" on="0"/>
      </contour>
      <contour>
        <pt x="248" y="62" on="1"/>
        <pt x="337" y="62" on="0"/>
        <pt x="420" y="136" on="1"/>
        <pt x="311" y="238" on="0"/>
        <pt x="242" y="327" on="1"/>
        <pt x="189" y="300" on="0"/>
        <pt x="131" y="233" on="0"/>
        <pt x="131" y="123" on="0"/>
        <pt x="198" y="62" on="0"/>
      </contour>
      <contour>
        <pt x="227" y="596" on="0"/>
        <pt x="227" y="496" on="0"/>
        <pt x="272" y="425" on="1"/>
        <pt x="371" y="470" on="0"/>
        <pt x="392" y="512" on="1"/>
        <pt x="402" y="532" on="0"/>
        <pt x="402" y="556" on="1"/>
        <pt x="402" y="600" on="0"/>
        <pt x="349" y="651" on="0"/>
        <pt x="278" y="651" on="0"/>
      </contour>
    </TTGlyph>
    <TTGlyph name="aogonek" xMin="36" yMin="-230" xMax="478" yMax="468">
      <contour>
        <pt x="322" y="273" on="1"/>
        <pt x="322" y="317" on="1"/>
        <pt x="322" y="398" on="0"/>
        <pt x="238" y="398" on="1"/>
        <pt x="172" y="398" on="0"/>
        <pt x="100" y="355" on="1"/>
        <pt x="71" y="415" on="1"/>
        <pt x="155" y="468" on="0"/>
        <pt x="252" y="468" on="1"/>
        <pt x="320" y="468" on="0"/>
        <pt x="407" y="399" on="0"/>
        <pt x="407" y="327" on="1"/>
        <pt x="407" y="0" on="1"/>
        <pt x="353" y="0" on="1"/>
        <pt x="328" y="60" on="1"/>
        <pt x="296" y="27" on="0"/>
        <pt x="208" y="-12" on="0"/>
        <pt x="172" y="-12" on="1"/>
        <pt x="110" y="-12" on="0"/>
        <pt x="36" y="56" on="0"/>
        <pt x="36" y="111" on="1"/>
        <pt x="36" y="273" on="0"/>
      </contour>
      <contour>
        <pt x="137" y="159" on="0"/>
        <pt x="124" y="132" on="0"/>
        <pt x="124" y="89" on="0"/>
        <pt x="161" y="58" on="0"/>
        <pt x="191" y="58" on="1"/>
        <pt x="254" y="58" on="0"/>
        <pt x="322" y="114" on="1"/>
        <pt x="322" y="214" on="1"/>
        <pt x="196" y="212" on="0"/>
        <pt x="156" y="176" on="1"/>
      </contour>
      <contour>
        <pt x="331" y="-109" on="1"/>
        <pt x="331" y="-137" on="0"/>
        <pt x="362" y="-165" on="0"/>
        <pt x="422" y="-165" on="0"/>
        <pt x="452" y="-143" on="1"/>
        <pt x="478" y="-187" on="1"/>
        <pt x="416" y="-230" on="0"/>
        <pt x="322" y="-230" on="0"/>
        <pt x="271" y="-175" on="0"/>
        <pt x="271" y="-133" on="1"/>
        <pt x="271" y="-59" on="0"/>
        <pt x="353" y="0" on="1"/>
        <pt x="407" y="0" on="1"/>
        <pt x="331" y="-53" on="0"/>
      </contour>
    </TTGlyph>
    <TTGlyph name="apple" xMin="100" yMin="-114" xMax="823" yMax="608">
      <contour>
        <pt x="589" y="-89" on="1"/>
        <pt x="566" y="-88" on="1"/>
        <pt x="552" y="-88" on="0"/>
        <pt x="517" y="-112" on="0"/>
        <pt x="508" y="-112" on="1"/>
        <pt x="462" y="-102" on="1"/>
        <pt x="454" y="-102" on="0"/>
        <pt x="423" y="-114" on="0"/>
        <pt x="406" y="-114" on="0"/>
        <pt x="374" y="-89" on="0"/>
        <pt x="361" y="-89" on="1"/>
        <pt x="337" y="-91" on="1"/>
        <pt x="322" y="-91" on="0"/>
        <pt x="304" y="-74" on="1"/>
        <pt x="286" y="-55" on="1"/>
        <pt x="274" y="-49" on="0"/>
        <pt x="248" y="-47" on="0"/>
        <pt x="230" y="-36" on="0"/>
        <pt x="216" y="-1" on="0"/>
        <pt x="205" y="8" on="0"/>
        <pt x="177" y="19" on="0"/>
        <pt x="171" y="28" on="1"/>
        <pt x="166" y="37" on="0"/>
        <pt x="162" y="66" on="0"/>
        <pt x="154" y="79" on="0"/>
        <pt x="144" y="86" on="1"/>
        <pt x="122" y="104" on="0"/>
        <pt x="122" y="124" on="1"/>
        <pt x="125" y="149" on="1"/>
        <pt x="125" y="158" on="0"/>
        <pt x="100" y="193" on="0"/>
        <pt x="100" y="211" on="0"/>
        <pt x="112" y="240" on="0"/>
        <pt x="112" y="257" on="0"/>
        <pt x="100" y="283" on="0"/>
        <pt x="100" y="301" on="0"/>
        <pt x="125" y="342" on="0"/>
        <pt x="125" y="351" on="1"/>
        <pt x="124" y="376" on="1"/>
        <pt x="124" y="391" on="0"/>
        <pt x="157" y="420" on="0"/>
        <pt x="162" y="430" on="0"/>
        <pt x="166" y="462" on="0"/>
        <pt x="174" y="474" on="0"/>
        <pt x="205" y="486" on="0"/>
        <pt x="215" y="496" on="0"/>
        <pt x="229" y="527" on="0"/>
        <pt x="242" y="538" on="0"/>
        <pt x="280" y="546" on="0"/>
        <pt x="291" y="552" on="0"/>
        <pt x="321" y="586" on="0"/>
        <pt x="335" y="587" on="1"/>
        <pt x="361" y="585" on="1"/>
        <pt x="374" y="585" on="0"/>
        <pt x="405" y="608" on="0"/>
        <pt x="416" y="608" on="1"/>
        <pt x="460" y="596" on="1"/>
        <pt x="505" y="608" on="1"/>
        <pt x="518" y="608" on="0"/>
        <pt x="550" y="583" on="0"/>
        <pt x="562" y="583" on="1"/>
        <pt x="590" y="586" on="1"/>
        <pt x="606" y="586" on="0"/>
        <pt x="632" y="553" on="0"/>
        <pt x="645" y="546" on="0"/>
        <pt x="675" y="540" on="0"/>
        <pt x="690" y="530" on="0"/>
        <pt x="700" y="502" on="0"/>
        <pt x="711" y="492" on="0"/>
        <pt x="751" y="471" on="0"/>
        <pt x="760" y="455" on="0"/>
        <pt x="761" y="423" on="0"/>
        <pt x="766" y="414" on="0"/>
        <pt x="800" y="385" on="0"/>
        <pt x="800" y="369" on="1"/>
        <pt x="799" y="344" on="1"/>
        <pt x="799" y="331" on="0"/>
        <pt x="823" y="294" on="0"/>
        <pt x="823" y="276" on="0"/>
        <pt x="812" y="250" on="0"/>
        <pt x="812" y="236" on="0"/>
        <pt x="823" y="207" on="0"/>
        <pt x="822" y="191" on="0"/>
        <pt x="798" y="166" on="0"/>
        <pt x="798" y="152" on="1"/>
        <pt x="800" y="120" on="1"/>
        <pt x="800" y="104" on="0"/>
        <pt x="768" y="78" on="0"/>
        <pt x="763" y="68" on="0"/>
        <pt x="754" y="30" on="0"/>
        <pt x="743" y="17" on="0"/>
        <pt x="718" y="6" on="0"/>
        <pt x="708" y="-4" on="0"/>
        <pt x="690" y="-37" on="0"/>
        <pt x="676" y="-47" on="0"/>
        <pt x="641" y="-56" on="0"/>
        <pt x="631" y="-62" on="0"/>
        <pt x="604" y="-89" on="0"/>
      </contour>
      <contour>
        <pt x="462" y="-6" on="1"/>
        <pt x="495" y="-13" on="1"/>
        <pt x="501" y="-13" on="0"/>
        <pt x="512" y="-6" on="1"/>
        <pt x="527" y="4" on="0"/>
        <pt x="539" y="4" on="1"/>
        <pt x="554" y="3" on="1"/>
        <pt x="566" y="3" on="0"/>
        <pt x="584" y="23" on="0"/>
        <pt x="591" y="27" on="0"/>
        <pt x="617" y="34" on="0"/>
        <pt x="628" y="42" on="0"/>
        <pt x="641" y="65" on="0"/>
        <pt x="648" y="72" on="0"/>
        <pt x="666" y="80" on="0"/>
        <pt x="674" y="89" on="0"/>
        <pt x="680" y="117" on="0"/>
        <pt x="685" y="125" on="0"/>
        <pt x="707" y="143" on="0"/>
        <pt x="707" y="157" on="1"/>
        <pt x="706" y="177" on="1"/>
        <pt x="706" y="188" on="0"/>
        <pt x="723" y="207" on="0"/>
        <pt x="724" y="213" on="1"/>
        <pt x="716" y="245" on="1"/>
        <pt x="724" y="273" on="1"/>
        <pt x="724" y="281" on="0"/>
        <pt x="706" y="309" on="0"/>
        <pt x="706" y="318" on="1"/>
        <pt x="707" y="335" on="1"/>
        <pt x="707" y="347" on="0"/>
        <pt x="683" y="367" on="0"/>
        <pt x="679" y="375" on="0"/>
        <pt x="678" y="398" on="0"/>
        <pt x="672" y="409" on="0"/>
        <pt x="643" y="424" on="0"/>
        <pt x="635" y="432" on="0"/>
        <pt x="627" y="452" on="0"/>
        <pt x="617" y="460" on="0"/>
        <pt x="595" y="464" on="0"/>
        <pt x="585" y="469" on="0"/>
        <pt x="567" y="493" on="0"/>
        <pt x="555" y="493" on="1"/>
        <pt x="535" y="491" on="1"/>
        <pt x="526" y="491" on="0"/>
        <pt x="504" y="509" on="0"/>
        <pt x="494" y="509" on="1"/>
        <pt x="461" y="500" on="1"/>
        <pt x="429" y="509" on="1"/>
        <pt x="421" y="509" on="0"/>
        <pt x="397" y="492" on="0"/>
        <pt x="387" y="492" on="1"/>
        <pt x="370" y="493" on="1"/>
        <pt x="359" y="493" on="0"/>
        <pt x="338" y="468" on="0"/>
        <pt x="329" y="463" on="0"/>
        <pt x="303" y="458" on="0"/>
        <pt x="293" y="450" on="0"/>
        <pt x="283" y="428" on="0"/>
        <pt x="275" y="420" on="0"/>
        <pt x="254" y="412" on="0"/>
        <pt x="250" y="407" on="1"/>
        <pt x="248" y="403" on="0"/>
        <pt x="244" y="380" on="0"/>
        <pt x="240" y="372" on="0"/>
        <pt x="216" y="351" on="0"/>
        <pt x="216" y="340" on="1"/>
        <pt x="217" y="324" on="1"/>
        <pt x="217" y="316" on="0"/>
        <pt x="200" y="286" on="0"/>
        <pt x="200" y="278" on="1"/>
        <pt x="208" y="248" on="1"/>
        <pt x="200" y="215" on="1"/>
        <pt x="200" y="207" on="0"/>
        <pt x="217" y="182" on="0"/>
        <pt x="217" y="174" on="1"/>
        <pt x="215" y="158" on="1"/>
        <pt x="215" y="147" on="0"/>
        <pt x="240" y="124" on="0"/>
        <pt x="244" y="116" on="0"/>
        <pt x="247" y="95" on="0"/>
        <pt x="255" y="82" on="0"/>
        <pt x="275" y="74" on="0"/>
        <pt x="283" y="67" on="0"/>
        <pt x="294" y="41" on="0"/>
        <pt x="306" y="33" on="0"/>
        <pt x="325" y="33" on="0"/>
        <pt x="337" y="27" on="0"/>
        <pt x="360" y="2" on="0"/>
        <pt x="371" y="2" on="1"/>
        <pt x="386" y="3" on="1"/>
        <pt x="396" y="3" on="0"/>
        <pt x="420" y="-14" on="0"/>
        <pt x="426" y="-15" on="1"/>
      </contour>
      <contour>
        <pt x="392" y="417" on="0"/>
        <pt x="532" y="417" on="0"/>
        <pt x="632" y="318" on="0"/>
        <pt x="632" y="176" on="0"/>
        <pt x="532" y="77" on="0"/>
        <pt x="392" y="77" on="0"/>
        <pt x="292" y="176" on="0"/>
        <pt x="292" y="318" on="0"/>
      </contour>
      <contour>
        <pt x="505" y="292" on="1"/>
        <pt x="557" y="292" on="1"/>
        <pt x="557" y="360" on="1"/>
        <pt x="366" y="360" on="1"/>
        <pt x="366" y="292" on="1"/>
        <pt x="420" y="292" on="1"/>
        <pt x="420" y="117" on="1"/>
        <pt x="505" y="117" on="1"/>
      </contour>
    </TTGlyph>
    <TTGlyph name="approxequal" xMin="24" yMin="165" xMax="499" yMax="443">
      <contour>
        <pt x="499" y="354" on="1"/>
        <pt x="428" y="382" on="0"/>
        <pt x="329" y="382" on="0"/>
        <pt x="192" y="327" on="0"/>
        <pt x="92" y="327" on="0"/>
        <pt x="24" y="354" on="1"/>
        <pt x="24" y="415" on="1"/>
        <pt x="92" y="388" on="0"/>
        <pt x="192" y="388" on="0"/>
        <pt x="329" y="443" on="0"/>
        <pt x="428" y="443" on="0"/>
        <pt x="499" y="415" on="1"/>
      </contour>
      <contour>
        <pt x="499" y="192" on="1"/>
        <pt x="428" y="220" on="0"/>
        <pt x="329" y="220" on="0"/>
        <pt x="192" y="165" on="0"/>
        <pt x="92" y="165" on="0"/>
        <pt x="24" y="192" on="1"/>
        <pt x="24" y="253" on="1"/>
        <pt x="92" y="226" on="0"/>
        <pt x="192" y="226" on="0"/>
        <pt x="329" y="281" on="0"/>
        <pt x="428" y="281" on="0"/>
        <pt x="499" y="253" on="1"/>
      </contour>
    </TTGlyph>
    <TTGlyph name="aring" xMin="36" yMin="-12" xMax="407" yMax="711">
      <contour>
        <pt x="322" y="273" on="1"/>
        <pt x="322" y="317" on="1"/>
        <pt x="322" y="398" on="0"/>
        <pt x="238" y="398" on="1"/>
        <pt x="172" y="398" on="0"/>
        <pt x="100" y="355" on="1"/>
        <pt x="71" y="415" on="1"/>
        <pt x="155" y="468" on="0"/>
        <pt x="252" y="468" on="1"/>
        <pt x="320" y="468" on="0"/>
        <pt x="407" y="399" on="0"/>
        <pt x="407" y="327" on="1"/>
        <pt x="407" y="0" on="1"/>
        <pt x="353" y="0" on="1"/>
        <pt x="328" y="60" on="1"/>
        <pt x="296" y="27" on="0"/>
        <pt x="208" y="-12" on="0"/>
        <pt x="172" y="-12" on="1"/>
        <pt x="110" y="-12" on="0"/>
        <pt x="36" y="56" on="0"/>
        <pt x="36" y="111" on="1"/>
        <pt x="36" y="273" on="0"/>
      </contour>
      <contour>
        <pt x="137" y="159" on="0"/>
        <pt x="124" y="132" on="0"/>
        <pt x="124" y="89" on="0"/>
        <pt x="161" y="58" on="0"/>
        <pt x="191" y="58" on="1"/>
        <pt x="254" y="58" on="0"/>
        <pt x="322" y="114" on="1"/>
        <pt x="322" y="214" on="1"/>
        <pt x="196" y="212" on="0"/>
        <pt x="156" y="176" on="1"/>
      </contour>
      <contour>
        <pt x="248" y="552" on="1"/>
        <pt x="292" y="552" on="0"/>
        <pt x="292" y="661" on="0"/>
        <pt x="201" y="661" on="0"/>
        <pt x="201" y="611" on="1"/>
        <pt x="201" y="586" on="0"/>
        <pt x="225" y="552" on="0"/>
      </contour>
      <contour>
        <pt x="205" y="502" on="0"/>
        <pt x="144" y="563" on="0"/>
        <pt x="144" y="650" on="0"/>
        <pt x="206" y="711" on="0"/>
        <pt x="292" y="711" on="0"/>
        <pt x="353" y="650" on="0"/>
        <pt x="353" y="562" on="0"/>
        <pt x="292" y="502" on="0"/>
      </contour>
    </TTGlyph>
    <TTGlyph name="aringacute" xMin="36" yMin="-12" xMax="423" yMax="798">
      <contour>
        <pt x="322" y="273" on="1"/>
        <pt x="322" y="317" on="1"/>
        <pt x="322" y="398" on="0"/>
        <pt x="238" y="398" on="1"/>
        <pt x="172" y="398" on="0"/>
        <pt x="100" y="355" on="1"/>
        <pt x="71" y="415" on="1"/>
        <pt x="155" y="468" on="0"/>
        <pt x="252" y="468" on="1"/>
        <pt x="320" y="468" on="0"/>
        <pt x="407" y="399" on="0"/>
        <pt x="407" y="327" on="1"/>
        <pt x="407" y="0" on="1"/>
        <pt x="353" y="0" on="1"/>
        <pt x="328" y="60" on="1"/>
        <pt x="296" y="27" on="0"/>
        <pt x="208" y="-12" on="0"/>
        <pt x="172" y="-12" on="1"/>
        <pt x="110" y="-12" on="0"/>
        <pt x="36" y="56" on="0"/>
        <pt x="36" y="111" on="1"/>
        <pt x="36" y="273" on="0"/>
      </contour>
      <contour>
        <pt x="137" y="159" on="0"/>
        <pt x="124" y="132" on="0"/>
        <pt x="124" y="89" on="0"/>
        <pt x="161" y="58" on="0"/>
        <pt x="191" y="58" on="1"/>
        <pt x="254" y="58" on="0"/>
        <pt x="322" y="114" on="1"/>
        <pt x="322" y="214" on="1"/>
        <pt x="196" y="212" on="0"/>
        <pt x="156" y="176" on="1"/>
      </contour>
      <contour>
        <pt x="194" y="502" on="0"/>
        <pt x="133" y="563" on="0"/>
        <pt x="133" y="650" on="0"/>
        <pt x="194" y="711" on="0"/>
        <pt x="238" y="711" on="1"/>
        <pt x="263" y="711" on="0"/>
        <pt x="283" y="700" on="1"/>
        <pt x="351" y="798" on="1"/>
        <pt x="423" y="744" on="1"/>
        <pt x="324" y="664" on="1"/>
        <pt x="342" y="636" on="0"/>
        <pt x="342" y="562" on="0"/>
        <pt x="282" y="502" on="0"/>
      </contour>
      <contour>
        <pt x="237" y="552" on="1"/>
        <pt x="281" y="552" on="0"/>
        <pt x="281" y="661" on="0"/>
        <pt x="190" y="661" on="0"/>
        <pt x="190" y="611" on="1"/>
        <pt x="190" y="586" on="0"/>
        <pt x="214" y="552" on="0"/>
      </contour>
    </TTGlyph>
    <TTGlyph name="asciicircum" xMin="36" yMin="265" xMax="486" yMax="664">
      <contour>
        <pt x="235" y="664" on="1"/>
        <pt x="286" y="664" on="1"/>
        <pt x="486" y="265" on="1"/>
        <pt x="417" y="265" on="1"/>
        <pt x="261" y="601" on="1"/>
        <pt x="105" y="265" on="1"/>
        <pt x="36" y="265" on="1"/>
      </contour>
    </TTGlyph>
    <TTGlyph name="asciitilde" xMin="25" yMin="241" xMax="499" yMax="367">
      <contour>
        <pt x="381" y="241" on="1"/>
        <pt x="341" y="241" on="0"/>
        <pt x="182" y="306" on="0"/>
        <pt x="94" y="306" on="0"/>
        <pt x="56" y="274" on="1"/>
        <pt x="25" y="305" on="1"/>
        <pt x="79" y="367" on="0"/>
        <pt x="143" y="367" on="1"/>
        <pt x="183" y="367" on="0"/>
        <pt x="342" y="302" on="0"/>
        <pt x="428" y="302" on="0"/>
        <pt x="468" y="334" on="1"/>
        <pt x="499" y="303" on="1"/>
        <pt x="445" y="241" on="0"/>
      </contour>
    </TTGlyph>
    <TTGlyph name="asterisk" xMin="30" yMin="331" xMax="432" yMax="713">
      <contour>
        <pt x="259" y="556" on="1"/>
        <pt x="291" y="570" on="0"/>
        <pt x="402" y="623" on="1"/>
        <pt x="432" y="532" on="1"/>
        <pt x="276" y="503" on="1"/>
        <pt x="294" y="484" on="0"/>
        <pt x="367" y="407" on="0"/>
        <pt x="384" y="388" on="1"/>
        <pt x="306" y="331" on="1"/>
        <pt x="231" y="469" on="1"/>
        <pt x="155" y="332" on="1"/>
        <pt x="77" y="388" on="1"/>
        <pt x="186" y="503" on="1"/>
        <pt x="30" y="533" on="1"/>
        <pt x="60" y="624" on="1"/>
        <pt x="203" y="557" on="1"/>
        <pt x="183" y="713" on="1"/>
        <pt x="279" y="713" on="1"/>
      </contour>
    </TTGlyph>
    <TTGlyph name="at" xMin="65" yMin="-68" xMax="772" yMax="638">
      <contour>
        <pt x="610" y="190" on="0"/>
        <pt x="684" y="311" on="0"/>
        <pt x="684" y="456" on="0"/>
        <pt x="568" y="568" on="0"/>
        <pt x="460" y="568" on="1"/>
        <pt x="388" y="568" on="0"/>
        <pt x="269" y="515" on="0"/>
        <pt x="232" y="472" on="1"/>
        <pt x="153" y="382" on="0"/>
        <pt x="153" y="141" on="0"/>
        <pt x="298" y="2" on="0"/>
        <pt x="517" y="2" on="0"/>
        <pt x="625" y="90" on="1"/>
        <pt x="668" y="35" on="1"/>
        <pt x="609" y="-12" on="0"/>
        <pt x="463" y="-68" on="0"/>
        <pt x="307" y="-68" on="0"/>
        <pt x="162" y="3" on="0"/>
        <pt x="65" y="160" on="0"/>
        <pt x="65" y="270" on="1"/>
        <pt x="65" y="408" on="0"/>
        <pt x="166" y="520" on="1"/>
        <pt x="215" y="573" on="0"/>
        <pt x="369" y="638" on="0"/>
        <pt x="539" y="638" on="0"/>
        <pt x="660" y="594" on="0"/>
        <pt x="697" y="556" on="1"/>
        <pt x="772" y="480" on="0"/>
        <pt x="772" y="278" on="0"/>
        <pt x="628" y="127" on="0"/>
        <pt x="505" y="127" on="1"/>
        <pt x="481" y="202" on="1"/>
        <pt x="431" y="122" on="0"/>
        <pt x="355" y="122" on="1"/>
        <pt x="310" y="122" on="0"/>
        <pt x="249" y="192" on="0"/>
        <pt x="249" y="255" on="1"/>
        <pt x="249" y="338" on="0"/>
        <pt x="359" y="468" on="0"/>
        <pt x="444" y="468" on="1"/>
        <pt x="501" y="468" on="0"/>
        <pt x="562" y="436" on="1"/>
        <pt x="541" y="184" on="1"/>
      </contour>
      <contour>
        <pt x="448" y="411" on="1"/>
        <pt x="399" y="411" on="0"/>
        <pt x="333" y="322" on="0"/>
        <pt x="333" y="226" on="0"/>
        <pt x="361" y="184" on="0"/>
        <pt x="407" y="184" on="0"/>
        <pt x="460" y="237" on="0"/>
        <pt x="477" y="285" on="1"/>
        <pt x="491" y="401" on="1"/>
        <pt x="470" y="411" on="0"/>
      </contour>
    </TTGlyph>
    <TTGlyph name="atilde" xMin="36" yMin="-12" xMax="409" yMax="661">
      <contour>
        <pt x="322" y="273" on="1"/>
        <pt x="322" y="317" on="1"/>
        <pt x="322" y="398" on="0"/>
        <pt x="238" y="398" on="1"/>
        <pt x="172" y="398" on="0"/>
        <pt x="100" y="355" on="1"/>
        <pt x="71" y="415" on="1"/>
        <pt x="155" y="468" on="0"/>
        <pt x="252" y="468" on="1"/>
        <pt x="320" y="468" on="0"/>
        <pt x="407" y="399" on="0"/>
        <pt x="407" y="327" on="1"/>
        <pt x="407" y="0" on="1"/>
        <pt x="353" y="0" on="1"/>
        <pt x="328" y="60" on="1"/>
        <pt x="296" y="27" on="0"/>
        <pt x="208" y="-12" on="0"/>
        <pt x="172" y="-12" on="1"/>
        <pt x="110" y="-12" on="0"/>
        <pt x="36" y="56" on="0"/>
        <pt x="36" y="111" on="1"/>
        <pt x="36" y="273" on="0"/>
      </contour>
      <contour>
        <pt x="137" y="159" on="0"/>
        <pt x="124" y="132" on="0"/>
        <pt x="124" y="89" on="0"/>
        <pt x="161" y="58" on="0"/>
        <pt x="191" y="58" on="1"/>
        <pt x="254" y="58" on="0"/>
        <pt x="322" y="114" on="1"/>
        <pt x="322" y="214" on="1"/>
        <pt x="196" y="212" on="0"/>
        <pt x="156" y="176" on="1"/>
      </contour>
      <contour>
        <pt x="312" y="551" on="1"/>
        <pt x="287" y="551" on="0"/>
        <pt x="191" y="583" on="0"/>
        <pt x="172" y="583" on="1"/>
        <pt x="138" y="583" on="0"/>
        <pt x="123" y="546" on="1"/>
        <pt x="84" y="563" on="1"/>
        <pt x="115" y="656" on="0"/>
        <pt x="181" y="656" on="1"/>
        <pt x="206" y="656" on="0"/>
        <pt x="302" y="624" on="0"/>
        <pt x="321" y="624" on="1"/>
        <pt x="355" y="624" on="0"/>
        <pt x="370" y="661" on="1"/>
        <pt x="409" y="644" on="1"/>
        <pt x="378" y="551" on="0"/>
      </contour>
    </TTGlyph>
    <TTGlyph name="b" xMin="69" yMin="-12" xMax="486" yMax="718">
      <contour>
        <pt x="243" y="56" on="1"/>
        <pt x="318" y="56" on="0"/>
        <pt x="400" y="158" on="0"/>
        <pt x="400" y="302" on="0"/>
        <pt x="328" y="389" on="0"/>
        <pt x="215" y="389" on="0"/>
        <pt x="151" y="355" on="1"/>
        <pt x="151" y="74" on="1"/>
        <pt x="198" y="56" on="0"/>
      </contour>
      <contour>
        <pt x="151" y="718" on="1"/>
        <pt x="151" y="419" on="1"/>
        <pt x="227" y="462" on="0"/>
        <pt x="382" y="462" on="0"/>
        <pt x="486" y="337" on="0"/>
        <pt x="486" y="135" on="0"/>
        <pt x="365" y="-12" on="0"/>
        <pt x="253" y="-12" on="1"/>
        <pt x="167" y="-12" on="0"/>
        <pt x="69" y="32" on="1"/>
        <pt x="69" y="718" on="1"/>
      </contour>
    </TTGlyph>
    <TTGlyph name="backslash" xMin="20" yMin="-140" xMax="270" yMax="701">
      <contour>
        <pt x="85" y="701" on="1"/>
        <pt x="270" y="-140" on="1"/>
        <pt x="205" y="-140" on="1"/>
        <pt x="20" y="701" on="1"/>
      </contour>
    </TTGlyph>
    <TTGlyph name="bar" xMin="112" yMin="-140" xMax="177" yMax="701">
      <contour>
        <pt x="112" y="-140" on="1"/>
        <pt x="112" y="701" on="1"/>
        <pt x="177" y="701" on="1"/>
        <pt x="177" y="-140" on="1"/>
      </contour>
    </TTGlyph>
    <TTGlyph name="barra" xMin="0" yMin="315" xMax="382" yMax="369">
      <contour>
        <pt x="382" y="315" on="1"/>
        <pt x="0" y="315" on="1"/>
        <pt x="0" y="369" on="1"/>
        <pt x="382" y="369" on="1"/>
      </contour>
    </TTGlyph>
    <TTGlyph name="braceleft" xMin="65" yMin="-130" xMax="325" yMax="718">
      <contour>
        <pt x="211" y="605" on="1"/>
        <pt x="211" y="430" on="1"/>
        <pt x="211" y="373" on="0"/>
        <pt x="188" y="310" on="0"/>
        <pt x="152" y="294" on="1"/>
        <pt x="188" y="278" on="0"/>
        <pt x="211" y="215" on="0"/>
        <pt x="211" y="158" on="1"/>
        <pt x="211" y="-17" on="1"/>
        <pt x="211" y="-49" on="0"/>
        <pt x="253" y="-65" on="0"/>
        <pt x="315" y="-65" on="1"/>
        <pt x="325" y="-130" on="1"/>
        <pt x="168" y="-130" on="0"/>
        <pt x="140" y="-83" on="1"/>
        <pt x="127" y="-60" on="0"/>
        <pt x="127" y="-12" on="1"/>
        <pt x="127" y="200" on="1"/>
        <pt x="127" y="249" on="0"/>
        <pt x="88" y="262" on="1"/>
        <pt x="74" y="267" on="0"/>
        <pt x="65" y="267" on="1"/>
        <pt x="65" y="321" on="1"/>
        <pt x="105" y="321" on="0"/>
        <pt x="120" y="355" on="1"/>
        <pt x="127" y="369" on="0"/>
        <pt x="127" y="388" on="1"/>
        <pt x="127" y="600" on="1"/>
        <pt x="127" y="648" on="0"/>
        <pt x="140" y="671" on="1"/>
        <pt x="168" y="718" on="0"/>
        <pt x="325" y="718" on="1"/>
        <pt x="315" y="653" on="1"/>
        <pt x="253" y="653" on="0"/>
        <pt x="211" y="637" on="0"/>
      </contour>
    </TTGlyph>
    <TTGlyph name="braceright" xMin="25" yMin="-130" xMax="285" yMax="718">
      <contour>
        <pt x="139" y="430" on="1"/>
        <pt x="139" y="605" on="1"/>
        <pt x="139" y="637" on="0"/>
        <pt x="97" y="653" on="0"/>
        <pt x="35" y="653" on="1"/>
        <pt x="25" y="718" on="1"/>
        <pt x="182" y="718" on="0"/>
        <pt x="210" y="671" on="1"/>
        <pt x="223" y="648" on="0"/>
        <pt x="223" y="600" on="1"/>
        <pt x="223" y="388" on="1"/>
        <pt x="223" y="339" on="0"/>
        <pt x="262" y="326" on="1"/>
        <pt x="276" y="321" on="0"/>
        <pt x="285" y="321" on="1"/>
        <pt x="285" y="267" on="1"/>
        <pt x="245" y="267" on="0"/>
        <pt x="230" y="233" on="1"/>
        <pt x="223" y="219" on="0"/>
        <pt x="223" y="200" on="1"/>
        <pt x="223" y="-12" on="1"/>
        <pt x="223" y="-60" on="0"/>
        <pt x="210" y="-83" on="1"/>
        <pt x="182" y="-130" on="0"/>
        <pt x="25" y="-130" on="1"/>
        <pt x="35" y="-65" on="1"/>
        <pt x="97" y="-65" on="0"/>
        <pt x="139" y="-49" on="0"/>
        <pt x="139" y="-17" on="1"/>
        <pt x="139" y="158" on="1"/>
        <pt x="139" y="215" on="0"/>
        <pt x="162" y="278" on="0"/>
        <pt x="198" y="294" on="1"/>
        <pt x="162" y="310" on="0"/>
        <pt x="139" y="373" on="0"/>
      </contour>
    </TTGlyph>
    <TTGlyph name="bracketleft" xMin="85" yMin="-130" xMax="311" yMax="718">
      <contour>
        <pt x="167" y="653" on="1"/>
        <pt x="167" y="-65" on="1"/>
        <pt x="301" y="-65" on="1"/>
        <pt x="311" y="-130" on="1"/>
        <pt x="85" y="-130" on="1"/>
        <pt x="85" y="718" on="1"/>
        <pt x="311" y="718" on="1"/>
        <pt x="301" y="653" on="1"/>
      </contour>
    </TTGlyph>
    <TTGlyph name="bracketright" xMin="39" yMin="-130" xMax="265" yMax="718">
      <contour>
        <pt x="183" y="-65" on="1"/>
        <pt x="183" y="653" on="1"/>
        <pt x="49" y="653" on="1"/>
        <pt x="39" y="718" on="1"/>
        <pt x="265" y="718" on="1"/>
        <pt x="265" y="-130" on="1"/>
        <pt x="39" y="-130" on="1"/>
        <pt x="49" y="-65" on="1"/>
      </contour>
    </TTGlyph>
    <TTGlyph name="breve" xMin="27" yMin="530" xMax="298" yMax="657">
      <contour>
        <pt x="295" y="605" on="0"/>
        <pt x="218" y="530" on="0"/>
        <pt x="109" y="530" on="0"/>
        <pt x="31" y="605" on="0"/>
        <pt x="27" y="657" on="1"/>
        <pt x="98" y="657" on="1"/>
        <pt x="108" y="596" on="0"/>
        <pt x="218" y="596" on="0"/>
        <pt x="228" y="657" on="1"/>
        <pt x="298" y="657" on="1"/>
      </contour>
    </TTGlyph>
    <TTGlyph name="breve.case" xMin="27" yMin="759" xMax="298" yMax="886">
      <contour>
        <pt x="295" y="834" on="0"/>
        <pt x="218" y="759" on="0"/>
        <pt x="109" y="759" on="0"/>
        <pt x="31" y="834" on="0"/>
        <pt x="27" y="886" on="1"/>
        <pt x="98" y="886" on="1"/>
        <pt x="108" y="825" on="0"/>
        <pt x="218" y="825" on="0"/>
        <pt x="228" y="886" on="1"/>
        <pt x="298" y="886" on="1"/>
      </contour>
    </TTGlyph>
    <TTGlyph name="brokenbar" xMin="112" yMin="-140" xMax="177" yMax="701">
      <contour>
        <pt x="112" y="-140" on="1"/>
        <pt x="112" y="195" on="1"/>
        <pt x="177" y="195" on="1"/>
        <pt x="177" y="-140" on="1"/>
      </contour>
      <contour>
        <pt x="112" y="366" on="1"/>
        <pt x="112" y="701" on="1"/>
        <pt x="177" y="701" on="1"/>
        <pt x="177" y="366" on="1"/>
      </contour>
    </TTGlyph>
    <TTGlyph name="bullet" xMin="70" yMin="227" xMax="328" yMax="485">
      <contour>
        <pt x="70" y="303" on="0"/>
        <pt x="70" y="409" on="0"/>
        <pt x="146" y="485" on="0"/>
        <pt x="252" y="485" on="0"/>
        <pt x="328" y="409" on="0"/>
        <pt x="328" y="303" on="0"/>
        <pt x="252" y="227" on="0"/>
        <pt x="146" y="227" on="0"/>
      </contour>
    </TTGlyph>
    <TTGlyph name="c" xMin="41" yMin="-12" xMax="393" yMax="468">
      <contour>
        <pt x="251" y="468" on="1"/>
        <pt x="318" y="468" on="0"/>
        <pt x="387" y="438" on="1"/>
        <pt x="362" y="376" on="1"/>
        <pt x="311" y="398" on="0"/>
        <pt x="196" y="398" on="0"/>
        <pt x="129" y="312" on="0"/>
        <pt x="129" y="146" on="0"/>
        <pt x="199" y="58" on="0"/>
        <pt x="313" y="58" on="0"/>
        <pt x="374" y="86" on="1"/>
        <pt x="393" y="20" on="1"/>
        <pt x="323" y="-12" on="0"/>
        <pt x="251" y="-12" on="1"/>
        <pt x="158" y="-12" on="0"/>
        <pt x="41" y="123" on="0"/>
        <pt x="41" y="336" on="0"/>
        <pt x="158" y="468" on="0"/>
      </contour>
    </TTGlyph>
    <TTGlyph name="cacute" xMin="41" yMin="-12" xMax="393" yMax="697">
      <contour>
        <pt x="251" y="468" on="1"/>
        <pt x="318" y="468" on="0"/>
        <pt x="387" y="438" on="1"/>
        <pt x="362" y="376" on="1"/>
        <pt x="311" y="398" on="0"/>
        <pt x="196" y="398" on="0"/>
        <pt x="129" y="312" on="0"/>
        <pt x="129" y="146" on="0"/>
        <pt x="199" y="58" on="0"/>
        <pt x="313" y="58" on="0"/>
        <pt x="374" y="86" on="1"/>
        <pt x="393" y="20" on="1"/>
        <pt x="323" y="-12" on="0"/>
        <pt x="251" y="-12" on="1"/>
        <pt x="158" y="-12" on="0"/>
        <pt x="41" y="123" on="0"/>
        <pt x="41" y="336" on="0"/>
        <pt x="158" y="468" on="0"/>
      </contour>
      <contour>
        <pt x="230" y="513" on="1"/>
        <pt x="166" y="513" on="1"/>
        <pt x="293" y="697" on="1"/>
        <pt x="365" y="643" on="1"/>
      </contour>
    </TTGlyph>
    <TTGlyph name="caron" xMin="42" yMin="509" xMax="280" yMax="691">
      <contour>
        <pt x="163" y="607" on="1"/>
        <pt x="227" y="691" on="1"/>
        <pt x="280" y="691" on="1"/>
        <pt x="183" y="509" on="1"/>
        <pt x="139" y="509" on="1"/>
        <pt x="42" y="691" on="1"/>
        <pt x="95" y="691" on="1"/>
        <pt x="158" y="607" on="1"/>
      </contour>
    </TTGlyph>
    <TTGlyph name="caron.case" xMin="42" yMin="738" xMax="280" yMax="920">
      <contour>
        <pt x="163" y="836" on="1"/>
        <pt x="227" y="920" on="1"/>
        <pt x="280" y="920" on="1"/>
        <pt x="183" y="738" on="1"/>
        <pt x="139" y="738" on="1"/>
        <pt x="42" y="920" on="1"/>
        <pt x="95" y="920" on="1"/>
        <pt x="158" y="836" on="1"/>
      </contour>
    </TTGlyph>
    <TTGlyph name="ccaron" xMin="41" yMin="-12" xMax="393" yMax="691">
      <contour>
        <pt x="251" y="468" on="1"/>
        <pt x="318" y="468" on="0"/>
        <pt x="387" y="438" on="1"/>
        <pt x="362" y="376" on="1"/>
        <pt x="311" y="398" on="0"/>
        <pt x="196" y="398" on="0"/>
        <pt x="129" y="312" on="0"/>
        <pt x="129" y="146" on="0"/>
        <pt x="199" y="58" on="0"/>
        <pt x="313" y="58" on="0"/>
        <pt x="374" y="86" on="1"/>
        <pt x="393" y="20" on="1"/>
        <pt x="323" y="-12" on="0"/>
        <pt x="251" y="-12" on="1"/>
        <pt x="158" y="-12" on="0"/>
        <pt x="41" y="123" on="0"/>
        <pt x="41" y="336" on="0"/>
        <pt x="158" y="468" on="0"/>
      </contour>
      <contour>
        <pt x="259" y="607" on="1"/>
        <pt x="323" y="691" on="1"/>
        <pt x="376" y="691" on="1"/>
        <pt x="279" y="509" on="1"/>
        <pt x="235" y="509" on="1"/>
        <pt x="138" y="691" on="1"/>
        <pt x="191" y="691" on="1"/>
        <pt x="254" y="607" on="1"/>
      </contour>
    </TTGlyph>
    <TTGlyph name="ccedilla" xMin="41" yMin="-242" xMax="393" yMax="468">
      <contour>
        <pt x="251" y="468" on="1"/>
        <pt x="318" y="468" on="0"/>
        <pt x="387" y="438" on="1"/>
        <pt x="362" y="376" on="1"/>
        <pt x="311" y="398" on="0"/>
        <pt x="196" y="398" on="0"/>
        <pt x="129" y="312" on="0"/>
        <pt x="129" y="146" on="0"/>
        <pt x="199" y="58" on="0"/>
        <pt x="313" y="58" on="0"/>
        <pt x="374" y="86" on="1"/>
        <pt x="393" y="20" on="1"/>
        <pt x="323" y="-12" on="0"/>
        <pt x="251" y="-12" on="1"/>
        <pt x="158" y="-12" on="0"/>
        <pt x="41" y="123" on="0"/>
        <pt x="41" y="336" on="0"/>
        <pt x="158" y="468" on="0"/>
      </contour>
      <contour>
        <pt x="309" y="-143" on="1"/>
        <pt x="309" y="-188" on="0"/>
        <pt x="245" y="-242" on="0"/>
        <pt x="152" y="-242" on="0"/>
        <pt x="108" y="-215" on="1"/>
        <pt x="124" y="-175" on="1"/>
        <pt x="154" y="-195" on="0"/>
        <pt x="211" y="-195" on="0"/>
        <pt x="246" y="-162" on="0"/>
        <pt x="246" y="-119" on="0"/>
        <pt x="208" y="-86" on="0"/>
        <pt x="172" y="-83" on="1"/>
        <pt x="163" y="-70" on="1"/>
        <pt x="195" y="8" on="1"/>
        <pt x="230" y="8" on="1"/>
        <pt x="219" y="-47" on="1"/>
        <pt x="309" y="-77" on="0"/>
      </contour>
    </TTGlyph>
    <TTGlyph name="ccircumflex" xMin="41" yMin="-12" xMax="393" yMax="695">
      <contour>
        <pt x="251" y="468" on="1"/>
        <pt x="318" y="468" on="0"/>
        <pt x="387" y="438" on="1"/>
        <pt x="362" y="376" on="1"/>
        <pt x="311" y="398" on="0"/>
        <pt x="196" y="398" on="0"/>
        <pt x="129" y="312" on="0"/>
        <pt x="129" y="146" on="0"/>
        <pt x="199" y="58" on="0"/>
        <pt x="313" y="58" on="0"/>
        <pt x="374" y="86" on="1"/>
        <pt x="393" y="20" on="1"/>
        <pt x="323" y="-12" on="0"/>
        <pt x="251" y="-12" on="1"/>
        <pt x="158" y="-12" on="0"/>
        <pt x="41" y="123" on="0"/>
        <pt x="41" y="336" on="0"/>
        <pt x="158" y="468" on="0"/>
      </contour>
      <contour>
        <pt x="359" y="513" on="1"/>
        <pt x="306" y="513" on="1"/>
        <pt x="242" y="597" on="1"/>
        <pt x="237" y="597" on="1"/>
        <pt x="174" y="513" on="1"/>
        <pt x="121" y="513" on="1"/>
        <pt x="218" y="695" on="1"/>
        <pt x="262" y="695" on="1"/>
      </contour>
    </TTGlyph>
    <TTGlyph name="cdotaccent" xMin="41" yMin="-12" xMax="393" yMax="659">
      <contour>
        <pt x="251" y="468" on="1"/>
        <pt x="318" y="468" on="0"/>
        <pt x="387" y="438" on="1"/>
        <pt x="362" y="376" on="1"/>
        <pt x="311" y="398" on="0"/>
        <pt x="196" y="398" on="0"/>
        <pt x="129" y="312" on="0"/>
        <pt x="129" y="146" on="0"/>
        <pt x="199" y="58" on="0"/>
        <pt x="313" y="58" on="0"/>
        <pt x="374" y="86" on="1"/>
        <pt x="393" y="20" on="1"/>
        <pt x="323" y="-12" on="0"/>
        <pt x="251" y="-12" on="1"/>
        <pt x="158" y="-12" on="0"/>
        <pt x="41" y="123" on="0"/>
        <pt x="41" y="336" on="0"/>
        <pt x="158" y="468" on="0"/>
      </contour>
      <contour>
        <pt x="278" y="547" on="0"/>
        <pt x="232" y="547" on="0"/>
        <pt x="200" y="580" on="0"/>
        <pt x="200" y="626" on="0"/>
        <pt x="232" y="659" on="0"/>
        <pt x="278" y="659" on="0"/>
        <pt x="310" y="626" on="0"/>
        <pt x="310" y="580" on="0"/>
      </contour>
    </TTGlyph>
    <TTGlyph name="cedilla" xMin="129" yMin="-242" xMax="330" yMax="8">
      <contour>
        <pt x="330" y="-143" on="1"/>
        <pt x="330" y="-188" on="0"/>
        <pt x="266" y="-242" on="0"/>
        <pt x="173" y="-242" on="0"/>
        <pt x="129" y="-215" on="1"/>
        <pt x="145" y="-175" on="1"/>
        <pt x="175" y="-195" on="0"/>
        <pt x="232" y="-195" on="0"/>
        <pt x="267" y="-162" on="0"/>
        <pt x="267" y="-119" on="0"/>
        <pt x="229" y="-86" on="0"/>
        <pt x="193" y="-83" on="1"/>
        <pt x="184" y="-70" on="1"/>
        <pt x="216" y="8" on="1"/>
        <pt x="251" y="8" on="1"/>
        <pt x="240" y="-47" on="1"/>
        <pt x="330" y="-77" on="0"/>
      </contour>
    </TTGlyph>
    <TTGlyph name="cent" xMin="41" yMin="-9" xMax="393" yMax="641">
      <contour>
        <pt x="259" y="148" on="1"/>
        <pt x="313" y="148" on="0"/>
        <pt x="374" y="176" on="1"/>
        <pt x="393" y="110" on="1"/>
        <pt x="323" y="78" on="0"/>
        <pt x="251" y="78" on="1"/>
        <pt x="232" y="78" on="1"/>
        <pt x="221" y="-9" on="1"/>
        <pt x="176" y="-9" on="1"/>
        <pt x="188" y="87" on="1"/>
        <pt x="121" y="108" on="0"/>
        <pt x="41" y="233" on="0"/>
        <pt x="41" y="425" on="0"/>
        <pt x="156" y="557" on="0"/>
        <pt x="247" y="558" on="1"/>
        <pt x="257" y="641" on="1"/>
        <pt x="302" y="641" on="1"/>
        <pt x="291" y="555" on="1"/>
        <pt x="335" y="550" on="0"/>
        <pt x="387" y="528" on="1"/>
        <pt x="362" y="466" on="1"/>
        <pt x="321" y="482" on="0"/>
        <pt x="283" y="486" on="1"/>
        <pt x="241" y="149" on="1"/>
        <pt x="247" y="148" on="0"/>
      </contour>
      <contour>
        <pt x="129" y="321" on="1"/>
        <pt x="129" y="200" on="0"/>
        <pt x="197" y="163" on="1"/>
        <pt x="238" y="487" on="1"/>
        <pt x="187" y="481" on="0"/>
        <pt x="129" y="396" on="0"/>
      </contour>
    </TTGlyph>
    <TTGlyph name="circumflex" xMin="42" yMin="513" xMax="280" yMax="695">
      <contour>
        <pt x="280" y="513" on="1"/>
        <pt x="227" y="513" on="1"/>
        <pt x="163" y="597" on="1"/>
        <pt x="158" y="597" on="1"/>
        <pt x="95" y="513" on="1"/>
        <pt x="42" y="513" on="1"/>
        <pt x="139" y="695" on="1"/>
        <pt x="183" y="695" on="1"/>
      </contour>
    </TTGlyph>
    <TTGlyph name="circumflex.case" xMin="42" yMin="742" xMax="280" yMax="924">
      <contour>
        <pt x="280" y="742" on="1"/>
        <pt x="227" y="742" on="1"/>
        <pt x="163" y="826" on="1"/>
        <pt x="158" y="826" on="1"/>
        <pt x="95" y="742" on="1"/>
        <pt x="42" y="742" on="1"/>
        <pt x="139" y="924" on="1"/>
        <pt x="183" y="924" on="1"/>
      </contour>
    </TTGlyph>
    <TTGlyph name="colon" xMin="30" yMin="-9" xMax="136" yMax="403">
      <contour>
        <pt x="105" y="-9" on="0"/>
        <pt x="61" y="-9" on="0"/>
        <pt x="30" y="22" on="0"/>
        <pt x="30" y="68" on="0"/>
        <pt x="61" y="99" on="0"/>
        <pt x="105" y="99" on="0"/>
        <pt x="136" y="68" on="0"/>
        <pt x="136" y="22" on="0"/>
      </contour>
      <contour>
        <pt x="105" y="295" on="0"/>
        <pt x="61" y="295" on="0"/>
        <pt x="30" y="326" on="0"/>
        <pt x="30" y="372" on="0"/>
        <pt x="61" y="403" on="0"/>
        <pt x="105" y="403" on="0"/>
        <pt x="136" y="372" on="0"/>
        <pt x="136" y="326" on="0"/>
      </contour>
    </TTGlyph>
    <TTGlyph name="comma" xMin="21" yMin="-135" xMax="158" yMax="89">
      <contour>
        <pt x="68" y="-135" on="1"/>
        <pt x="21" y="-125" on="1"/>
        <pt x="62" y="79" on="1"/>
        <pt x="158" y="89" on="1"/>
      </contour>
    </TTGlyph>
    <TTGlyph name="commaaccent" xMin="80" yMin="-269" xMax="217" yMax="-45">
      <contour>
        <pt x="127" y="-269" on="1"/>
        <pt x="80" y="-259" on="1"/>
        <pt x="121" y="-55" on="1"/>
        <pt x="217" y="-45" on="1"/>
      </contour>
    </TTGlyph>
    <TTGlyph name="copyright" xMin="50" yMin="197" xMax="613" yMax="760">
      <contour>
        <pt x="87" y="580" on="0"/>
        <pt x="87" y="378" on="0"/>
        <pt x="230" y="235" on="0"/>
        <pt x="432" y="235" on="0"/>
        <pt x="575" y="378" on="0"/>
        <pt x="575" y="580" on="0"/>
        <pt x="432" y="723" on="0"/>
        <pt x="230" y="723" on="0"/>
      </contour>
      <contour>
        <pt x="215" y="197" on="0"/>
        <pt x="50" y="362" on="0"/>
        <pt x="50" y="595" on="0"/>
        <pt x="215" y="760" on="0"/>
        <pt x="448" y="760" on="0"/>
        <pt x="613" y="595" on="0"/>
        <pt x="613" y="362" on="0"/>
        <pt x="448" y="197" on="0"/>
      </contour>
      <contour>
        <pt x="298" y="615" on="0"/>
        <pt x="237" y="542" on="0"/>
        <pt x="237" y="427" on="0"/>
        <pt x="289" y="363" on="0"/>
        <pt x="386" y="363" on="0"/>
        <pt x="435" y="390" on="1"/>
        <pt x="444" y="341" on="1"/>
        <pt x="382" y="314" on="0"/>
        <pt x="328" y="314" on="1"/>
        <pt x="255" y="314" on="0"/>
        <pt x="176" y="410" on="0"/>
        <pt x="176" y="560" on="0"/>
        <pt x="273" y="664" on="0"/>
        <pt x="352" y="664" on="1"/>
        <pt x="389" y="664" on="0"/>
        <pt x="437" y="649" on="1"/>
        <pt x="422" y="603" on="1"/>
        <pt x="381" y="615" on="0"/>
        <pt x="352" y="615" on="1"/>
      </contour>
    </TTGlyph>
    <TTGlyph name="currency" xMin="33" yMin="95" xMax="489" yMax="551">
      <contour>
        <pt x="115" y="213" on="1"/>
        <pt x="79" y="262" on="0"/>
        <pt x="79" y="382" on="0"/>
        <pt x="115" y="432" on="1"/>
        <pt x="35" y="495" on="1"/>
        <pt x="86" y="551" on="1"/>
        <pt x="152" y="468" on="1"/>
        <pt x="203" y="504" on="0"/>
        <pt x="318" y="504" on="0"/>
        <pt x="370" y="468" on="1"/>
        <pt x="434" y="549" on="1"/>
        <pt x="489" y="496" on="1"/>
        <pt x="407" y="431" on="1"/>
        <pt x="443" y="378" on="0"/>
        <pt x="443" y="266" on="0"/>
        <pt x="407" y="213" on="1"/>
        <pt x="487" y="151" on="1"/>
        <pt x="436" y="95" on="1"/>
        <pt x="370" y="177" on="1"/>
        <pt x="320" y="141" on="0"/>
        <pt x="200" y="141" on="0"/>
        <pt x="151" y="177" on="1"/>
        <pt x="89" y="97" on="1"/>
        <pt x="33" y="148" on="1"/>
      </contour>
      <contour>
        <pt x="212" y="438" on="0"/>
        <pt x="146" y="371" on="0"/>
        <pt x="146" y="273" on="0"/>
        <pt x="212" y="207" on="0"/>
        <pt x="310" y="207" on="0"/>
        <pt x="376" y="273" on="0"/>
        <pt x="376" y="371" on="0"/>
        <pt x="310" y="438" on="0"/>
      </contour>
    </TTGlyph>
    <TTGlyph name="d" xMin="44" yMin="-12" xMax="461" yMax="718">
      <contour>
        <pt x="379" y="718" on="1"/>
        <pt x="461" y="718" on="1"/>
        <pt x="461" y="0" on="1"/>
        <pt x="407" y="0" on="1"/>
        <pt x="382" y="60" on="1"/>
        <pt x="307" y="-12" on="0"/>
        <pt x="148" y="-12" on="0"/>
        <pt x="44" y="111" on="0"/>
        <pt x="44" y="321" on="0"/>
        <pt x="168" y="462" on="0"/>
        <pt x="266" y="462" on="1"/>
        <pt x="319" y="462" on="0"/>
        <pt x="379" y="438" on="1"/>
      </contour>
      <contour>
        <pt x="287" y="394" on="1"/>
        <pt x="212" y="394" on="0"/>
        <pt x="130" y="292" on="0"/>
        <pt x="130" y="146" on="0"/>
        <pt x="198" y="58" on="0"/>
        <pt x="252" y="58" on="1"/>
        <pt x="282" y="58" on="0"/>
        <pt x="351" y="91" on="0"/>
        <pt x="379" y="120" on="1"/>
        <pt x="379" y="376" on="1"/>
        <pt x="332" y="394" on="0"/>
      </contour>
    </TTGlyph>
    <TTGlyph name="dagger" xMin="15" yMin="0" xMax="403" yMax="673">
      <contour>
        <pt x="164" y="673" on="1"/>
        <pt x="254" y="673" on="1"/>
        <pt x="234" y="509" on="1"/>
        <pt x="184" y="509" on="1"/>
      </contour>
      <contour>
        <pt x="254" y="0" on="1"/>
        <pt x="164" y="0" on="1"/>
        <pt x="184" y="445" on="1"/>
        <pt x="234" y="445" on="1"/>
      </contour>
      <contour>
        <pt x="15" y="432" on="1"/>
        <pt x="15" y="522" on="1"/>
        <pt x="175" y="502" on="1"/>
        <pt x="175" y="452" on="1"/>
      </contour>
      <contour>
        <pt x="403" y="432" on="1"/>
        <pt x="243" y="452" on="1"/>
        <pt x="243" y="502" on="1"/>
        <pt x="403" y="522" on="1"/>
      </contour>
    </TTGlyph>
    <TTGlyph name="daggerdbl" xMin="15" yMin="-204" xMax="403" yMax="673">
      <contour>
        <pt x="164" y="235" on="1"/>
        <pt x="184" y="445" on="1"/>
        <pt x="234" y="445" on="1"/>
        <pt x="254" y="234" on="1"/>
        <pt x="234" y="24" on="1"/>
        <pt x="184" y="24" on="1"/>
      </contour>
      <contour>
        <pt x="164" y="673" on="1"/>
        <pt x="254" y="673" on="1"/>
        <pt x="234" y="509" on="1"/>
        <pt x="184" y="509" on="1"/>
      </contour>
      <contour>
        <pt x="254" y="-204" on="1"/>
        <pt x="164" y="-204" on="1"/>
        <pt x="184" y="-40" on="1"/>
        <pt x="234" y="-40" on="1"/>
      </contour>
      <contour>
        <pt x="403" y="37" on="1"/>
        <pt x="403" y="-53" on="1"/>
        <pt x="243" y="-33" on="1"/>
        <pt x="243" y="17" on="1"/>
      </contour>
      <contour>
        <pt x="403" y="522" on="1"/>
        <pt x="403" y="432" on="1"/>
        <pt x="243" y="452" on="1"/>
        <pt x="243" y="502" on="1"/>
      </contour>
      <contour>
        <pt x="15" y="432" on="1"/>
        <pt x="15" y="522" on="1"/>
        <pt x="175" y="502" on="1"/>
        <pt x="175" y="452" on="1"/>
      </contour>
      <contour>
        <pt x="15" y="-53" on="1"/>
        <pt x="15" y="37" on="1"/>
        <pt x="175" y="17" on="1"/>
        <pt x="175" y="-33" on="1"/>
      </contour>
    </TTGlyph>
    <TTGlyph name="dcaron" xMin="44" yMin="-12" xMax="638" yMax="740">
      <contour>
        <pt x="379" y="718" on="1"/>
        <pt x="461" y="718" on="1"/>
        <pt x="461" y="0" on="1"/>
        <pt x="407" y="0" on="1"/>
        <pt x="382" y="60" on="1"/>
        <pt x="307" y="-12" on="0"/>
        <pt x="148" y="-12" on="0"/>
        <pt x="44" y="111" on="0"/>
        <pt x="44" y="321" on="0"/>
        <pt x="168" y="462" on="0"/>
        <pt x="266" y="462" on="1"/>
        <pt x="319" y="462" on="0"/>
        <pt x="379" y="438" on="1"/>
      </contour>
      <contour>
        <pt x="287" y="394" on="1"/>
        <pt x="212" y="394" on="0"/>
        <pt x="130" y="292" on="0"/>
        <pt x="130" y="146" on="0"/>
        <pt x="198" y="58" on="0"/>
        <pt x="252" y="58" on="1"/>
        <pt x="282" y="58" on="0"/>
        <pt x="351" y="91" on="0"/>
        <pt x="379" y="120" on="1"/>
        <pt x="379" y="376" on="1"/>
        <pt x="332" y="394" on="0"/>
      </contour>
      <contour>
        <pt x="548" y="516" on="1"/>
        <pt x="501" y="526" on="1"/>
        <pt x="542" y="730" on="1"/>
        <pt x="638" y="740" on="1"/>
      </contour>
    </TTGlyph>
    <TTGlyph name="dcroat" xMin="44" yMin="-12" xMax="522" yMax="718">
      <contour>
        <pt x="379" y="718" on="1"/>
        <pt x="461" y="718" on="1"/>
        <pt x="461" y="0" on="1"/>
        <pt x="407" y="0" on="1"/>
        <pt x="382" y="60" on="1"/>
        <pt x="307" y="-12" on="0"/>
        <pt x="148" y="-12" on="0"/>
        <pt x="44" y="111" on="0"/>
        <pt x="44" y="321" on="0"/>
        <pt x="168" y="462" on="0"/>
        <pt x="266" y="462" on="1"/>
        <pt x="319" y="462" on="0"/>
        <pt x="379" y="438" on="1"/>
      </contour>
      <contour>
        <pt x="287" y="394" on="1"/>
        <pt x="212" y="394" on="0"/>
        <pt x="130" y="292" on="0"/>
        <pt x="130" y="146" on="0"/>
        <pt x="198" y="58" on="0"/>
        <pt x="252" y="58" on="1"/>
        <pt x="282" y="58" on="0"/>
        <pt x="351" y="91" on="0"/>
        <pt x="379" y="120" on="1"/>
        <pt x="379" y="376" on="1"/>
        <pt x="332" y="394" on="0"/>
      </contour>
      <contour>
        <pt x="522" y="577" on="1"/>
        <pt x="236" y="577" on="1"/>
        <pt x="236" y="631" on="1"/>
        <pt x="522" y="631" on="1"/>
      </contour>
    </TTGlyph>
    <TTGlyph name="degree" xMin="10" yMin="424" xMax="271" yMax="685">
      <contour>
        <pt x="10" y="500" on="0"/>
        <pt x="10" y="608" on="0"/>
        <pt x="86" y="685" on="0"/>
        <pt x="194" y="685" on="0"/>
        <pt x="271" y="608" on="0"/>
        <pt x="271" y="500" on="0"/>
        <pt x="194" y="424" on="0"/>
        <pt x="86" y="424" on="0"/>
      </contour>
      <contour>
        <pt x="52" y="591" on="0"/>
        <pt x="52" y="517" on="0"/>
        <pt x="103" y="466" on="0"/>
        <pt x="177" y="466" on="0"/>
        <pt x="230" y="517" on="0"/>
        <pt x="230" y="591" on="0"/>
        <pt x="177" y="644" on="0"/>
        <pt x="103" y="644" on="0"/>
      </contour>
    </TTGlyph>
    <TTGlyph name="dieresis" xMin="85" yMin="547" xMax="375" yMax="659">
      <contour>
        <pt x="163" y="547" on="0"/>
        <pt x="117" y="547" on="0"/>
        <pt x="85" y="580" on="0"/>
        <pt x="85" y="626" on="0"/>
        <pt x="118" y="659" on="0"/>
        <pt x="162" y="659" on="0"/>
        <pt x="195" y="626" on="0"/>
        <pt x="195" y="580" on="0"/>
      </contour>
      <contour>
        <pt x="343" y="547" on="0"/>
        <pt x="297" y="547" on="0"/>
        <pt x="265" y="580" on="0"/>
        <pt x="265" y="626" on="0"/>
        <pt x="298" y="659" on="0"/>
        <pt x="342" y="659" on="0"/>
        <pt x="375" y="626" on="0"/>
        <pt x="375" y="580" on="0"/>
      </contour>
    </TTGlyph>
    <TTGlyph name="dieresis.case" xMin="85" yMin="776" xMax="375" yMax="888">
      <contour>
        <pt x="163" y="776" on="0"/>
        <pt x="117" y="776" on="0"/>
        <pt x="85" y="809" on="0"/>
        <pt x="85" y="856" on="0"/>
        <pt x="118" y="888" on="0"/>
        <pt x="162" y="888" on="0"/>
        <pt x="195" y="856" on="0"/>
        <pt x="195" y="809" on="0"/>
      </contour>
      <contour>
        <pt x="343" y="776" on="0"/>
        <pt x="297" y="776" on="0"/>
        <pt x="265" y="809" on="0"/>
        <pt x="265" y="856" on="0"/>
        <pt x="298" y="888" on="0"/>
        <pt x="342" y="888" on="0"/>
        <pt x="375" y="856" on="0"/>
        <pt x="375" y="809" on="0"/>
      </contour>
    </TTGlyph>
    <TTGlyph name="divide" xMin="24" yMin="101" xMax="499" yMax="505">
      <contour>
        <pt x="24" y="273" on="1"/>
        <pt x="24" y="334" on="1"/>
        <pt x="499" y="334" on="1"/>
        <pt x="499" y="273" on="1"/>
      </contour>
      <contour>
        <pt x="283" y="398" on="0"/>
        <pt x="239" y="398" on="0"/>
        <pt x="209" y="429" on="0"/>
        <pt x="209" y="475" on="0"/>
        <pt x="239" y="505" on="0"/>
        <pt x="283" y="505" on="0"/>
        <pt x="314" y="475" on="0"/>
        <pt x="314" y="429" on="0"/>
      </contour>
      <contour>
        <pt x="283" y="101" on="0"/>
        <pt x="239" y="101" on="0"/>
        <pt x="209" y="132" on="0"/>
        <pt x="209" y="178" on="0"/>
        <pt x="239" y="208" on="0"/>
        <pt x="283" y="208" on="0"/>
        <pt x="314" y="178" on="0"/>
        <pt x="314" y="132" on="0"/>
      </contour>
    </TTGlyph>
    <TTGlyph name="dollar" xMin="55" yMin="-120" xMax="468" yMax="781">
      <contour>
        <pt x="468" y="167" on="1"/>
        <pt x="468" y="85" on="0"/>
        <pt x="351" y="-12" on="0"/>
        <pt x="253" y="-12" on="1"/>
        <pt x="237" y="-12" on="1"/>
        <pt x="224" y="-120" on="1"/>
        <pt x="179" y="-120" on="1"/>
        <pt x="192" y="-8" on="1"/>
        <pt x="105" y="2" on="0"/>
        <pt x="55" y="26" on="1"/>
        <pt x="79" y="93" on="1"/>
        <pt x="137" y="67" on="0"/>
        <pt x="201" y="60" on="1"/>
        <pt x="230" y="303" on="1"/>
        <pt x="183" y="329" on="1"/>
        <pt x="70" y="391" on="0"/>
        <pt x="70" y="493" on="1"/>
        <pt x="70" y="573" on="0"/>
        <pt x="182" y="671" on="0"/>
        <pt x="276" y="673" on="1"/>
        <pt x="289" y="781" on="1"/>
        <pt x="334" y="781" on="1"/>
        <pt x="320" y="671" on="1"/>
        <pt x="373" y="666" on="0"/>
        <pt x="435" y="646" on="1"/>
        <pt x="410" y="580" on="1"/>
        <pt x="347" y="600" on="0"/>
        <pt x="312" y="602" on="1"/>
        <pt x="283" y="369" on="1"/>
        <pt x="355" y="330" on="1"/>
        <pt x="468" y="267" on="0"/>
      </contour>
      <contour>
        <pt x="382" y="159" on="1"/>
        <pt x="382" y="220" on="0"/>
        <pt x="318" y="255" on="1"/>
        <pt x="272" y="280" on="1"/>
        <pt x="245" y="58" on="1"/>
        <pt x="309" y="58" on="0"/>
        <pt x="382" y="117" on="0"/>
      </contour>
      <contour>
        <pt x="156" y="500" on="1"/>
        <pt x="156" y="440" on="0"/>
        <pt x="220" y="405" on="1"/>
        <pt x="241" y="393" on="1"/>
        <pt x="267" y="601" on="1"/>
        <pt x="215" y="595" on="0"/>
        <pt x="156" y="537" on="0"/>
      </contour>
    </TTGlyph>
    <TTGlyph name="dotaccent" xMin="74" yMin="547" xMax="184" yMax="659">
      <contour>
        <pt x="152" y="547" on="0"/>
        <pt x="106" y="547" on="0"/>
        <pt x="74" y="580" on="0"/>
        <pt x="74" y="626" on="0"/>
        <pt x="106" y="659" on="0"/>
        <pt x="152" y="659" on="0"/>
        <pt x="184" y="626" on="0"/>
        <pt x="184" y="580" on="0"/>
      </contour>
    </TTGlyph>
    <TTGlyph name="dotaccent.case" xMin="74" yMin="776" xMax="184" yMax="888">
      <contour>
        <pt x="152" y="776" on="0"/>
        <pt x="106" y="776" on="0"/>
        <pt x="74" y="809" on="0"/>
        <pt x="74" y="856" on="0"/>
        <pt x="106" y="888" on="0"/>
        <pt x="152" y="888" on="0"/>
        <pt x="184" y="856" on="0"/>
        <pt x="184" y="809" on="0"/>
      </contour>
    </TTGlyph>
    <TTGlyph name="dotlessi" xMin="80" yMin="0" xMax="165" yMax="456">
      <contour>
        <pt x="80" y="456" on="1"/>
        <pt x="165" y="456" on="1"/>
        <pt x="165" y="0" on="1"/>
        <pt x="80" y="0" on="1"/>
      </contour>
    </TTGlyph>
    <TTGlyph name="e" xMin="41" yMin="-12" xMax="440" yMax="468">
      <contour>
        <pt x="255" y="58" on="1"/>
        <pt x="327" y="58" on="0"/>
        <pt x="399" y="101" on="1"/>
        <pt x="428" y="41" on="1"/>
        <pt x="344" y="-12" on="0"/>
        <pt x="153" y="-12" on="0"/>
        <pt x="41" y="109" on="0"/>
        <pt x="41" y="337" on="0"/>
        <pt x="157" y="468" on="0"/>
        <pt x="253" y="468" on="1"/>
        <pt x="340" y="468" on="0"/>
        <pt x="390" y="414" on="1"/>
        <pt x="411" y="392" on="0"/>
        <pt x="440" y="308" on="0"/>
        <pt x="440" y="251" on="1"/>
        <pt x="409" y="216" on="1"/>
        <pt x="126" y="216" on="1"/>
        <pt x="129" y="58" on="0"/>
      </contour>
      <contour>
        <pt x="356" y="335" on="0"/>
        <pt x="298" y="403" on="0"/>
        <pt x="203" y="403" on="0"/>
        <pt x="137" y="336" on="0"/>
        <pt x="130" y="279" on="1"/>
        <pt x="356" y="279" on="1"/>
      </contour>
    </TTGlyph>
    <TTGlyph name="eacute" xMin="41" yMin="-12" xMax="440" yMax="697">
      <contour>
        <pt x="255" y="58" on="1"/>
        <pt x="327" y="58" on="0"/>
        <pt x="399" y="101" on="1"/>
        <pt x="428" y="41" on="1"/>
        <pt x="344" y="-12" on="0"/>
        <pt x="153" y="-12" on="0"/>
        <pt x="41" y="109" on="0"/>
        <pt x="41" y="337" on="0"/>
        <pt x="157" y="468" on="0"/>
        <pt x="253" y="468" on="1"/>
        <pt x="340" y="468" on="0"/>
        <pt x="390" y="414" on="1"/>
        <pt x="411" y="392" on="0"/>
        <pt x="440" y="308" on="0"/>
        <pt x="440" y="251" on="1"/>
        <pt x="409" y="216" on="1"/>
        <pt x="126" y="216" on="1"/>
        <pt x="129" y="58" on="0"/>
      </contour>
      <contour>
        <pt x="356" y="335" on="0"/>
        <pt x="298" y="403" on="0"/>
        <pt x="203" y="403" on="0"/>
        <pt x="137" y="336" on="0"/>
        <pt x="130" y="279" on="1"/>
        <pt x="356" y="279" on="1"/>
      </contour>
      <contour>
        <pt x="256" y="513" on="1"/>
        <pt x="192" y="513" on="1"/>
        <pt x="319" y="697" on="1"/>
        <pt x="391" y="643" on="1"/>
      </contour>
    </TTGlyph>
    <TTGlyph name="ebreve" xMin="41" yMin="-12" xMax="440" yMax="657">
      <contour>
        <pt x="255" y="58" on="1"/>
        <pt x="327" y="58" on="0"/>
        <pt x="399" y="101" on="1"/>
        <pt x="428" y="41" on="1"/>
        <pt x="344" y="-12" on="0"/>
        <pt x="153" y="-12" on="0"/>
        <pt x="41" y="109" on="0"/>
        <pt x="41" y="337" on="0"/>
        <pt x="157" y="468" on="0"/>
        <pt x="253" y="468" on="1"/>
        <pt x="340" y="468" on="0"/>
        <pt x="390" y="414" on="1"/>
        <pt x="411" y="392" on="0"/>
        <pt x="440" y="308" on="0"/>
        <pt x="440" y="251" on="1"/>
        <pt x="409" y="216" on="1"/>
        <pt x="126" y="216" on="1"/>
        <pt x="129" y="58" on="0"/>
      </contour>
      <contour>
        <pt x="356" y="335" on="0"/>
        <pt x="298" y="403" on="0"/>
        <pt x="203" y="403" on="0"/>
        <pt x="137" y="336" on="0"/>
        <pt x="130" y="279" on="1"/>
        <pt x="356" y="279" on="1"/>
      </contour>
      <contour>
        <pt x="391" y="605" on="0"/>
        <pt x="314" y="530" on="0"/>
        <pt x="205" y="530" on="0"/>
        <pt x="127" y="605" on="0"/>
        <pt x="123" y="657" on="1"/>
        <pt x="194" y="657" on="1"/>
        <pt x="204" y="596" on="0"/>
        <pt x="314" y="596" on="0"/>
        <pt x="324" y="657" on="1"/>
        <pt x="394" y="657" on="1"/>
      </contour>
    </TTGlyph>
    <TTGlyph name="ecaron" xMin="41" yMin="-12" xMax="440" yMax="691">
      <contour>
        <pt x="255" y="58" on="1"/>
        <pt x="327" y="58" on="0"/>
        <pt x="399" y="101" on="1"/>
        <pt x="428" y="41" on="1"/>
        <pt x="344" y="-12" on="0"/>
        <pt x="153" y="-12" on="0"/>
        <pt x="41" y="109" on="0"/>
        <pt x="41" y="337" on="0"/>
        <pt x="157" y="468" on="0"/>
        <pt x="253" y="468" on="1"/>
        <pt x="340" y="468" on="0"/>
        <pt x="390" y="414" on="1"/>
        <pt x="411" y="392" on="0"/>
        <pt x="440" y="308" on="0"/>
        <pt x="440" y="251" on="1"/>
        <pt x="409" y="216" on="1"/>
        <pt x="126" y="216" on="1"/>
        <pt x="129" y="58" on="0"/>
      </contour>
      <contour>
        <pt x="356" y="335" on="0"/>
        <pt x="298" y="403" on="0"/>
        <pt x="203" y="403" on="0"/>
        <pt x="137" y="336" on="0"/>
        <pt x="130" y="279" on="1"/>
        <pt x="356" y="279" on="1"/>
      </contour>
      <contour>
        <pt x="261" y="607" on="1"/>
        <pt x="325" y="691" on="1"/>
        <pt x="378" y="691" on="1"/>
        <pt x="281" y="509" on="1"/>
        <pt x="237" y="509" on="1"/>
        <pt x="140" y="691" on="1"/>
        <pt x="193" y="691" on="1"/>
        <pt x="256" y="607" on="1"/>
      </contour>
    </TTGlyph>
    <TTGlyph name="ecircumflex" xMin="41" yMin="-12" xMax="440" yMax="695">
      <contour>
        <pt x="255" y="58" on="1"/>
        <pt x="327" y="58" on="0"/>
        <pt x="399" y="101" on="1"/>
        <pt x="428" y="41" on="1"/>
        <pt x="344" y="-12" on="0"/>
        <pt x="153" y="-12" on="0"/>
        <pt x="41" y="109" on="0"/>
        <pt x="41" y="337" on="0"/>
        <pt x="157" y="468" on="0"/>
        <pt x="253" y="468" on="1"/>
        <pt x="340" y="468" on="0"/>
        <pt x="390" y="414" on="1"/>
        <pt x="411" y="392" on="0"/>
        <pt x="440" y="308" on="0"/>
        <pt x="440" y="251" on="1"/>
        <pt x="409" y="216" on="1"/>
        <pt x="126" y="216" on="1"/>
        <pt x="129" y="58" on="0"/>
      </contour>
      <contour>
        <pt x="356" y="335" on="0"/>
        <pt x="298" y="403" on="0"/>
        <pt x="203" y="403" on="0"/>
        <pt x="137" y="336" on="0"/>
        <pt x="130" y="279" on="1"/>
        <pt x="356" y="279" on="1"/>
      </contour>
      <contour>
        <pt x="361" y="513" on="1"/>
        <pt x="308" y="513" on="1"/>
        <pt x="244" y="597" on="1"/>
        <pt x="239" y="597" on="1"/>
        <pt x="176" y="513" on="1"/>
        <pt x="123" y="513" on="1"/>
        <pt x="220" y="695" on="1"/>
        <pt x="264" y="695" on="1"/>
      </contour>
    </TTGlyph>
</ttFont>
